<?xml version="1.0" encoding="utf-8" standalone="no"?>
<!DOCTYPE svg PUBLIC "-//W3C//DTD SVG 1.1//EN"
  "http://www.w3.org/Graphics/SVG/1.1/DTD/svg11.dtd">
<svg xmlns:xlink="http://www.w3.org/1999/xlink" width="302.022216pt" height="291.6pt" viewBox="0 0 302.022216 291.6" xmlns="http://www.w3.org/2000/svg" version="1.1">
 <metadata>
  <rdf:RDF xmlns:dc="http://purl.org/dc/elements/1.1/" xmlns:cc="http://creativecommons.org/ns#" xmlns:rdf="http://www.w3.org/1999/02/22-rdf-syntax-ns#">
   <cc:Work>
    <dc:type rdf:resource="http://purl.org/dc/dcmitype/StillImage"/>
    <dc:date>2026-07-06T14:29:54.587957</dc:date>
    <dc:format>image/svg+xml</dc:format>
    <dc:creator>
     <cc:Agent>
      <dc:title>Matplotlib v3.8.4, https://matplotlib.org/</dc:title>
     </cc:Agent>
    </dc:creator>
   </cc:Work>
  </rdf:RDF>
 </metadata>
 <defs>
  <style type="text/css">*{stroke-linejoin: round; stroke-linecap: butt}</style>
 </defs>
 <g id="figure_1">
  <g id="patch_1">
   <path d="M 0 291.6 
L 302.022216 291.6 
L 302.022216 0 
L 0 0 
L 0 291.6 
z
" style="fill: none"/>
  </g>
  <g id="patch_2">
   <path d="M 17.622216 284.4 
L 294.822216 284.4 
L 294.822216 7.2 
L 17.622216 7.2 
L 17.622216 284.4 
z
" style="fill: none"/>
  </g>
  <g id="pane3d_1">
   <g id="patch_3">
    <path d="M 283.765061 201.556079 
L 159.968162 148.736843 
L 159.968162 34.310707 
L 288.526214 80.263618 
" style="fill: #f2f2f2; opacity: 0.5; stroke: #f2f2f2; stroke-linejoin: miter"/>
   </g>
  </g>
  <g id="pane3d_2">
   <g id="patch_4">
    <path d="M 36.171263 201.556079 
L 159.968162 148.736843 
L 159.968162 34.310707 
L 31.410111 80.263618 
" style="fill: #e6e6e6; opacity: 0.5; stroke: #e6e6e6; stroke-linejoin: miter"/>
   </g>
  </g>
  <g id="pane3d_3">
   <g id="patch_5">
    <path d="M 159.968162 262.925742 
L 283.765061 201.556079 
L 159.968162 148.736843 
L 36.171263 201.556079 
" style="fill: #ececec; opacity: 0.5; stroke: #ececec; stroke-linejoin: miter"/>
   </g>
  </g>
  <g id="grid3d_1">
   <g id="Line3DCollection_1">
    <path d="M 168.440157 258.725932 
L 44.59899 197.960301 
L 40.18381 77.127471 
" style="fill: none; stroke: #b0b0b0; stroke-width: 0.8"/>
    <path d="M 187.482447 249.286124 
L 63.565414 189.868079 
L 59.917141 70.073817 
" style="fill: none; stroke: #b0b0b0; stroke-width: 0.8"/>
    <path d="M 206.08887 240.062389 
L 82.129374 181.947572 
L 79.216061 63.175443 
" style="fill: none; stroke: #b0b0b0; stroke-width: 0.8"/>
    <path d="M 224.27422 231.04739 
L 100.303546 174.193373 
L 98.094759 56.427276 
" style="fill: none; stroke: #b0b0b0; stroke-width: 0.8"/>
    <path d="M 242.052632 222.234123 
L 118.100079 166.600297 
L 116.566813 49.824464 
" style="fill: none; stroke: #b0b0b0; stroke-width: 0.8"/>
    <path d="M 259.437615 213.61589 
L 135.530621 159.163375 
L 134.645221 43.36236 
" style="fill: none; stroke: #b0b0b0; stroke-width: 0.8"/>
    <path d="M 276.442083 205.186288 
L 152.606348 151.877838 
L 152.342433 37.036514 
" style="fill: none; stroke: #b0b0b0; stroke-width: 0.8"/>
   </g>
  </g>
  <g id="grid3d_2">
   <g id="Line3DCollection_2">
    <path d="M 279.752514 77.127471 
L 275.337335 197.960301 
L 151.496167 258.725932 
" style="fill: none; stroke: #b0b0b0; stroke-width: 0.8"/>
    <path d="M 260.019184 70.073817 
L 256.37091 189.868079 
L 132.453877 249.286124 
" style="fill: none; stroke: #b0b0b0; stroke-width: 0.8"/>
    <path d="M 240.720264 63.175443 
L 237.80695 181.947572 
L 113.847454 240.062389 
" style="fill: none; stroke: #b0b0b0; stroke-width: 0.8"/>
    <path d="M 221.841565 56.427276 
L 219.632778 174.193373 
L 95.662104 231.04739 
" style="fill: none; stroke: #b0b0b0; stroke-width: 0.8"/>
    <path d="M 203.369511 49.824464 
L 201.836246 166.600297 
L 77.883692 222.234123 
" style="fill: none; stroke: #b0b0b0; stroke-width: 0.8"/>
    <path d="M 185.291103 43.36236 
L 184.405703 159.163375 
L 60.49871 213.61589 
" style="fill: none; stroke: #b0b0b0; stroke-width: 0.8"/>
    <path d="M 167.593891 37.036514 
L 167.329976 151.877838 
L 43.494241 205.186288 
" style="fill: none; stroke: #b0b0b0; stroke-width: 0.8"/>
   </g>
  </g>
  <g id="grid3d_3">
   <g id="Line3DCollection_3">
    <path d="M 36.079498 199.218339 
L 159.968162 146.525648 
L 283.856826 199.218339 
" style="fill: none; stroke: #b0b0b0; stroke-width: 0.8"/>
    <path d="M 35.29592 179.256334 
L 159.968162 127.653501 
L 284.640404 179.256334 
" style="fill: none; stroke: #b0b0b0; stroke-width: 0.8"/>
    <path d="M 34.502367 159.040207 
L 159.968162 108.558053 
L 285.433958 159.040207 
" style="fill: none; stroke: #b0b0b0; stroke-width: 0.8"/>
    <path d="M 33.698646 138.565076 
L 159.968162 89.235317 
L 286.237678 138.565076 
" style="fill: none; stroke: #b0b0b0; stroke-width: 0.8"/>
    <path d="M 32.884562 117.82593 
L 159.968162 69.681212 
L 287.051762 117.82593 
" style="fill: none; stroke: #b0b0b0; stroke-width: 0.8"/>
    <path d="M 32.059913 96.817631 
L 159.968162 49.891556 
L 287.876411 96.817631 
" style="fill: none; stroke: #b0b0b0; stroke-width: 0.8"/>
   </g>
  </g>
  <g id="axis3d_1">
   <g id="line2d_1">
    <path d="M 283.765061 201.556079 
L 159.968162 262.925742 
" style="fill: none; stroke: #000000; stroke-width: 0.8; stroke-linecap: square"/>
   </g>
   <g id="xtick_1">
    <g id="line2d_2">
     <path d="M 167.370338 258.201 
L 170.583936 259.777829 
" style="fill: none; stroke: #000000; stroke-width: 0.8; stroke-linecap: square"/>
    </g>
    <g id="text_1">
     <!-- $\mathdefault{0.0}$ -->
     <g transform="translate(173.354673 279.983975) scale(0.09 -0.09)">
      <defs>
       <path id="TeXGyreTermesX-Regular-30" d="M 3046 2138 
C 3046 3450 2464 4352 1626 4352 
C 1274 4352 1005 4244 768 4020 
C 397 3661 154 2925 154 2176 
C 154 1479 365 730 666 372 
C 902 90 1229 -64 1600 -64 
C 1926 -64 2202 45 2432 269 
C 2803 621 3046 1364 3046 2138 
z
M 2432 2125 
C 2432 788 2150 103 1600 103 
C 1050 103 768 788 768 2119 
C 768 3476 1056 4186 1606 4186 
C 2144 4186 2432 3463 2432 2125 
z
" transform="scale(0.015625)"/>
       <path id="NewTXMI-95" d="M 1158 281 
C 1158 480 992 646 800 646 
C 608 646 448 486 448 281 
C 448 38 666 -64 800 -64 
C 934 -64 1158 44 1158 281 
z
" transform="scale(0.015625)"/>
      </defs>
      <use xlink:href="#TeXGyreTermesX-Regular-30" transform="scale(0.996264)"/>
      <use xlink:href="#NewTXMI-95" transform="translate(51.407199 0) scale(0.996264)"/>
      <use xlink:href="#TeXGyreTermesX-Regular-30" transform="translate(78.00746 0) scale(0.996264)"/>
     </g>
    </g>
   </g>
   <g id="xtick_2">
    <g id="line2d_3">
     <path d="M 186.412888 248.773272 
L 189.625657 250.31379 
" style="fill: none; stroke: #000000; stroke-width: 0.8; stroke-linecap: square"/>
    </g>
    <g id="text_2">
     <!-- $\mathdefault{0.5}$ -->
     <g transform="translate(192.33429 270.338414) scale(0.09 -0.09)">
      <defs>
       <path id="TeXGyreTermesX-Regular-35" d="M 2803 4403 
L 2746 4448 
C 2650 4314 2586 4282 2451 4282 
L 1114 4282 
L 416 2759 
C 410 2746 410 2727 410 2727 
C 410 2695 435 2676 486 2676 
C 691 2676 947 2631 1210 2547 
C 1946 2309 2285 1910 2285 1274 
C 2285 656 1894 173 1395 173 
C 1267 173 1158 218 966 360 
C 762 508 614 572 480 572 
C 294 572 205 495 205 334 
C 205 90 506 -64 986 -64 
C 1523 -64 1984 110 2304 438 
C 2598 728 2733 1094 2733 1583 
C 2733 2046 2611 2342 2291 2663 
C 2010 2947 1645 3094 890 3229 
L 1158 3776 
L 2413 3776 
C 2515 3776 2541 3789 2560 3834 
L 2803 4403 
z
" transform="scale(0.015625)"/>
      </defs>
      <use xlink:href="#TeXGyreTermesX-Regular-30" transform="scale(0.996264)"/>
      <use xlink:href="#NewTXMI-95" transform="translate(51.407199 0) scale(0.996264)"/>
      <use xlink:href="#TeXGyreTermesX-Regular-35" transform="translate(78.00746 0) scale(0.996264)"/>
     </g>
    </g>
   </g>
   <g id="xtick_3">
    <g id="line2d_4">
     <path d="M 205.019839 239.561205 
L 208.230974 241.066652 
" style="fill: none; stroke: #000000; stroke-width: 0.8; stroke-linecap: square"/>
    </g>
    <g id="text_3">
     <!-- $\mathdefault{1.0}$ -->
     <g transform="translate(210.878094 260.914336) scale(0.09 -0.09)">
      <defs>
       <path id="TeXGyreTermesX-Regular-31" d="M 2522 0 
L 2522 96 
C 2016 96 1914 160 1914 470 
L 1914 4327 
L 1862 4339 
L 710 3757 
L 710 3667 
C 787 3699 858 3725 883 3738 
C 998 3783 1107 3808 1171 3808 
C 1306 3808 1363 3711 1363 3505 
L 1363 592 
C 1363 379 1312 232 1210 173 
C 1114 116 1024 96 755 96 
L 755 0 
L 2522 0 
z
" transform="scale(0.015625)"/>
      </defs>
      <use xlink:href="#TeXGyreTermesX-Regular-31" transform="scale(0.996264)"/>
      <use xlink:href="#NewTXMI-95" transform="translate(51.407199 0) scale(0.996264)"/>
      <use xlink:href="#TeXGyreTermesX-Regular-30" transform="translate(78.00746 0) scale(0.996264)"/>
     </g>
    </g>
   </g>
   <g id="xtick_4">
    <g id="line2d_5">
     <path d="M 223.205968 230.557481 
L 226.414718 232.029041 
" style="fill: none; stroke: #000000; stroke-width: 0.8; stroke-linecap: square"/>
    </g>
    <g id="text_4">
     <!-- $\mathdefault{1.5}$ -->
     <g transform="translate(229.000924 251.704199) scale(0.09 -0.09)">
      <use xlink:href="#TeXGyreTermesX-Regular-31" transform="scale(0.996264)"/>
      <use xlink:href="#NewTXMI-95" transform="translate(51.407199 0) scale(0.996264)"/>
      <use xlink:href="#TeXGyreTermesX-Regular-35" transform="translate(78.00746 0) scale(0.996264)"/>
     </g>
    </g>
   </g>
   <g id="xtick_5">
    <g id="line2d_6">
     <path d="M 240.985392 221.755111 
L 244.19106 223.193917 
" style="fill: none; stroke: #000000; stroke-width: 0.8; stroke-linecap: square"/>
    </g>
    <g id="text_5">
     <!-- $\mathdefault{2.0}$ -->
     <g transform="translate(246.716956 242.7008) scale(0.09 -0.09)">
      <defs>
       <path id="TeXGyreTermesX-Regular-32" d="M 3040 875 
L 2957 907 
C 2720 544 2637 486 2349 486 
L 819 486 
L 1894 1609 
C 2464 2202 2714 2687 2714 3185 
C 2714 3823 2195 4313 1530 4313 
C 1178 4313 845 4173 608 3918 
C 403 3700 307 3496 198 3043 
L 333 3011 
C 589 3636 819 3840 1261 3840 
C 1798 3840 2163 3476 2163 2940 
C 2163 2443 1869 1850 1331 1282 
L 192 77 
L 192 0 
L 2688 0 
L 3040 875 
z
" transform="scale(0.015625)"/>
      </defs>
      <use xlink:href="#TeXGyreTermesX-Regular-32" transform="scale(0.996264)"/>
      <use xlink:href="#NewTXMI-95" transform="translate(51.407199 0) scale(0.996264)"/>
      <use xlink:href="#TeXGyreTermesX-Regular-30" transform="translate(78.00746 0) scale(0.996264)"/>
     </g>
    </g>
   </g>
   <g id="xtick_6">
    <g id="line2d_7">
     <path d="M 258.371602 213.147417 
L 261.573537 214.554548 
" style="fill: none; stroke: #000000; stroke-width: 0.8; stroke-linecap: square"/>
    </g>
    <g id="text_6">
     <!-- $\mathdefault{2.5}$ -->
     <g transform="translate(264.039733 233.897255) scale(0.09 -0.09)">
      <use xlink:href="#TeXGyreTermesX-Regular-32" transform="scale(0.996264)"/>
      <use xlink:href="#NewTXMI-95" transform="translate(51.407199 0) scale(0.996264)"/>
      <use xlink:href="#TeXGyreTermesX-Regular-35" transform="translate(78.00746 0) scale(0.996264)"/>
     </g>
    </g>
   </g>
   <g id="xtick_7">
    <g id="line2d_8">
     <path d="M 275.377501 204.72801 
L 278.575098 206.104502 
" style="fill: none; stroke: #000000; stroke-width: 0.8; stroke-linecap: square"/>
    </g>
    <g id="text_7">
     <!-- $\mathdefault{3.0}$ -->
     <g transform="translate(280.982207 225.286983) scale(0.09 -0.09)">
      <defs>
       <path id="TeXGyreTermesX-Regular-33" d="M 2765 1428 
C 2765 1754 2662 2055 2477 2253 
C 2349 2394 2227 2471 1946 2592 
C 2387 2893 2547 3130 2547 3476 
C 2547 3994 2138 4352 1549 4352 
C 1229 4352 947 4244 717 4039 
C 525 3866 429 3699 288 3315 
L 384 3290 
C 646 3757 934 3968 1338 3968 
C 1754 3968 2042 3687 2042 3284 
C 2042 3053 1946 2823 1786 2663 
C 1594 2471 1414 2375 979 2221 
L 979 2138 
C 1357 2138 1504 2125 1658 2068 
C 2054 1927 2304 1562 2304 1120 
C 2304 583 1939 167 1466 167 
C 1293 167 1165 212 928 365 
C 736 480 627 525 518 525 
C 371 525 275 436 275 301 
C 275 77 550 -64 998 -64 
C 1491 -64 1997 103 2298 365 
C 2598 628 2765 999 2765 1428 
z
" transform="scale(0.015625)"/>
      </defs>
      <use xlink:href="#TeXGyreTermesX-Regular-33" transform="scale(0.996264)"/>
      <use xlink:href="#NewTXMI-95" transform="translate(51.407199 0) scale(0.996264)"/>
      <use xlink:href="#TeXGyreTermesX-Regular-30" transform="translate(78.00746 0) scale(0.996264)"/>
     </g>
    </g>
   </g>
  </g>
  <g id="axis3d_2">
   <g id="line2d_9">
    <path d="M 36.171263 201.556079 
L 159.968162 262.925742 
" style="fill: none; stroke: #000000; stroke-width: 0.8; stroke-linecap: square"/>
   </g>
   <g id="xtick_8">
    <g id="line2d_10">
     <path d="M 152.565986 258.201 
L 149.352388 259.777829 
" style="fill: none; stroke: #000000; stroke-width: 0.8; stroke-linecap: square"/>
    </g>
    <g id="text_8">
     <!-- $\mathdefault{0.0}$ -->
     <g transform="translate(135.077794 279.983975) scale(0.09 -0.09)">
      <use xlink:href="#TeXGyreTermesX-Regular-30" transform="scale(0.996264)"/>
      <use xlink:href="#NewTXMI-95" transform="translate(51.407199 0) scale(0.996264)"/>
      <use xlink:href="#TeXGyreTermesX-Regular-30" transform="translate(78.00746 0) scale(0.996264)"/>
     </g>
    </g>
   </g>
   <g id="xtick_9">
    <g id="line2d_11">
     <path d="M 133.523436 248.773272 
L 130.310667 250.31379 
" style="fill: none; stroke: #000000; stroke-width: 0.8; stroke-linecap: square"/>
    </g>
    <g id="text_9">
     <!-- $\mathdefault{0.5}$ -->
     <g transform="translate(116.098177 270.338414) scale(0.09 -0.09)">
      <use xlink:href="#TeXGyreTermesX-Regular-30" transform="scale(0.996264)"/>
      <use xlink:href="#NewTXMI-95" transform="translate(51.407199 0) scale(0.996264)"/>
      <use xlink:href="#TeXGyreTermesX-Regular-35" transform="translate(78.00746 0) scale(0.996264)"/>
     </g>
    </g>
   </g>
   <g id="xtick_10">
    <g id="line2d_12">
     <path d="M 114.916485 239.561205 
L 111.705351 241.066652 
" style="fill: none; stroke: #000000; stroke-width: 0.8; stroke-linecap: square"/>
    </g>
    <g id="text_10">
     <!-- $\mathdefault{1.0}$ -->
     <g transform="translate(97.554373 260.914336) scale(0.09 -0.09)">
      <use xlink:href="#TeXGyreTermesX-Regular-31" transform="scale(0.996264)"/>
      <use xlink:href="#NewTXMI-95" transform="translate(51.407199 0) scale(0.996264)"/>
      <use xlink:href="#TeXGyreTermesX-Regular-30" transform="translate(78.00746 0) scale(0.996264)"/>
     </g>
    </g>
   </g>
   <g id="xtick_11">
    <g id="line2d_13">
     <path d="M 96.730356 230.557481 
L 93.521606 232.029041 
" style="fill: none; stroke: #000000; stroke-width: 0.8; stroke-linecap: square"/>
    </g>
    <g id="text_11">
     <!-- $\mathdefault{1.5}$ -->
     <g transform="translate(79.431542 251.704199) scale(0.09 -0.09)">
      <use xlink:href="#TeXGyreTermesX-Regular-31" transform="scale(0.996264)"/>
      <use xlink:href="#NewTXMI-95" transform="translate(51.407199 0) scale(0.996264)"/>
      <use xlink:href="#TeXGyreTermesX-Regular-35" transform="translate(78.00746 0) scale(0.996264)"/>
     </g>
    </g>
   </g>
   <g id="xtick_12">
    <g id="line2d_14">
     <path d="M 78.950933 221.755111 
L 75.745265 223.193917 
" style="fill: none; stroke: #000000; stroke-width: 0.8; stroke-linecap: square"/>
    </g>
    <g id="text_12">
     <!-- $\mathdefault{2.0}$ -->
     <g transform="translate(61.715511 242.7008) scale(0.09 -0.09)">
      <use xlink:href="#TeXGyreTermesX-Regular-32" transform="scale(0.996264)"/>
      <use xlink:href="#NewTXMI-95" transform="translate(51.407199 0) scale(0.996264)"/>
      <use xlink:href="#TeXGyreTermesX-Regular-30" transform="translate(78.00746 0) scale(0.996264)"/>
     </g>
    </g>
   </g>
   <g id="xtick_13">
    <g id="line2d_15">
     <path d="M 61.564722 213.147417 
L 58.362787 214.554548 
" style="fill: none; stroke: #000000; stroke-width: 0.8; stroke-linecap: square"/>
    </g>
    <g id="text_13">
     <!-- $\mathdefault{2.5}$ -->
     <g transform="translate(44.392733 233.897255) scale(0.09 -0.09)">
      <use xlink:href="#TeXGyreTermesX-Regular-32" transform="scale(0.996264)"/>
      <use xlink:href="#NewTXMI-95" transform="translate(51.407199 0) scale(0.996264)"/>
      <use xlink:href="#TeXGyreTermesX-Regular-35" transform="translate(78.00746 0) scale(0.996264)"/>
     </g>
    </g>
   </g>
   <g id="xtick_14">
    <g id="line2d_16">
     <path d="M 44.558823 204.72801 
L 41.361227 206.104502 
" style="fill: none; stroke: #000000; stroke-width: 0.8; stroke-linecap: square"/>
    </g>
    <g id="text_14">
     <!-- $\mathdefault{3.0}$ -->
     <g transform="translate(27.45026 225.286983) scale(0.09 -0.09)">
      <use xlink:href="#TeXGyreTermesX-Regular-33" transform="scale(0.996264)"/>
      <use xlink:href="#NewTXMI-95" transform="translate(51.407199 0) scale(0.996264)"/>
      <use xlink:href="#TeXGyreTermesX-Regular-30" transform="translate(78.00746 0) scale(0.996264)"/>
     </g>
    </g>
   </g>
  </g>
  <g id="axis3d_3">
   <g id="line2d_17">
    <path d="M 36.171263 201.556079 
L 31.410111 80.263618 
" style="fill: none; stroke: #000000; stroke-width: 0.8; stroke-linecap: square"/>
   </g>
   <g id="xtick_15">
    <g id="line2d_18">
     <path d="M 37.144238 198.765481 
L 33.946184 200.125687 
" style="fill: none; stroke: #000000; stroke-width: 0.8; stroke-linecap: square"/>
    </g>
    <g id="text_15">
     <!-- $\mathdefault{0}$ -->
     <g transform="translate(14.101529 205.373739) scale(0.09 -0.09)">
      <use xlink:href="#TeXGyreTermesX-Regular-30" transform="scale(0.996264)"/>
     </g>
    </g>
   </g>
   <g id="xtick_16">
    <g id="line2d_19">
     <path d="M 36.367863 178.812648 
L 33.14815 180.145313 
" style="fill: none; stroke: #000000; stroke-width: 0.8; stroke-linecap: square"/>
    </g>
    <g id="text_16">
     <!-- $\mathdefault{10}$ -->
     <g transform="translate(10.951526 185.411733) scale(0.09 -0.09)">
      <use xlink:href="#TeXGyreTermesX-Regular-31" transform="scale(0.996264)"/>
      <use xlink:href="#TeXGyreTermesX-Regular-30" transform="translate(49.8132 0) scale(0.996264)"/>
     </g>
    </g>
   </g>
   <g id="xtick_17">
    <g id="line2d_20">
     <path d="M 35.58161 158.605965 
L 32.339944 159.910275 
" style="fill: none; stroke: #000000; stroke-width: 0.8; stroke-linecap: square"/>
    </g>
    <g id="text_17">
     <!-- $\mathdefault{20}$ -->
     <g transform="translate(10.031554 165.195606) scale(0.09 -0.09)">
      <use xlink:href="#TeXGyreTermesX-Regular-32" transform="scale(0.996264)"/>
      <use xlink:href="#TeXGyreTermesX-Regular-30" transform="translate(49.8132 0) scale(0.996264)"/>
     </g>
    </g>
   </g>
   <g id="xtick_18">
    <g id="line2d_21">
     <path d="M 34.785289 138.140556 
L 31.521371 139.415672 
" style="fill: none; stroke: #000000; stroke-width: 0.8; stroke-linecap: square"/>
    </g>
    <g id="text_18">
     <!-- $\mathdefault{30}$ -->
     <g transform="translate(9.099795 144.720475) scale(0.09 -0.09)">
      <use xlink:href="#TeXGyreTermesX-Regular-33" transform="scale(0.996264)"/>
      <use xlink:href="#TeXGyreTermesX-Regular-30" transform="translate(49.8132 0) scale(0.996264)"/>
     </g>
    </g>
   </g>
   <g id="xtick_19">
    <g id="line2d_22">
     <path d="M 33.978707 117.411421 
L 30.692231 118.65648 
" style="fill: none; stroke: #000000; stroke-width: 0.8; stroke-linecap: square"/>
    </g>
    <g id="text_19">
     <!-- $\mathdefault{40}$ -->
     <g transform="translate(8.156022 123.98133) scale(0.09 -0.09)">
      <defs>
       <path id="TeXGyreTermesX-Regular-34" d="M 3021 1088 
L 3021 1497 
L 2368 1497 
L 2368 4352 
L 2086 4352 
L 77 1497 
L 77 1088 
L 1875 1088 
L 1875 32 
L 2368 32 
L 2368 1088 
L 3021 1088 
z
M 1869 1497 
L 333 1497 
L 1869 3698 
L 1869 1497 
z
" transform="scale(0.015625)"/>
      </defs>
      <use xlink:href="#TeXGyreTermesX-Regular-34" transform="scale(0.996264)"/>
      <use xlink:href="#TeXGyreTermesX-Regular-30" transform="translate(49.8132 0) scale(0.996264)"/>
     </g>
    </g>
   </g>
   <g id="xtick_20">
    <g id="line2d_23">
     <path d="M 33.161664 96.413428 
L 29.852316 97.627539 
" style="fill: none; stroke: #000000; stroke-width: 0.8; stroke-linecap: square"/>
    </g>
    <g id="text_20">
     <!-- $\mathdefault{50}$ -->
     <g transform="translate(7.2 102.97303) scale(0.09 -0.09)">
      <use xlink:href="#TeXGyreTermesX-Regular-35" transform="scale(0.996264)"/>
      <use xlink:href="#TeXGyreTermesX-Regular-30" transform="translate(49.8132 0) scale(0.996264)"/>
     </g>
    </g>
   </g>
  </g>
  <g id="axes_1">
   <g id="line2d_24">
    <path d="M 159.968162 252.10967 
L 68.474522 175.067308 
L 159.968162 42.174073 
L 159.968162 252.10967 
" clip-path="url(#p3f3d8ce239)" style="fill: none; stroke: #000000; stroke-width: 1.5; stroke-linecap: square"/>
    <defs>
     <path id="mf65c194760" d="M 0 1.5 
C 0.397805 1.5 0.77937 1.341951 1.06066 1.06066 
C 1.341951 0.77937 1.5 0.397805 1.5 0 
C 1.5 -0.397805 1.341951 -0.77937 1.06066 -1.06066 
C 0.77937 -1.341951 0.397805 -1.5 0 -1.5 
C -0.397805 -1.5 -0.77937 -1.341951 -1.06066 -1.06066 
C -1.341951 -0.77937 -1.5 -0.397805 -1.5 0 
C -1.5 0.397805 -1.341951 0.77937 -1.06066 1.06066 
C -0.77937 1.341951 -0.397805 1.5 0 1.5 
z
" style="stroke: #000000"/>
    </defs>
    <g clip-path="url(#p3f3d8ce239)">
     <use xlink:href="#mf65c194760" x="159.968162" y="252.10967" style="stroke: #000000"/>
     <use xlink:href="#mf65c194760" x="68.474522" y="175.067308" style="stroke: #000000"/>
     <use xlink:href="#mf65c194760" x="159.968162" y="42.174073" style="stroke: #000000"/>
     <use xlink:href="#mf65c194760" x="159.968162" y="252.10967" style="stroke: #000000"/>
    </g>
   </g>
   <g id="Poly3DCollection_1">
    <path d="M 159.968162 252.10967 
L 159.968162 42.174073 
L 68.474522 175.067308 
z
" clip-path="url(#p3f3d8ce239)" style="fill: #007200; fill-opacity: 0.4"/>
   </g>
  </g>
 </g>
 <defs>
  <clipPath id="p3f3d8ce239">
   <rect x="17.622216" y="7.2" width="277.2" height="277.2"/>
  </clipPath>
 </defs>
</svg>
