<?xml version="1.0" encoding="utf-8" standalone="no"?>
<!DOCTYPE svg PUBLIC "-//W3C//DTD SVG 1.1//EN"
  "http://www.w3.org/Graphics/SVG/1.1/DTD/svg11.dtd">
<svg xmlns:xlink="http://www.w3.org/1999/xlink" width="603.202192pt" height="464.047161pt" viewBox="0 0 603.202192 464.047161" xmlns="http://www.w3.org/2000/svg" version="1.1">
 <metadata>
  <rdf:RDF xmlns:dc="http://purl.org/dc/elements/1.1/" xmlns:cc="http://creativecommons.org/ns#" xmlns:rdf="http://www.w3.org/1999/02/22-rdf-syntax-ns#">
   <cc:Work>
    <dc:type rdf:resource="http://purl.org/dc/dcmitype/StillImage"/>
    <dc:date>2026-07-09T13:58:41.824878</dc:date>
    <dc:format>image/svg+xml</dc:format>
    <dc:creator>
     <cc:Agent>
      <dc:title>Matplotlib v3.8.4, https://matplotlib.org/</dc:title>
     </cc:Agent>
    </dc:creator>
   </cc:Work>
  </rdf:RDF>
 </metadata>
 <defs>
  <style type="text/css">*{stroke-linejoin: round; stroke-linecap: butt}</style>
 </defs>
 <g id="figure_1">
  <g id="patch_1">
   <path d="M 0 464.047161 
L 603.202192 464.047161 
L 603.202192 0 
L 0 0 
L 0 464.047161 
z
" style="fill: none"/>
  </g>
  <g id="patch_2">
   <path d="M 7.2 208.8 
L 208.8 208.8 
L 208.8 7.2 
L 7.2 7.2 
L 7.2 208.8 
z
" style="fill: none"/>
  </g>
  <g id="pane3d_1">
   <g id="patch_3">
    <path d="M 110.724324 110.135886 
L 20.690216 148.549875 
L 17.22756 60.337177 
L 110.724324 26.916878 
" style="fill: none; opacity: 0"/>
   </g>
  </g>
  <g id="pane3d_2">
   <g id="patch_4">
    <path d="M 200.758433 148.549875 
L 110.724324 110.135886 
L 110.724324 26.916878 
L 204.221089 60.337177 
" style="fill: none; opacity: 0"/>
   </g>
  </g>
  <g id="pane3d_3">
   <g id="patch_5">
    <path d="M 200.758433 148.549875 
L 110.724324 110.135886 
L 20.690216 148.549875 
L 110.724324 193.182358 
" style="fill: none; opacity: 0"/>
   </g>
  </g>
  <g id="grid3d_1">
   <g id="Line3DCollection_1">
    <path d="M 104.562873 190.127951 
L 194.629177 145.934765 
L 197.840217 58.056342 
" style="fill: none; stroke: #b0b0b0; stroke-width: 0.8"/>
    <path d="M 77.181991 176.554464 
L 167.334352 134.289143 
L 169.453125 47.909413 
" style="fill: none; stroke: #b0b0b0; stroke-width: 0.8"/>
    <path d="M 51.026528 163.588453 
L 141.17384 123.127489 
L 142.288942 38.19961 
" style="fill: none; stroke: #b0b0b0; stroke-width: 0.8"/>
    <path d="M 26.016018 151.190028 
L 116.078371 112.420246 
L 116.270309 28.899283 
" style="fill: none; stroke: #b0b0b0; stroke-width: 0.8"/>
   </g>
  </g>
  <g id="grid3d_2">
   <g id="Line3DCollection_2">
    <path d="M 105.17834 28.899283 
L 105.370278 112.420246 
L 195.432631 151.190028 
" style="fill: none; stroke: #b0b0b0; stroke-width: 0.8"/>
    <path d="M 79.159707 38.19961 
L 80.274809 123.127489 
L 170.422121 163.588453 
" style="fill: none; stroke: #b0b0b0; stroke-width: 0.8"/>
    <path d="M 51.995523 47.909413 
L 54.114297 134.289143 
L 144.266657 176.554464 
" style="fill: none; stroke: #b0b0b0; stroke-width: 0.8"/>
    <path d="M 23.608432 58.056342 
L 26.819472 145.934765 
L 116.885775 190.127951 
" style="fill: none; stroke: #b0b0b0; stroke-width: 0.8"/>
   </g>
  </g>
  <g id="grid3d_3">
   <g id="Line3DCollection_3">
    <path d="M 200.825171 146.849701 
L 110.724324 108.527744 
L 20.623478 146.849701 
" style="fill: none; stroke: #b0b0b0; stroke-width: 0.8"/>
    <path d="M 201.395046 132.331879 
L 110.724324 94.802546 
L 20.053603 132.331879 
" style="fill: none; stroke: #b0b0b0; stroke-width: 0.8"/>
    <path d="M 201.972176 117.629242 
L 110.724324 80.914948 
L 19.476473 117.629242 
" style="fill: none; stroke: #b0b0b0; stroke-width: 0.8"/>
    <path d="M 202.556699 102.738237 
L 110.724324 66.862049 
L 18.891949 102.738237 
" style="fill: none; stroke: #b0b0b0; stroke-width: 0.8"/>
    <path d="M 203.14876 87.655222 
L 110.724324 52.640881 
L 18.299888 87.655222 
" style="fill: none; stroke: #b0b0b0; stroke-width: 0.8"/>
    <path d="M 203.748505 72.376459 
L 110.724324 38.248404 
L 17.700143 72.376459 
" style="fill: none; stroke: #b0b0b0; stroke-width: 0.8"/>
   </g>
  </g>
  <g id="axis3d_1">
   <g id="line2d_1">
    <path d="M 20.690216 148.549875 
L 110.724324 193.182358 
" style="fill: none; stroke: #000000; stroke-width: 0.8; stroke-linecap: square"/>
   </g>
   <g id="xtick_1">
    <g id="line2d_2">
     <path d="M 105.340924 189.746182 
L 103.003761 190.892966 
" style="fill: none; stroke: #000000; stroke-width: 0.8; stroke-linecap: square"/>
    </g>
    <g id="text_1">
     <!-- 0 -->
     <g transform="translate(90.702154 212.847473) scale(0.1 -0.1)">
      <defs>
       <path id="DejaVuSerif-30" d="M 2034 219 
Q 2513 219 2750 744 
Q 2988 1269 2988 2328 
Q 2988 3391 2750 3916 
Q 2513 4441 2034 4441 
Q 1556 4441 1318 3916 
Q 1081 3391 1081 2328 
Q 1081 1269 1318 744 
Q 1556 219 2034 219 
z
M 2034 -91 
Q 1275 -91 848 546 
Q 422 1184 422 2328 
Q 422 3475 848 4112 
Q 1275 4750 2034 4750 
Q 2797 4750 3222 4112 
Q 3647 3475 3647 2328 
Q 3647 1184 3222 546 
Q 2797 -91 2034 -91 
z
" transform="scale(0.015625)"/>
      </defs>
      <use xlink:href="#DejaVuSerif-30"/>
     </g>
    </g>
   </g>
   <g id="xtick_2">
    <g id="line2d_3">
     <path d="M 77.959468 176.189967 
L 75.624098 177.284838 
" style="fill: none; stroke: #000000; stroke-width: 0.8; stroke-linecap: square"/>
    </g>
    <g id="text_2">
     <!-- 1 -->
     <g transform="translate(63.447013 198.866983) scale(0.1 -0.1)">
      <defs>
       <path id="DejaVuSerif-31" d="M 909 0 
L 909 331 
L 1722 331 
L 1722 4213 
L 781 3603 
L 781 4013 
L 1919 4750 
L 2350 4750 
L 2350 331 
L 3163 331 
L 3163 0 
L 909 0 
z
" transform="scale(0.015625)"/>
      </defs>
      <use xlink:href="#DejaVuSerif-31"/>
     </g>
    </g>
   </g>
   <g id="xtick_3">
    <g id="line2d_4">
     <path d="M 51.802703 163.240081 
L 49.471308 164.286485 
" style="fill: none; stroke: #000000; stroke-width: 0.8; stroke-linecap: square"/>
    </g>
    <g id="text_3">
     <!-- 2 -->
     <g transform="translate(37.416878 185.514859) scale(0.1 -0.1)">
      <defs>
       <path id="DejaVuSerif-32" d="M 819 3553 
L 469 3553 
L 469 4384 
Q 803 4563 1142 4656 
Q 1481 4750 1806 4750 
Q 2534 4750 2956 4397 
Q 3378 4044 3378 3438 
Q 3378 2753 2422 1800 
Q 2347 1728 2309 1691 
L 1131 513 
L 3078 513 
L 3078 1088 
L 3444 1088 
L 3444 0 
L 434 0 
L 434 341 
L 1850 1753 
Q 2319 2222 2519 2614 
Q 2719 3006 2719 3438 
Q 2719 3909 2473 4175 
Q 2228 4441 1797 4441 
Q 1350 4441 1106 4219 
Q 863 3997 819 3553 
z
" transform="scale(0.015625)"/>
      </defs>
      <use xlink:href="#DejaVuSerif-32"/>
     </g>
    </g>
   </g>
   <g id="xtick_4">
    <g id="line2d_5">
     <path d="M 26.79026 150.856735 
L 24.464735 151.85782 
" style="fill: none; stroke: #000000; stroke-width: 0.8; stroke-linecap: square"/>
    </g>
    <g id="text_4">
     <!-- 3 -->
     <g transform="translate(12.530977 172.749667) scale(0.1 -0.1)">
      <defs>
       <path id="DejaVuSerif-33" d="M 622 4469 
Q 988 4606 1323 4678 
Q 1659 4750 1953 4750 
Q 2638 4750 3022 4454 
Q 3406 4159 3406 3634 
Q 3406 3213 3140 2930 
Q 2875 2647 2388 2547 
Q 2963 2466 3280 2130 
Q 3597 1794 3597 1259 
Q 3597 606 3158 257 
Q 2719 -91 1894 -91 
Q 1528 -91 1179 -12 
Q 831 66 488 225 
L 488 1131 
L 838 1131 
Q 869 681 1141 450 
Q 1413 219 1906 219 
Q 2384 219 2661 495 
Q 2938 772 2938 1253 
Q 2938 1803 2653 2086 
Q 2369 2369 1819 2369 
L 1522 2369 
L 1522 2688 
L 1678 2688 
Q 2225 2688 2498 2914 
Q 2772 3141 2772 3597 
Q 2772 4006 2547 4223 
Q 2322 4441 1900 4441 
Q 1478 4441 1245 4241 
Q 1013 4041 972 3647 
L 622 3647 
L 622 4469 
z
" transform="scale(0.015625)"/>
      </defs>
      <use xlink:href="#DejaVuSerif-33"/>
     </g>
    </g>
   </g>
  </g>
  <g id="axis3d_2">
   <g id="line2d_6">
    <path d="M 200.758433 148.549875 
L 110.724324 193.182358 
" style="fill: none; stroke: #000000; stroke-width: 0.8; stroke-linecap: square"/>
   </g>
   <g id="xtick_5">
    <g id="line2d_7">
     <path d="M 194.658389 150.856735 
L 196.983914 151.85782 
" style="fill: none; stroke: #000000; stroke-width: 0.8; stroke-linecap: square"/>
    </g>
    <g id="text_5">
     <!-- 0 -->
     <g transform="translate(202.555172 172.749667) scale(0.1 -0.1)">
      <use xlink:href="#DejaVuSerif-30"/>
     </g>
    </g>
   </g>
   <g id="xtick_6">
    <g id="line2d_8">
     <path d="M 169.645946 163.240081 
L 171.977341 164.286485 
" style="fill: none; stroke: #000000; stroke-width: 0.8; stroke-linecap: square"/>
    </g>
    <g id="text_6">
     <!-- 1 -->
     <g transform="translate(177.669271 185.514859) scale(0.1 -0.1)">
      <use xlink:href="#DejaVuSerif-31"/>
     </g>
    </g>
   </g>
   <g id="xtick_7">
    <g id="line2d_9">
     <path d="M 143.48918 176.189967 
L 145.824551 177.284838 
" style="fill: none; stroke: #000000; stroke-width: 0.8; stroke-linecap: square"/>
    </g>
    <g id="text_7">
     <!-- 2 -->
     <g transform="translate(151.639136 198.866983) scale(0.1 -0.1)">
      <use xlink:href="#DejaVuSerif-32"/>
     </g>
    </g>
   </g>
   <g id="xtick_8">
    <g id="line2d_10">
     <path d="M 116.107725 189.746182 
L 118.444887 190.892966 
" style="fill: none; stroke: #000000; stroke-width: 0.8; stroke-linecap: square"/>
    </g>
    <g id="text_8">
     <!-- 3 -->
     <g transform="translate(124.383994 212.847473) scale(0.1 -0.1)">
      <use xlink:href="#DejaVuSerif-33"/>
     </g>
    </g>
   </g>
  </g>
  <g id="axis3d_3">
   <g id="line2d_11">
    <path d="M 200.758433 148.549875 
L 204.221089 60.337177 
" style="fill: none; stroke: #000000; stroke-width: 0.8; stroke-linecap: square"/>
   </g>
   <g id="xtick_9">
    <g id="line2d_12">
     <path d="M 200.050814 146.52035 
L 202.376672 147.50959 
" style="fill: none; stroke: #000000; stroke-width: 0.8; stroke-linecap: square"/>
    </g>
    <g id="text_9">
     <!-- 0 -->
     <g transform="translate(217.380296 154.448139) scale(0.1 -0.1)">
      <use xlink:href="#DejaVuSerif-30"/>
     </g>
    </g>
   </g>
   <g id="xtick_10">
    <g id="line2d_13">
     <path d="M 200.615451 132.009199 
L 202.95706 132.978409 
" style="fill: none; stroke: #000000; stroke-width: 0.8; stroke-linecap: square"/>
    </g>
    <g id="text_10">
     <!-- 10 -->
     <g transform="translate(214.893751 139.930317) scale(0.1 -0.1)">
      <use xlink:href="#DejaVuSerif-31"/>
      <use xlink:href="#DejaVuSerif-30" x="63.623047"/>
     </g>
    </g>
   </g>
   <g id="xtick_11">
    <g id="line2d_14">
     <path d="M 201.187272 117.313429 
L 203.544846 118.262018 
" style="fill: none; stroke: #000000; stroke-width: 0.8; stroke-linecap: square"/>
    </g>
    <g id="text_11">
     <!-- 20 -->
     <g transform="translate(215.5973 125.227679) scale(0.1 -0.1)">
      <use xlink:href="#DejaVuSerif-32"/>
      <use xlink:href="#DejaVuSerif-30" x="63.623047"/>
     </g>
    </g>
   </g>
   <g id="xtick_12">
    <g id="line2d_15">
     <path d="M 201.766414 102.429496 
L 204.140172 103.356853 
" style="fill: none; stroke: #000000; stroke-width: 0.8; stroke-linecap: square"/>
    </g>
    <g id="text_12">
     <!-- 30 -->
     <g transform="translate(216.309863 110.336674) scale(0.1 -0.1)">
      <use xlink:href="#DejaVuSerif-33"/>
      <use xlink:href="#DejaVuSerif-30" x="63.623047"/>
     </g>
    </g>
   </g>
   <g id="xtick_13">
    <g id="line2d_16">
     <path d="M 202.353019 87.353761 
L 204.743184 88.259258 
" style="fill: none; stroke: #000000; stroke-width: 0.8; stroke-linecap: square"/>
    </g>
    <g id="text_13">
     <!-- 40 -->
     <g transform="translate(217.031613 95.253659) scale(0.1 -0.1)">
      <defs>
       <path id="DejaVuSerif-34" d="M 2234 1581 
L 2234 4063 
L 641 1581 
L 2234 1581 
z
M 3609 0 
L 1484 0 
L 1484 331 
L 2234 331 
L 2234 1247 
L 197 1247 
L 197 1588 
L 2241 4750 
L 2859 4750 
L 2859 1581 
L 3750 1581 
L 3750 1247 
L 2859 1247 
L 2859 331 
L 3609 331 
L 3609 0 
z
" transform="scale(0.015625)"/>
      </defs>
      <use xlink:href="#DejaVuSerif-34"/>
      <use xlink:href="#DejaVuSerif-30" x="63.623047"/>
     </g>
    </g>
   </g>
   <g id="xtick_14">
    <g id="line2d_17">
     <path d="M 202.947232 72.082493 
L 205.354031 72.965483 
" style="fill: none; stroke: #000000; stroke-width: 0.8; stroke-linecap: square"/>
    </g>
    <g id="text_14">
     <!-- 50 -->
     <g transform="translate(217.762731 79.974896) scale(0.1 -0.1)">
      <defs>
       <path id="DejaVuSerif-35" d="M 3219 4666 
L 3219 4153 
L 1081 4153 
L 1081 2816 
Q 1244 2928 1461 2984 
Q 1678 3041 1947 3041 
Q 2703 3041 3140 2622 
Q 3578 2203 3578 1478 
Q 3578 738 3136 323 
Q 2694 -91 1894 -91 
Q 1572 -91 1234 -12 
Q 897 66 544 225 
L 544 1131 
L 897 1131 
Q 925 688 1179 453 
Q 1434 219 1894 219 
Q 2388 219 2653 544 
Q 2919 869 2919 1478 
Q 2919 2084 2655 2407 
Q 2391 2731 1894 2731 
Q 1613 2731 1398 2631 
Q 1184 2531 1019 2322 
L 750 2322 
L 750 4666 
L 3219 4666 
z
" transform="scale(0.015625)"/>
      </defs>
      <use xlink:href="#DejaVuSerif-35"/>
      <use xlink:href="#DejaVuSerif-30" x="63.623047"/>
     </g>
    </g>
   </g>
  </g>
  <g id="axes_1">
   <g id="line2d_18">
    <path d="M 189.35779 146.849701 
L 98.164067 166.345327 
L 29.189863 62.167875 
L 189.35779 146.849701 
" clip-path="url(#pd006b9129f)" style="fill: none; stroke: #000000; stroke-width: 1.5; stroke-linecap: square"/>
   </g>
   <g id="Poly3DCollection_1">
    <path d="M 189.35779 146.849701 
L 29.189863 62.167875 
L 98.164067 166.345327 
z
" clip-path="url(#pd006b9129f)" style="fill: #007200; fill-opacity: 0.4"/>
   </g>
   <g id="text_15">
    <!-- (a) CE-L -->
    <g transform="translate(82.738125 26.6016) scale(0.12 -0.12)">
     <defs>
      <path id="DejaVuSerif-28" d="M 2041 -997 
Q 1281 -656 893 83 
Q 506 822 506 1931 
Q 506 3044 893 3783 
Q 1281 4522 2041 4863 
L 2041 4556 
Q 1559 4225 1350 3623 
Q 1141 3022 1141 1931 
Q 1141 844 1350 242 
Q 1559 -359 2041 -691 
L 2041 -997 
z
" transform="scale(0.015625)"/>
      <path id="DejaVuSerif-61" d="M 2547 1044 
L 2547 1747 
L 1806 1747 
Q 1378 1747 1168 1562 
Q 959 1378 959 997 
Q 959 650 1171 447 
Q 1384 244 1747 244 
Q 2106 244 2326 466 
Q 2547 688 2547 1044 
z
M 3122 2075 
L 3122 331 
L 3634 331 
L 3634 0 
L 2547 0 
L 2547 359 
Q 2356 128 2106 18 
Q 1856 -91 1522 -91 
Q 969 -91 644 203 
Q 319 497 319 997 
Q 319 1513 691 1797 
Q 1063 2081 1741 2081 
L 2547 2081 
L 2547 2309 
Q 2547 2688 2317 2895 
Q 2088 3103 1672 3103 
Q 1328 3103 1125 2947 
Q 922 2791 872 2484 
L 575 2484 
L 575 3156 
Q 875 3284 1158 3348 
Q 1441 3413 1709 3413 
Q 2400 3413 2761 3070 
Q 3122 2728 3122 2075 
z
" transform="scale(0.015625)"/>
      <path id="DejaVuSerif-29" d="M 453 -997 
L 453 -691 
Q 934 -359 1145 242 
Q 1356 844 1356 1931 
Q 1356 3022 1145 3623 
Q 934 4225 453 4556 
L 453 4863 
Q 1216 4522 1603 3783 
Q 1991 3044 1991 1931 
Q 1991 822 1603 83 
Q 1216 -656 453 -997 
z
" transform="scale(0.015625)"/>
      <path id="DejaVuSerif-20" transform="scale(0.015625)"/>
      <path id="DejaVuSerif-43" d="M 4513 1234 
Q 4306 581 3820 245 
Q 3334 -91 2591 -91 
Q 2134 -91 1743 65 
Q 1353 222 1050 525 
Q 700 875 529 1320 
Q 359 1766 359 2328 
Q 359 3416 987 4083 
Q 1616 4750 2644 4750 
Q 3025 4750 3456 4650 
Q 3888 4550 4384 4347 
L 4384 3272 
L 4031 3272 
Q 3916 3859 3567 4137 
Q 3219 4416 2591 4416 
Q 1844 4416 1459 3886 
Q 1075 3356 1075 2328 
Q 1075 1303 1459 773 
Q 1844 244 2591 244 
Q 3113 244 3450 492 
Q 3788 741 3938 1234 
L 4513 1234 
z
" transform="scale(0.015625)"/>
      <path id="DejaVuSerif-45" d="M 353 0 
L 353 331 
L 947 331 
L 947 4331 
L 353 4331 
L 353 4666 
L 4109 4666 
L 4109 3628 
L 3725 3628 
L 3725 4281 
L 1581 4281 
L 1581 2719 
L 3109 2719 
L 3109 3303 
L 3494 3303 
L 3494 1753 
L 3109 1753 
L 3109 2338 
L 1581 2338 
L 1581 384 
L 3775 384 
L 3775 1038 
L 4159 1038 
L 4159 0 
L 353 0 
z
" transform="scale(0.015625)"/>
      <path id="DejaVuSerif-2d" d="M 281 1959 
L 1881 1959 
L 1881 1472 
L 281 1472 
L 281 1959 
z
" transform="scale(0.015625)"/>
      <path id="DejaVuSerif-4c" d="M 353 0 
L 353 331 
L 947 331 
L 947 4331 
L 353 4331 
L 353 4666 
L 2175 4666 
L 2175 4331 
L 1581 4331 
L 1581 384 
L 3713 384 
L 3713 1166 
L 4097 1166 
L 4097 0 
L 353 0 
z
" transform="scale(0.015625)"/>
     </defs>
     <use xlink:href="#DejaVuSerif-28"/>
     <use xlink:href="#DejaVuSerif-61" x="39.013672"/>
     <use xlink:href="#DejaVuSerif-29" x="98.632812"/>
     <use xlink:href="#DejaVuSerif-20" x="137.646484"/>
     <use xlink:href="#DejaVuSerif-43" x="169.433594"/>
     <use xlink:href="#DejaVuSerif-45" x="245.947266"/>
     <use xlink:href="#DejaVuSerif-2d" x="320.820312"/>
     <use xlink:href="#DejaVuSerif-4c" x="354.609375"/>
    </g>
   </g>
  </g>
  <g id="patch_6">
   <path d="M 372.436364 208.8 
L 574.036364 208.8 
L 574.036364 7.2 
L 372.436364 7.2 
L 372.436364 208.8 
z
" style="fill: none"/>
  </g>
  <g id="pane3d_4">
   <g id="patch_7">
    <path d="M 475.960688 110.135886 
L 385.926579 148.549875 
L 382.463923 60.337177 
L 475.960688 26.916878 
" style="fill: none; opacity: 0"/>
   </g>
  </g>
  <g id="pane3d_5">
   <g id="patch_8">
    <path d="M 565.994796 148.549875 
L 475.960688 110.135886 
L 475.960688 26.916878 
L 569.457453 60.337177 
" style="fill: none; opacity: 0"/>
   </g>
  </g>
  <g id="pane3d_6">
   <g id="patch_9">
    <path d="M 565.994796 148.549875 
L 475.960688 110.135886 
L 385.926579 148.549875 
L 475.960688 193.182358 
" style="fill: none; opacity: 0"/>
   </g>
  </g>
  <g id="grid3d_4">
   <g id="Line3DCollection_4">
    <path d="M 469.799237 190.127951 
L 559.865541 145.934765 
L 563.07658 58.056342 
" style="fill: none; stroke: #b0b0b0; stroke-width: 0.8"/>
    <path d="M 442.418355 176.554464 
L 532.570715 134.289143 
L 534.689489 47.909413 
" style="fill: none; stroke: #b0b0b0; stroke-width: 0.8"/>
    <path d="M 416.262891 163.588453 
L 506.410203 123.127489 
L 507.525306 38.19961 
" style="fill: none; stroke: #b0b0b0; stroke-width: 0.8"/>
    <path d="M 391.252382 151.190028 
L 481.314734 112.420246 
L 481.506672 28.899283 
" style="fill: none; stroke: #b0b0b0; stroke-width: 0.8"/>
   </g>
  </g>
  <g id="grid3d_5">
   <g id="Line3DCollection_5">
    <path d="M 470.414703 28.899283 
L 470.606642 112.420246 
L 560.668994 151.190028 
" style="fill: none; stroke: #b0b0b0; stroke-width: 0.8"/>
    <path d="M 444.39607 38.19961 
L 445.511173 123.127489 
L 535.658485 163.588453 
" style="fill: none; stroke: #b0b0b0; stroke-width: 0.8"/>
    <path d="M 417.231887 47.909413 
L 419.350661 134.289143 
L 509.503021 176.554464 
" style="fill: none; stroke: #b0b0b0; stroke-width: 0.8"/>
    <path d="M 388.844796 58.056342 
L 392.055835 145.934765 
L 482.122139 190.127951 
" style="fill: none; stroke: #b0b0b0; stroke-width: 0.8"/>
   </g>
  </g>
  <g id="grid3d_6">
   <g id="Line3DCollection_6">
    <path d="M 566.061534 146.849701 
L 475.960688 108.527744 
L 385.859842 146.849701 
" style="fill: none; stroke: #b0b0b0; stroke-width: 0.8"/>
    <path d="M 566.67467 131.229796 
L 475.960688 93.761127 
L 385.246706 131.229796 
" style="fill: none; stroke: #b0b0b0; stroke-width: 0.8"/>
    <path d="M 567.296208 115.395847 
L 475.960688 78.806445 
L 384.625168 115.395847 
" style="fill: none; stroke: #b0b0b0; stroke-width: 0.8"/>
    <path d="M 567.926321 99.343425 
L 475.960688 63.660083 
L 383.995055 99.343425 
" style="fill: none; stroke: #b0b0b0; stroke-width: 0.8"/>
    <path d="M 568.565189 83.067976 
L 475.960688 48.318331 
L 383.356186 83.067976 
" style="fill: none; stroke: #b0b0b0; stroke-width: 0.8"/>
    <path d="M 569.212996 66.564821 
L 475.960688 32.777384 
L 382.70838 66.564821 
" style="fill: none; stroke: #b0b0b0; stroke-width: 0.8"/>
   </g>
  </g>
  <g id="axis3d_4">
   <g id="line2d_19">
    <path d="M 385.926579 148.549875 
L 475.960688 193.182358 
" style="fill: none; stroke: #000000; stroke-width: 0.8; stroke-linecap: square"/>
   </g>
   <g id="xtick_15">
    <g id="line2d_20">
     <path d="M 470.577287 189.746182 
L 468.240125 190.892966 
" style="fill: none; stroke: #000000; stroke-width: 0.8; stroke-linecap: square"/>
    </g>
    <g id="text_16">
     <!-- 0 -->
     <g transform="translate(455.938518 212.847473) scale(0.1 -0.1)">
      <use xlink:href="#DejaVuSerif-30"/>
     </g>
    </g>
   </g>
   <g id="xtick_16">
    <g id="line2d_21">
     <path d="M 443.195832 176.189967 
L 440.860461 177.284838 
" style="fill: none; stroke: #000000; stroke-width: 0.8; stroke-linecap: square"/>
    </g>
    <g id="text_17">
     <!-- 1 -->
     <g transform="translate(428.683376 198.866983) scale(0.1 -0.1)">
      <use xlink:href="#DejaVuSerif-31"/>
     </g>
    </g>
   </g>
   <g id="xtick_17">
    <g id="line2d_22">
     <path d="M 417.039067 163.240081 
L 414.707672 164.286485 
" style="fill: none; stroke: #000000; stroke-width: 0.8; stroke-linecap: square"/>
    </g>
    <g id="text_18">
     <!-- 2 -->
     <g transform="translate(402.653242 185.514859) scale(0.1 -0.1)">
      <use xlink:href="#DejaVuSerif-32"/>
     </g>
    </g>
   </g>
   <g id="xtick_18">
    <g id="line2d_23">
     <path d="M 392.026624 150.856735 
L 389.701099 151.85782 
" style="fill: none; stroke: #000000; stroke-width: 0.8; stroke-linecap: square"/>
    </g>
    <g id="text_19">
     <!-- 3 -->
     <g transform="translate(377.76734 172.749667) scale(0.1 -0.1)">
      <use xlink:href="#DejaVuSerif-33"/>
     </g>
    </g>
   </g>
  </g>
  <g id="axis3d_5">
   <g id="line2d_24">
    <path d="M 565.994796 148.549875 
L 475.960688 193.182358 
" style="fill: none; stroke: #000000; stroke-width: 0.8; stroke-linecap: square"/>
   </g>
   <g id="xtick_19">
    <g id="line2d_25">
     <path d="M 559.894752 150.856735 
L 562.220277 151.85782 
" style="fill: none; stroke: #000000; stroke-width: 0.8; stroke-linecap: square"/>
    </g>
    <g id="text_20">
     <!-- 0 -->
     <g transform="translate(567.791536 172.749667) scale(0.1 -0.1)">
      <use xlink:href="#DejaVuSerif-30"/>
     </g>
    </g>
   </g>
   <g id="xtick_20">
    <g id="line2d_26">
     <path d="M 534.882309 163.240081 
L 537.213704 164.286485 
" style="fill: none; stroke: #000000; stroke-width: 0.8; stroke-linecap: square"/>
    </g>
    <g id="text_21">
     <!-- 1 -->
     <g transform="translate(542.905634 185.514859) scale(0.1 -0.1)">
      <use xlink:href="#DejaVuSerif-31"/>
     </g>
    </g>
   </g>
   <g id="xtick_21">
    <g id="line2d_27">
     <path d="M 508.725544 176.189967 
L 511.060914 177.284838 
" style="fill: none; stroke: #000000; stroke-width: 0.8; stroke-linecap: square"/>
    </g>
    <g id="text_22">
     <!-- 2 -->
     <g transform="translate(516.875499 198.866983) scale(0.1 -0.1)">
      <use xlink:href="#DejaVuSerif-32"/>
     </g>
    </g>
   </g>
   <g id="xtick_22">
    <g id="line2d_28">
     <path d="M 481.344089 189.746182 
L 483.681251 190.892966 
" style="fill: none; stroke: #000000; stroke-width: 0.8; stroke-linecap: square"/>
    </g>
    <g id="text_23">
     <!-- 3 -->
     <g transform="translate(489.620358 212.847473) scale(0.1 -0.1)">
      <use xlink:href="#DejaVuSerif-33"/>
     </g>
    </g>
   </g>
  </g>
  <g id="axis3d_6">
   <g id="line2d_29">
    <path d="M 565.994796 148.549875 
L 569.457453 60.337177 
" style="fill: none; stroke: #000000; stroke-width: 0.8; stroke-linecap: square"/>
   </g>
   <g id="xtick_23">
    <g id="line2d_30">
     <path d="M 565.287178 146.52035 
L 567.613036 147.50959 
" style="fill: none; stroke: #000000; stroke-width: 0.8; stroke-linecap: square"/>
    </g>
    <g id="text_24">
     <!-- 0 -->
     <g transform="translate(582.61666 154.448139) scale(0.1 -0.1)">
      <use xlink:href="#DejaVuSerif-30"/>
     </g>
    </g>
   </g>
   <g id="xtick_24">
    <g id="line2d_31">
     <path d="M 565.894678 130.907626 
L 568.237483 131.875303 
" style="fill: none; stroke: #000000; stroke-width: 0.8; stroke-linecap: square"/>
    </g>
    <g id="text_25">
     <!-- 10 -->
     <g transform="translate(580.182852 138.828233) scale(0.1 -0.1)">
      <use xlink:href="#DejaVuSerif-31"/>
      <use xlink:href="#DejaVuSerif-30" x="63.623047"/>
     </g>
    </g>
   </g>
   <g id="xtick_25">
    <g id="line2d_32">
     <path d="M 566.510497 115.081088 
L 568.870498 116.026514 
" style="fill: none; stroke: #000000; stroke-width: 0.8; stroke-linecap: square"/>
    </g>
    <g id="text_26">
     <!-- 20 -->
     <g transform="translate(580.940536 122.994285) scale(0.1 -0.1)">
      <use xlink:href="#DejaVuSerif-32"/>
      <use xlink:href="#DejaVuSerif-30" x="63.623047"/>
     </g>
    </g>
   </g>
   <g id="xtick_26">
    <g id="line2d_33">
     <path d="M 567.134808 99.036312 
L 569.512258 99.95878 
" style="fill: none; stroke: #000000; stroke-width: 0.8; stroke-linecap: square"/>
    </g>
    <g id="text_27">
     <!-- 30 -->
     <g transform="translate(581.708674 106.941862) scale(0.1 -0.1)">
      <use xlink:href="#DejaVuSerif-33"/>
      <use xlink:href="#DejaVuSerif-30" x="63.623047"/>
     </g>
    </g>
   </g>
   <g id="xtick_27">
    <g id="line2d_34">
     <path d="M 567.767787 82.768753 
L 570.162945 83.667531 
" style="fill: none; stroke: #000000; stroke-width: 0.8; stroke-linecap: square"/>
    </g>
    <g id="text_28">
     <!-- 40 -->
     <g transform="translate(582.487485 90.666414) scale(0.1 -0.1)">
      <use xlink:href="#DejaVuSerif-34"/>
      <use xlink:href="#DejaVuSerif-30" x="63.623047"/>
     </g>
    </g>
   </g>
   <g id="xtick_28">
    <g id="line2d_35">
     <path d="M 568.409618 66.273739 
L 570.822747 67.148071 
" style="fill: none; stroke: #000000; stroke-width: 0.8; stroke-linecap: square"/>
    </g>
    <g id="text_29">
     <!-- 50 -->
     <g transform="translate(583.277192 74.163259) scale(0.1 -0.1)">
      <use xlink:href="#DejaVuSerif-35"/>
      <use xlink:href="#DejaVuSerif-30" x="63.623047"/>
     </g>
    </g>
   </g>
  </g>
  <g id="axes_2">
   <g id="line2d_36">
    <path d="M 463.396169 165.57304 
L 460.075252 159.652162 
L 456.592986 153.656058 
L 452.554969 146.923799 
L 448.096579 139.709688 
L 443.040381 131.749987 
L 437.529775 123.292883 
L 431.551841 114.331835 
L 425.09493 104.864183 
L 418.146359 94.887243 
L 410.69341 84.399976 
L 402.726675 73.407009 
L 394.426227 62.167875 
" clip-path="url(#pbc46b690a5)" style="fill: none; stroke: #000000; stroke-width: 1.5; stroke-linecap: square"/>
   </g>
   <g id="line2d_37">
    <path d="M 554.594154 146.849701 
L 463.396169 165.57304 
" clip-path="url(#pbc46b690a5)" style="fill: none; stroke: #000000; stroke-width: 1.5; stroke-linecap: square"/>
   </g>
   <g id="line2d_38">
    <path d="M 554.594154 146.849701 
L 394.426227 62.167875 
" clip-path="url(#pbc46b690a5)" style="fill: none; stroke: #000000; stroke-width: 1.5; stroke-linecap: square"/>
   </g>
   <g id="line2d_39">
    <path d="M 554.594154 146.849701 
L 460.075252 159.652162 
" clip-path="url(#pbc46b690a5)" style="fill: none; stroke: #0000ff; stroke-opacity: 0.8; stroke-width: 0.7; stroke-linecap: square"/>
   </g>
   <g id="line2d_40">
    <path d="M 554.594154 146.849701 
L 456.592986 153.656058 
" clip-path="url(#pbc46b690a5)" style="fill: none; stroke: #0000ff; stroke-opacity: 0.8; stroke-width: 0.7; stroke-linecap: square"/>
   </g>
   <g id="line2d_41">
    <path d="M 554.594154 146.849701 
L 452.554969 146.923799 
" clip-path="url(#pbc46b690a5)" style="fill: none; stroke: #0000ff; stroke-opacity: 0.8; stroke-width: 0.7; stroke-linecap: square"/>
   </g>
   <g id="line2d_42">
    <path d="M 554.594154 146.849701 
L 448.096579 139.709688 
" clip-path="url(#pbc46b690a5)" style="fill: none; stroke: #0000ff; stroke-opacity: 0.8; stroke-width: 0.7; stroke-linecap: square"/>
   </g>
   <g id="line2d_43">
    <path d="M 554.594154 146.849701 
L 443.040381 131.749987 
" clip-path="url(#pbc46b690a5)" style="fill: none; stroke: #0000ff; stroke-opacity: 0.8; stroke-width: 0.7; stroke-linecap: square"/>
   </g>
   <g id="line2d_44">
    <path d="M 554.594154 146.849701 
L 437.529775 123.292883 
" clip-path="url(#pbc46b690a5)" style="fill: none; stroke: #0000ff; stroke-opacity: 0.8; stroke-width: 0.7; stroke-linecap: square"/>
   </g>
   <g id="line2d_45">
    <path d="M 554.594154 146.849701 
L 431.551841 114.331835 
" clip-path="url(#pbc46b690a5)" style="fill: none; stroke: #0000ff; stroke-opacity: 0.8; stroke-width: 0.7; stroke-linecap: square"/>
   </g>
   <g id="line2d_46">
    <path d="M 554.594154 146.849701 
L 425.09493 104.864183 
" clip-path="url(#pbc46b690a5)" style="fill: none; stroke: #0000ff; stroke-opacity: 0.8; stroke-width: 0.7; stroke-linecap: square"/>
   </g>
   <g id="line2d_47">
    <path d="M 554.594154 146.849701 
L 418.146359 94.887243 
" clip-path="url(#pbc46b690a5)" style="fill: none; stroke: #0000ff; stroke-opacity: 0.8; stroke-width: 0.7; stroke-linecap: square"/>
   </g>
   <g id="line2d_48">
    <path d="M 554.594154 146.849701 
L 410.69341 84.399976 
" clip-path="url(#pbc46b690a5)" style="fill: none; stroke: #0000ff; stroke-opacity: 0.8; stroke-width: 0.7; stroke-linecap: square"/>
   </g>
   <g id="line2d_49">
    <path d="M 554.594154 146.849701 
L 402.726675 73.407009 
" clip-path="url(#pbc46b690a5)" style="fill: none; stroke: #0000ff; stroke-opacity: 0.8; stroke-width: 0.7; stroke-linecap: square"/>
   </g>
   <g id="Poly3DCollection_2">
    <path d="M 554.594154 146.849701 
L 402.726675 73.407009 
L 394.426227 62.167875 
z
" clip-path="url(#pbc46b690a5)" style="fill: #00005f; fill-opacity: 0.25"/>
    <path d="M 554.594154 146.849701 
L 410.69341 84.399976 
L 402.726675 73.407009 
z
" clip-path="url(#pbc46b690a5)" style="fill: #000061; fill-opacity: 0.25"/>
    <path d="M 554.594154 146.849701 
L 418.146359 94.887243 
L 410.69341 84.399976 
z
" clip-path="url(#pbc46b690a5)" style="fill: #000062; fill-opacity: 0.25"/>
    <path d="M 554.594154 146.849701 
L 425.09493 104.864183 
L 418.146359 94.887243 
z
" clip-path="url(#pbc46b690a5)" style="fill: #000063; fill-opacity: 0.25"/>
    <path d="M 554.594154 146.849701 
L 431.551841 114.331835 
L 425.09493 104.864183 
z
" clip-path="url(#pbc46b690a5)" style="fill: #000065; fill-opacity: 0.25"/>
    <path d="M 554.594154 146.849701 
L 437.529775 123.292883 
L 431.551841 114.331835 
z
" clip-path="url(#pbc46b690a5)" style="fill: #000066; fill-opacity: 0.25"/>
    <path d="M 554.594154 146.849701 
L 443.040381 131.749987 
L 437.529775 123.292883 
z
" clip-path="url(#pbc46b690a5)" style="fill: #000067; fill-opacity: 0.25"/>
    <path d="M 554.594154 146.849701 
L 448.096579 139.709688 
L 443.040381 131.749987 
z
" clip-path="url(#pbc46b690a5)" style="fill: #000068; fill-opacity: 0.25"/>
    <path d="M 554.594154 146.849701 
L 452.554969 146.923799 
L 448.096579 139.709688 
z
" clip-path="url(#pbc46b690a5)" style="fill: #000068; fill-opacity: 0.25"/>
    <path d="M 554.594154 146.849701 
L 456.592986 153.656058 
L 452.554969 146.923799 
z
" clip-path="url(#pbc46b690a5)" style="fill: #000069; fill-opacity: 0.25"/>
    <path d="M 554.594154 146.849701 
L 460.075252 159.652162 
L 456.592986 153.656058 
z
" clip-path="url(#pbc46b690a5)" style="fill: #00006a; fill-opacity: 0.25"/>
    <path d="M 554.594154 146.849701 
L 463.396169 165.57304 
L 460.075252 159.652162 
z
" clip-path="url(#pbc46b690a5)" style="fill: #00006a; fill-opacity: 0.25"/>
   </g>
   <g id="text_30">
    <!-- (b) SB-PWL -->
    <g transform="translate(437.959176 26.6016) scale(0.12 -0.12)">
     <defs>
      <path id="DejaVuSerif-62" d="M 738 331 
L 738 4531 
L 184 4531 
L 184 4863 
L 1313 4863 
L 1313 2803 
Q 1481 3116 1742 3264 
Q 2003 3413 2388 3413 
Q 3000 3413 3387 2928 
Q 3775 2444 3775 1663 
Q 3775 881 3387 395 
Q 3000 -91 2388 -91 
Q 2003 -91 1742 57 
Q 1481 206 1313 519 
L 1313 0 
L 184 0 
L 184 331 
L 738 331 
z
M 1313 1497 
Q 1313 897 1542 583 
Q 1772 269 2209 269 
Q 2650 269 2876 622 
Q 3103 975 3103 1663 
Q 3103 2353 2876 2703 
Q 2650 3053 2209 3053 
Q 1772 3053 1542 2737 
Q 1313 2422 1313 1825 
L 1313 1497 
z
" transform="scale(0.015625)"/>
      <path id="DejaVuSerif-53" d="M 594 225 
L 594 1288 
L 953 1284 
Q 969 753 1261 498 
Q 1553 244 2150 244 
Q 2706 244 2998 464 
Q 3291 684 3291 1106 
Q 3291 1444 3114 1625 
Q 2938 1806 2369 1978 
L 1753 2163 
Q 1084 2366 811 2669 
Q 538 2972 538 3500 
Q 538 4094 959 4422 
Q 1381 4750 2144 4750 
Q 2469 4750 2856 4679 
Q 3244 4609 3681 4475 
L 3681 3481 
L 3328 3481 
Q 3275 3975 2998 4195 
Q 2722 4416 2156 4416 
Q 1663 4416 1405 4214 
Q 1147 4013 1147 3628 
Q 1147 3294 1340 3103 
Q 1534 2913 2163 2725 
L 2741 2553 
Q 3375 2363 3645 2067 
Q 3916 1772 3916 1275 
Q 3916 597 3481 253 
Q 3047 -91 2188 -91 
Q 1803 -91 1404 -12 
Q 1006 66 594 225 
z
" transform="scale(0.015625)"/>
      <path id="DejaVuSerif-42" d="M 1581 331 
L 2516 331 
Q 3078 331 3337 575 
Q 3597 819 3597 1350 
Q 3597 1878 3339 2120 
Q 3081 2363 2516 2363 
L 1581 2363 
L 1581 331 
z
M 1581 2694 
L 2375 2694 
Q 2888 2694 3123 2891 
Q 3359 3088 3359 3513 
Q 3359 3941 3123 4136 
Q 2888 4331 2375 4331 
L 1581 4331 
L 1581 2694 
z
M 353 0 
L 353 331 
L 947 331 
L 947 4331 
L 353 4331 
L 353 4666 
L 2656 4666 
Q 3363 4666 3720 4377 
Q 4078 4088 4078 3513 
Q 4078 3097 3829 2850 
Q 3581 2603 3103 2547 
Q 3697 2472 4005 2167 
Q 4313 1863 4313 1350 
Q 4313 656 3875 328 
Q 3438 0 2509 0 
L 353 0 
z
" transform="scale(0.015625)"/>
      <path id="DejaVuSerif-50" d="M 1581 2375 
L 2406 2375 
Q 2872 2375 3115 2626 
Q 3359 2878 3359 3353 
Q 3359 3831 3115 4081 
Q 2872 4331 2406 4331 
L 1581 4331 
L 1581 2375 
z
M 353 0 
L 353 331 
L 947 331 
L 947 4331 
L 353 4331 
L 353 4666 
L 2559 4666 
Q 3259 4666 3668 4311 
Q 4078 3956 4078 3353 
Q 4078 2753 3668 2397 
Q 3259 2041 2559 2041 
L 1581 2041 
L 1581 331 
L 2303 331 
L 2303 0 
L 353 0 
z
" transform="scale(0.015625)"/>
      <path id="DejaVuSerif-57" d="M 4878 0 
L 4366 0 
L 3297 3794 
L 2228 0 
L 1716 0 
L 494 4331 
L 31 4331 
L 31 4666 
L 1734 4666 
L 1734 4331 
L 1153 4331 
L 2125 884 
L 3188 4666 
L 3694 4666 
L 4775 844 
L 5753 4331 
L 5216 4331 
L 5216 4666 
L 6559 4666 
L 6559 4331 
L 6100 4331 
L 4878 0 
z
" transform="scale(0.015625)"/>
     </defs>
     <use xlink:href="#DejaVuSerif-28"/>
     <use xlink:href="#DejaVuSerif-62" x="39.013672"/>
     <use xlink:href="#DejaVuSerif-29" x="103.027344"/>
     <use xlink:href="#DejaVuSerif-20" x="142.041016"/>
     <use xlink:href="#DejaVuSerif-53" x="173.828125"/>
     <use xlink:href="#DejaVuSerif-42" x="242.333984"/>
     <use xlink:href="#DejaVuSerif-2d" x="317.695312"/>
     <use xlink:href="#DejaVuSerif-50" x="351.484375"/>
     <use xlink:href="#DejaVuSerif-57" x="418.769531"/>
     <use xlink:href="#DejaVuSerif-4c" x="521.552734"/>
    </g>
   </g>
  </g>
  <g id="patch_10">
   <path d="M 7.2 450.72 
L 208.8 450.72 
L 208.8 249.12 
L 7.2 249.12 
L 7.2 450.72 
z
" style="fill: none"/>
  </g>
  <g id="pane3d_7">
   <g id="patch_11">
    <path d="M 110.724324 352.055886 
L 20.690216 390.469875 
L 17.22756 302.257177 
L 110.724324 268.836878 
" style="fill: none; opacity: 0"/>
   </g>
  </g>
  <g id="pane3d_8">
   <g id="patch_12">
    <path d="M 200.758433 390.469875 
L 110.724324 352.055886 
L 110.724324 268.836878 
L 204.221089 302.257177 
" style="fill: none; opacity: 0"/>
   </g>
  </g>
  <g id="pane3d_9">
   <g id="patch_13">
    <path d="M 200.758433 390.469875 
L 110.724324 352.055886 
L 20.690216 390.469875 
L 110.724324 435.102358 
" style="fill: none; opacity: 0"/>
   </g>
  </g>
  <g id="grid3d_7">
   <g id="Line3DCollection_7">
    <path d="M 104.562873 432.047951 
L 194.629177 387.854765 
L 197.840217 299.976342 
" style="fill: none; stroke: #b0b0b0; stroke-width: 0.8"/>
    <path d="M 77.181991 418.474464 
L 167.334352 376.209143 
L 169.453125 289.829413 
" style="fill: none; stroke: #b0b0b0; stroke-width: 0.8"/>
    <path d="M 51.026528 405.508453 
L 141.17384 365.047489 
L 142.288942 280.11961 
" style="fill: none; stroke: #b0b0b0; stroke-width: 0.8"/>
    <path d="M 26.016018 393.110028 
L 116.078371 354.340246 
L 116.270309 270.819283 
" style="fill: none; stroke: #b0b0b0; stroke-width: 0.8"/>
   </g>
  </g>
  <g id="grid3d_8">
   <g id="Line3DCollection_8">
    <path d="M 105.17834 270.819283 
L 105.370278 354.340246 
L 195.432631 393.110028 
" style="fill: none; stroke: #b0b0b0; stroke-width: 0.8"/>
    <path d="M 79.159707 280.11961 
L 80.274809 365.047489 
L 170.422121 405.508453 
" style="fill: none; stroke: #b0b0b0; stroke-width: 0.8"/>
    <path d="M 51.995523 289.829413 
L 54.114297 376.209143 
L 144.266657 418.474464 
" style="fill: none; stroke: #b0b0b0; stroke-width: 0.8"/>
    <path d="M 23.608432 299.976342 
L 26.819472 387.854765 
L 116.885775 432.047951 
" style="fill: none; stroke: #b0b0b0; stroke-width: 0.8"/>
   </g>
  </g>
  <g id="grid3d_9">
   <g id="Line3DCollection_9">
    <path d="M 200.825171 388.769701 
L 110.724324 350.447744 
L 20.623478 388.769701 
" style="fill: none; stroke: #b0b0b0; stroke-width: 0.8"/>
    <path d="M 201.438306 373.149796 
L 110.724324 335.681127 
L 20.010342 373.149796 
" style="fill: none; stroke: #b0b0b0; stroke-width: 0.8"/>
    <path d="M 202.059844 357.315847 
L 110.724324 320.726445 
L 19.388805 357.315847 
" style="fill: none; stroke: #b0b0b0; stroke-width: 0.8"/>
    <path d="M 202.689958 341.263425 
L 110.724324 305.580083 
L 18.758691 341.263425 
" style="fill: none; stroke: #b0b0b0; stroke-width: 0.8"/>
    <path d="M 203.328826 324.987976 
L 110.724324 290.238331 
L 18.119823 324.987976 
" style="fill: none; stroke: #b0b0b0; stroke-width: 0.8"/>
    <path d="M 203.976632 308.484821 
L 110.724324 274.697384 
L 17.472016 308.484821 
" style="fill: none; stroke: #b0b0b0; stroke-width: 0.8"/>
   </g>
  </g>
  <g id="axis3d_7">
   <g id="line2d_50">
    <path d="M 20.690216 390.469875 
L 110.724324 435.102358 
" style="fill: none; stroke: #000000; stroke-width: 0.8; stroke-linecap: square"/>
   </g>
   <g id="xtick_29">
    <g id="line2d_51">
     <path d="M 105.340924 431.666182 
L 103.003761 432.812966 
" style="fill: none; stroke: #000000; stroke-width: 0.8; stroke-linecap: square"/>
    </g>
    <g id="text_31">
     <!-- 0 -->
     <g transform="translate(90.702154 454.767473) scale(0.1 -0.1)">
      <use xlink:href="#DejaVuSerif-30"/>
     </g>
    </g>
   </g>
   <g id="xtick_30">
    <g id="line2d_52">
     <path d="M 77.959468 418.109967 
L 75.624098 419.204838 
" style="fill: none; stroke: #000000; stroke-width: 0.8; stroke-linecap: square"/>
    </g>
    <g id="text_32">
     <!-- 1 -->
     <g transform="translate(63.447013 440.786983) scale(0.1 -0.1)">
      <use xlink:href="#DejaVuSerif-31"/>
     </g>
    </g>
   </g>
   <g id="xtick_31">
    <g id="line2d_53">
     <path d="M 51.802703 405.160081 
L 49.471308 406.206485 
" style="fill: none; stroke: #000000; stroke-width: 0.8; stroke-linecap: square"/>
    </g>
    <g id="text_33">
     <!-- 2 -->
     <g transform="translate(37.416878 427.434859) scale(0.1 -0.1)">
      <use xlink:href="#DejaVuSerif-32"/>
     </g>
    </g>
   </g>
   <g id="xtick_32">
    <g id="line2d_54">
     <path d="M 26.79026 392.776735 
L 24.464735 393.77782 
" style="fill: none; stroke: #000000; stroke-width: 0.8; stroke-linecap: square"/>
    </g>
    <g id="text_34">
     <!-- 3 -->
     <g transform="translate(12.530977 414.669667) scale(0.1 -0.1)">
      <use xlink:href="#DejaVuSerif-33"/>
     </g>
    </g>
   </g>
  </g>
  <g id="axis3d_8">
   <g id="line2d_55">
    <path d="M 200.758433 390.469875 
L 110.724324 435.102358 
" style="fill: none; stroke: #000000; stroke-width: 0.8; stroke-linecap: square"/>
   </g>
   <g id="xtick_33">
    <g id="line2d_56">
     <path d="M 194.658389 392.776735 
L 196.983914 393.77782 
" style="fill: none; stroke: #000000; stroke-width: 0.8; stroke-linecap: square"/>
    </g>
    <g id="text_35">
     <!-- 0 -->
     <g transform="translate(202.555172 414.669667) scale(0.1 -0.1)">
      <use xlink:href="#DejaVuSerif-30"/>
     </g>
    </g>
   </g>
   <g id="xtick_34">
    <g id="line2d_57">
     <path d="M 169.645946 405.160081 
L 171.977341 406.206485 
" style="fill: none; stroke: #000000; stroke-width: 0.8; stroke-linecap: square"/>
    </g>
    <g id="text_36">
     <!-- 1 -->
     <g transform="translate(177.669271 427.434859) scale(0.1 -0.1)">
      <use xlink:href="#DejaVuSerif-31"/>
     </g>
    </g>
   </g>
   <g id="xtick_35">
    <g id="line2d_58">
     <path d="M 143.48918 418.109967 
L 145.824551 419.204838 
" style="fill: none; stroke: #000000; stroke-width: 0.8; stroke-linecap: square"/>
    </g>
    <g id="text_37">
     <!-- 2 -->
     <g transform="translate(151.639136 440.786983) scale(0.1 -0.1)">
      <use xlink:href="#DejaVuSerif-32"/>
     </g>
    </g>
   </g>
   <g id="xtick_36">
    <g id="line2d_59">
     <path d="M 116.107725 431.666182 
L 118.444887 432.812966 
" style="fill: none; stroke: #000000; stroke-width: 0.8; stroke-linecap: square"/>
    </g>
    <g id="text_38">
     <!-- 3 -->
     <g transform="translate(124.383994 454.767473) scale(0.1 -0.1)">
      <use xlink:href="#DejaVuSerif-33"/>
     </g>
    </g>
   </g>
  </g>
  <g id="axis3d_9">
   <g id="line2d_60">
    <path d="M 200.758433 390.469875 
L 204.221089 302.257177 
" style="fill: none; stroke: #000000; stroke-width: 0.8; stroke-linecap: square"/>
   </g>
   <g id="xtick_37">
    <g id="line2d_61">
     <path d="M 200.050814 388.44035 
L 202.376672 389.42959 
" style="fill: none; stroke: #000000; stroke-width: 0.8; stroke-linecap: square"/>
    </g>
    <g id="text_39">
     <!-- 0 -->
     <g transform="translate(217.380296 396.368139) scale(0.1 -0.1)">
      <use xlink:href="#DejaVuSerif-30"/>
     </g>
    </g>
   </g>
   <g id="xtick_38">
    <g id="line2d_62">
     <path d="M 200.658314 372.827626 
L 203.001119 373.795303 
" style="fill: none; stroke: #000000; stroke-width: 0.8; stroke-linecap: square"/>
    </g>
    <g id="text_40">
     <!-- 10 -->
     <g transform="translate(214.946488 380.748233) scale(0.1 -0.1)">
      <use xlink:href="#DejaVuSerif-31"/>
      <use xlink:href="#DejaVuSerif-30" x="63.623047"/>
     </g>
    </g>
   </g>
   <g id="xtick_39">
    <g id="line2d_63">
     <path d="M 201.274133 357.001088 
L 203.634134 357.946514 
" style="fill: none; stroke: #000000; stroke-width: 0.8; stroke-linecap: square"/>
    </g>
    <g id="text_41">
     <!-- 20 -->
     <g transform="translate(215.704172 364.914285) scale(0.1 -0.1)">
      <use xlink:href="#DejaVuSerif-32"/>
      <use xlink:href="#DejaVuSerif-30" x="63.623047"/>
     </g>
    </g>
   </g>
   <g id="xtick_40">
    <g id="line2d_64">
     <path d="M 201.898444 340.956312 
L 204.275894 341.87878 
" style="fill: none; stroke: #000000; stroke-width: 0.8; stroke-linecap: square"/>
    </g>
    <g id="text_42">
     <!-- 30 -->
     <g transform="translate(216.472311 348.861862) scale(0.1 -0.1)">
      <use xlink:href="#DejaVuSerif-33"/>
      <use xlink:href="#DejaVuSerif-30" x="63.623047"/>
     </g>
    </g>
   </g>
   <g id="xtick_41">
    <g id="line2d_65">
     <path d="M 202.531424 324.688753 
L 204.926581 325.587531 
" style="fill: none; stroke: #000000; stroke-width: 0.8; stroke-linecap: square"/>
    </g>
    <g id="text_43">
     <!-- 40 -->
     <g transform="translate(217.251121 332.586414) scale(0.1 -0.1)">
      <use xlink:href="#DejaVuSerif-34"/>
      <use xlink:href="#DejaVuSerif-30" x="63.623047"/>
     </g>
    </g>
   </g>
   <g id="xtick_42">
    <g id="line2d_66">
     <path d="M 203.173254 308.193739 
L 205.586383 309.068071 
" style="fill: none; stroke: #000000; stroke-width: 0.8; stroke-linecap: square"/>
    </g>
    <g id="text_44">
     <!-- 50 -->
     <g transform="translate(218.040828 316.083259) scale(0.1 -0.1)">
      <use xlink:href="#DejaVuSerif-35"/>
      <use xlink:href="#DejaVuSerif-30" x="63.623047"/>
     </g>
    </g>
   </g>
  </g>
  <g id="axes_3">
   <g id="line2d_67">
    <path d="M 98.159805 407.49304 
L 94.838888 401.572162 
L 91.356622 395.576058 
L 87.318606 388.843799 
L 82.860215 381.629688 
L 77.804017 373.669987 
L 72.293411 365.212883 
L 66.315477 356.251835 
L 59.858567 346.784183 
L 52.909995 336.807243 
L 45.457046 326.319976 
L 37.490311 315.327009 
L 29.189863 304.087875 
" clip-path="url(#p32c828e0c9)" style="fill: none; stroke: #000000; stroke-width: 1.5; stroke-linecap: square"/>
   </g>
   <g id="line2d_68">
    <path d="M 98.235047 421.126539 
L 94.96384 419.526309 
L 91.545157 417.853936 
L 87.594725 415.921438 
L 83.249479 413.795803 
L 78.341537 411.394904 
L 73.015598 408.789527 
L 67.264063 405.975955 
L 61.080885 402.951228 
L 54.459336 399.712056 
L 47.392948 396.255275 
L 39.87865 392.579383 
L 32.090858 388.769701 
" clip-path="url(#p32c828e0c9)" style="fill: none; stroke: #800080; stroke-width: 1.5; stroke-linecap: square"/>
   </g>
   <g id="line2d_69">
    <path d="M 189.35779 388.769701 
L 98.235047 421.126539 
" clip-path="url(#p32c828e0c9)" style="fill: none; stroke: #800080; stroke-width: 1.5; stroke-linecap: square"/>
   </g>
   <g id="line2d_70">
    <path d="M 189.35779 388.769701 
L 32.090858 388.769701 
" clip-path="url(#p32c828e0c9)" style="fill: none; stroke: #800080; stroke-width: 1.5; stroke-linecap: square"/>
   </g>
   <g id="line2d_71">
    <path d="M 189.35779 388.769701 
L 98.159805 407.49304 
" clip-path="url(#p32c828e0c9)" style="fill: none; stroke: #000000; stroke-width: 1.5; stroke-linecap: square"/>
   </g>
   <g id="line2d_72">
    <path d="M 189.35779 388.769701 
L 29.189863 304.087875 
" clip-path="url(#p32c828e0c9)" style="fill: none; stroke: #000000; stroke-width: 1.5; stroke-linecap: square"/>
   </g>
   <g id="line2d_73">
    <path d="M 98.159805 407.49304 
L 98.235047 421.126539 
" clip-path="url(#p32c828e0c9)" style="fill: none; stroke: #000000; stroke-width: 1.5; stroke-linecap: square"/>
   </g>
   <g id="line2d_74">
    <path d="M 29.189863 304.087875 
L 32.090858 388.769701 
" clip-path="url(#p32c828e0c9)" style="fill: none; stroke: #000000; stroke-width: 1.5; stroke-linecap: square"/>
   </g>
   <g id="line2d_75">
    <path d="M 189.35779 388.769701 
L 94.838888 401.572162 
" clip-path="url(#p32c828e0c9)" style="fill: none; stroke: #800080; stroke-opacity: 0.8; stroke-width: 0.7; stroke-linecap: square"/>
   </g>
   <g id="line2d_76">
    <path d="M 189.35779 388.769701 
L 91.356622 395.576058 
" clip-path="url(#p32c828e0c9)" style="fill: none; stroke: #800080; stroke-opacity: 0.8; stroke-width: 0.7; stroke-linecap: square"/>
   </g>
   <g id="line2d_77">
    <path d="M 189.35779 388.769701 
L 87.318606 388.843799 
" clip-path="url(#p32c828e0c9)" style="fill: none; stroke: #800080; stroke-opacity: 0.8; stroke-width: 0.7; stroke-linecap: square"/>
   </g>
   <g id="line2d_78">
    <path d="M 189.35779 388.769701 
L 82.860215 381.629688 
" clip-path="url(#p32c828e0c9)" style="fill: none; stroke: #800080; stroke-opacity: 0.8; stroke-width: 0.7; stroke-linecap: square"/>
   </g>
   <g id="line2d_79">
    <path d="M 189.35779 388.769701 
L 77.804017 373.669987 
" clip-path="url(#p32c828e0c9)" style="fill: none; stroke: #800080; stroke-opacity: 0.8; stroke-width: 0.7; stroke-linecap: square"/>
   </g>
   <g id="line2d_80">
    <path d="M 189.35779 388.769701 
L 72.293411 365.212883 
" clip-path="url(#p32c828e0c9)" style="fill: none; stroke: #800080; stroke-opacity: 0.8; stroke-width: 0.7; stroke-linecap: square"/>
   </g>
   <g id="line2d_81">
    <path d="M 189.35779 388.769701 
L 66.315477 356.251835 
" clip-path="url(#p32c828e0c9)" style="fill: none; stroke: #800080; stroke-opacity: 0.8; stroke-width: 0.7; stroke-linecap: square"/>
   </g>
   <g id="line2d_82">
    <path d="M 189.35779 388.769701 
L 59.858567 346.784183 
" clip-path="url(#p32c828e0c9)" style="fill: none; stroke: #800080; stroke-opacity: 0.8; stroke-width: 0.7; stroke-linecap: square"/>
   </g>
   <g id="line2d_83">
    <path d="M 189.35779 388.769701 
L 52.909995 336.807243 
" clip-path="url(#p32c828e0c9)" style="fill: none; stroke: #800080; stroke-opacity: 0.8; stroke-width: 0.7; stroke-linecap: square"/>
   </g>
   <g id="line2d_84">
    <path d="M 189.35779 388.769701 
L 45.457046 326.319976 
" clip-path="url(#p32c828e0c9)" style="fill: none; stroke: #800080; stroke-opacity: 0.8; stroke-width: 0.7; stroke-linecap: square"/>
   </g>
   <g id="line2d_85">
    <path d="M 189.35779 388.769701 
L 37.490311 315.327009 
" clip-path="url(#p32c828e0c9)" style="fill: none; stroke: #800080; stroke-opacity: 0.8; stroke-width: 0.7; stroke-linecap: square"/>
   </g>
   <g id="Poly3DCollection_3">
    <path d="M 189.35779 388.769701 
L 39.87865 392.579383 
L 32.090858 388.769701 
z
" clip-path="url(#p32c828e0c9)" style="fill: #440044; fill-opacity: 0.25"/>
    <path d="M 189.35779 388.769701 
L 47.392948 396.255275 
L 39.87865 392.579383 
z
" clip-path="url(#p32c828e0c9)" style="fill: #440044; fill-opacity: 0.25"/>
    <path d="M 189.35779 388.769701 
L 54.459336 399.712056 
L 47.392948 396.255275 
z
" clip-path="url(#p32c828e0c9)" style="fill: #440044; fill-opacity: 0.25"/>
    <path d="M 189.35779 388.769701 
L 29.189863 304.087875 
L 32.090858 388.769701 
z
" clip-path="url(#p32c828e0c9)" style="fill: #530053; fill-opacity: 0.25"/>
    <path d="M 29.189863 304.087875 
L 39.87865 392.579383 
L 32.090858 388.769701 
z
" clip-path="url(#p32c828e0c9)" style="fill: #710071; fill-opacity: 0.25"/>
    <path d="M 189.35779 388.769701 
L 61.080885 402.951228 
L 54.459336 399.712056 
z
" clip-path="url(#p32c828e0c9)" style="fill: #440044; fill-opacity: 0.25"/>
    <path d="M 189.35779 388.769701 
L 67.264063 405.975955 
L 61.080885 402.951228 
z
" clip-path="url(#p32c828e0c9)" style="fill: #440044; fill-opacity: 0.25"/>
    <path d="M 37.490311 315.327009 
L 47.392948 396.255275 
L 39.87865 392.579383 
z
" clip-path="url(#p32c828e0c9)" style="fill: #710071; fill-opacity: 0.25"/>
    <path d="M 189.35779 388.769701 
L 73.015598 408.789527 
L 67.264063 405.975955 
z
" clip-path="url(#p32c828e0c9)" style="fill: #440044; fill-opacity: 0.25"/>
    <path d="M 189.35779 388.769701 
L 78.341537 411.394904 
L 73.015598 408.789527 
z
" clip-path="url(#p32c828e0c9)" style="fill: #440044; fill-opacity: 0.25"/>
    <path d="M 189.35779 388.769701 
L 37.490311 315.327009 
L 29.189863 304.087875 
z
" clip-path="url(#p32c828e0c9)" style="fill: #300030; fill-opacity: 0.25"/>
    <path d="M 45.457046 326.319976 
L 54.459336 399.712056 
L 47.392948 396.255275 
z
" clip-path="url(#p32c828e0c9)" style="fill: #710071; fill-opacity: 0.25"/>
    <path d="M 37.490311 315.327009 
L 39.87865 392.579383 
L 29.189863 304.087875 
z
" clip-path="url(#p32c828e0c9)" style="fill: #710071; fill-opacity: 0.25"/>
    <path d="M 189.35779 388.769701 
L 45.457046 326.319976 
L 37.490311 315.327009 
z
" clip-path="url(#p32c828e0c9)" style="fill: #310031; fill-opacity: 0.25"/>
    <path d="M 189.35779 388.769701 
L 83.249479 413.795803 
L 78.341537 411.394904 
z
" clip-path="url(#p32c828e0c9)" style="fill: #440044; fill-opacity: 0.25"/>
    <path d="M 189.35779 388.769701 
L 52.909995 336.807243 
L 45.457046 326.319976 
z
" clip-path="url(#p32c828e0c9)" style="fill: #310031; fill-opacity: 0.25"/>
    <path d="M 52.909995 336.807243 
L 61.080885 402.951228 
L 54.459336 399.712056 
z
" clip-path="url(#p32c828e0c9)" style="fill: #710071; fill-opacity: 0.25"/>
    <path d="M 189.35779 388.769701 
L 87.594725 415.921438 
L 83.249479 413.795803 
z
" clip-path="url(#p32c828e0c9)" style="fill: #440044; fill-opacity: 0.25"/>
    <path d="M 189.35779 388.769701 
L 59.858567 346.784183 
L 52.909995 336.807243 
z
" clip-path="url(#p32c828e0c9)" style="fill: #320032; fill-opacity: 0.25"/>
    <path d="M 45.457046 326.319976 
L 47.392948 396.255275 
L 37.490311 315.327009 
z
" clip-path="url(#p32c828e0c9)" style="fill: #710071; fill-opacity: 0.25"/>
    <path d="M 189.35779 388.769701 
L 91.545157 417.853936 
L 87.594725 415.921438 
z
" clip-path="url(#p32c828e0c9)" style="fill: #440044; fill-opacity: 0.25"/>
    <path d="M 189.35779 388.769701 
L 66.315477 356.251835 
L 59.858567 346.784183 
z
" clip-path="url(#p32c828e0c9)" style="fill: #320032; fill-opacity: 0.25"/>
    <path d="M 59.858567 346.784183 
L 67.264063 405.975955 
L 61.080885 402.951228 
z
" clip-path="url(#p32c828e0c9)" style="fill: #710071; fill-opacity: 0.25"/>
    <path d="M 189.35779 388.769701 
L 94.96384 419.526309 
L 91.545157 417.853936 
z
" clip-path="url(#p32c828e0c9)" style="fill: #440044; fill-opacity: 0.25"/>
    <path d="M 189.35779 388.769701 
L 72.293411 365.212883 
L 66.315477 356.251835 
z
" clip-path="url(#p32c828e0c9)" style="fill: #330033; fill-opacity: 0.25"/>
    <path d="M 52.909995 336.807243 
L 54.459336 399.712056 
L 45.457046 326.319976 
z
" clip-path="url(#p32c828e0c9)" style="fill: #710071; fill-opacity: 0.25"/>
    <path d="M 189.35779 388.769701 
L 77.804017 373.669987 
L 72.293411 365.212883 
z
" clip-path="url(#p32c828e0c9)" style="fill: #340034; fill-opacity: 0.25"/>
    <path d="M 189.35779 388.769701 
L 98.235047 421.126539 
L 94.96384 419.526309 
z
" clip-path="url(#p32c828e0c9)" style="fill: #440044; fill-opacity: 0.25"/>
    <path d="M 189.35779 388.769701 
L 82.860215 381.629688 
L 77.804017 373.669987 
z
" clip-path="url(#p32c828e0c9)" style="fill: #340034; fill-opacity: 0.25"/>
    <path d="M 66.315477 356.251835 
L 73.015598 408.789527 
L 67.264063 405.975955 
z
" clip-path="url(#p32c828e0c9)" style="fill: #710071; fill-opacity: 0.25"/>
    <path d="M 189.35779 388.769701 
L 87.318606 388.843799 
L 82.860215 381.629688 
z
" clip-path="url(#p32c828e0c9)" style="fill: #340034; fill-opacity: 0.25"/>
    <path d="M 189.35779 388.769701 
L 98.235047 421.126539 
L 98.159805 407.49304 
z
" clip-path="url(#p32c828e0c9)" style="fill: #3a003a; fill-opacity: 0.25"/>
    <path d="M 59.858567 346.784183 
L 61.080885 402.951228 
L 52.909995 336.807243 
z
" clip-path="url(#p32c828e0c9)" style="fill: #710071; fill-opacity: 0.25"/>
    <path d="M 189.35779 388.769701 
L 91.356622 395.576058 
L 87.318606 388.843799 
z
" clip-path="url(#p32c828e0c9)" style="fill: #350035; fill-opacity: 0.25"/>
    <path d="M 189.35779 388.769701 
L 94.838888 401.572162 
L 91.356622 395.576058 
z
" clip-path="url(#p32c828e0c9)" style="fill: #350035; fill-opacity: 0.25"/>
    <path d="M 189.35779 388.769701 
L 98.159805 407.49304 
L 94.838888 401.572162 
z
" clip-path="url(#p32c828e0c9)" style="fill: #350035; fill-opacity: 0.25"/>
    <path d="M 72.293411 365.212883 
L 78.341537 411.394904 
L 73.015598 408.789527 
z
" clip-path="url(#p32c828e0c9)" style="fill: #710071; fill-opacity: 0.25"/>
    <path d="M 66.315477 356.251835 
L 67.264063 405.975955 
L 59.858567 346.784183 
z
" clip-path="url(#p32c828e0c9)" style="fill: #710071; fill-opacity: 0.25"/>
    <path d="M 77.804017 373.669987 
L 83.249479 413.795803 
L 78.341537 411.394904 
z
" clip-path="url(#p32c828e0c9)" style="fill: #710071; fill-opacity: 0.25"/>
    <path d="M 72.293411 365.212883 
L 73.015598 408.789527 
L 66.315477 356.251835 
z
" clip-path="url(#p32c828e0c9)" style="fill: #710071; fill-opacity: 0.25"/>
    <path d="M 82.860215 381.629688 
L 87.594725 415.921438 
L 83.249479 413.795803 
z
" clip-path="url(#p32c828e0c9)" style="fill: #710071; fill-opacity: 0.25"/>
    <path d="M 77.804017 373.669987 
L 78.341537 411.394904 
L 72.293411 365.212883 
z
" clip-path="url(#p32c828e0c9)" style="fill: #710071; fill-opacity: 0.25"/>
    <path d="M 87.318606 388.843799 
L 91.545157 417.853936 
L 87.594725 415.921438 
z
" clip-path="url(#p32c828e0c9)" style="fill: #710071; fill-opacity: 0.25"/>
    <path d="M 82.860215 381.629688 
L 83.249479 413.795803 
L 77.804017 373.669987 
z
" clip-path="url(#p32c828e0c9)" style="fill: #710071; fill-opacity: 0.25"/>
    <path d="M 87.318606 388.843799 
L 87.594725 415.921438 
L 82.860215 381.629688 
z
" clip-path="url(#p32c828e0c9)" style="fill: #710071; fill-opacity: 0.25"/>
    <path d="M 91.356622 395.576058 
L 94.96384 419.526309 
L 91.545157 417.853936 
z
" clip-path="url(#p32c828e0c9)" style="fill: #710071; fill-opacity: 0.25"/>
    <path d="M 91.356622 395.576058 
L 91.545157 417.853936 
L 87.318606 388.843799 
z
" clip-path="url(#p32c828e0c9)" style="fill: #710071; fill-opacity: 0.25"/>
    <path d="M 94.838888 401.572162 
L 98.235047 421.126539 
L 94.96384 419.526309 
z
" clip-path="url(#p32c828e0c9)" style="fill: #710071; fill-opacity: 0.25"/>
    <path d="M 94.838888 401.572162 
L 94.96384 419.526309 
L 91.356622 395.576058 
z
" clip-path="url(#p32c828e0c9)" style="fill: #710071; fill-opacity: 0.25"/>
    <path d="M 98.159805 407.49304 
L 98.235047 421.126539 
L 94.838888 401.572162 
z
" clip-path="url(#p32c828e0c9)" style="fill: #710071; fill-opacity: 0.25"/>
   </g>
   <g id="text_45">
    <!-- (c) RB-PWL -->
    <g transform="translate(72.795938 268.5216) scale(0.12 -0.12)">
     <defs>
      <path id="DejaVuSerif-63" d="M 3291 997 
Q 3169 466 2822 187 
Q 2475 -91 1925 -91 
Q 1200 -91 759 389 
Q 319 869 319 1663 
Q 319 2459 759 2936 
Q 1200 3413 1925 3413 
Q 2241 3413 2553 3339 
Q 2866 3266 3181 3116 
L 3181 2266 
L 2847 2266 
Q 2781 2703 2561 2903 
Q 2341 3103 1931 3103 
Q 1466 3103 1228 2742 
Q 991 2381 991 1663 
Q 991 944 1227 581 
Q 1463 219 1931 219 
Q 2303 219 2525 412 
Q 2747 606 2828 997 
L 3291 997 
z
" transform="scale(0.015625)"/>
      <path id="DejaVuSerif-52" d="M 3066 2316 
Q 3284 2256 3442 2114 
Q 3600 1972 3725 1716 
L 4403 331 
L 4972 331 
L 4972 0 
L 3872 0 
L 3144 1484 
Q 2934 1916 2759 2042 
Q 2584 2169 2278 2169 
L 1581 2169 
L 1581 331 
L 2241 331 
L 2241 0 
L 353 0 
L 353 331 
L 947 331 
L 947 4331 
L 353 4331 
L 353 4666 
L 2719 4666 
Q 3400 4666 3770 4341 
Q 4141 4016 4141 3419 
Q 4141 2938 3870 2661 
Q 3600 2384 3066 2316 
z
M 1581 2503 
L 2503 2503 
Q 2975 2503 3200 2726 
Q 3425 2950 3425 3419 
Q 3425 3888 3200 4109 
Q 2975 4331 2503 4331 
L 1581 4331 
L 1581 2503 
z
" transform="scale(0.015625)"/>
     </defs>
     <use xlink:href="#DejaVuSerif-28"/>
     <use xlink:href="#DejaVuSerif-63" x="39.013672"/>
     <use xlink:href="#DejaVuSerif-29" x="95.019531"/>
     <use xlink:href="#DejaVuSerif-20" x="134.033203"/>
     <use xlink:href="#DejaVuSerif-52" x="165.820312"/>
     <use xlink:href="#DejaVuSerif-42" x="241.113281"/>
     <use xlink:href="#DejaVuSerif-2d" x="316.474609"/>
     <use xlink:href="#DejaVuSerif-50" x="350.263672"/>
     <use xlink:href="#DejaVuSerif-57" x="417.548828"/>
     <use xlink:href="#DejaVuSerif-4c" x="520.332031"/>
    </g>
   </g>
  </g>
  <g id="patch_14">
   <path d="M 372.436364 450.72 
L 574.036364 450.72 
L 574.036364 249.12 
L 372.436364 249.12 
L 372.436364 450.72 
z
" style="fill: none"/>
  </g>
  <g id="pane3d_10">
   <g id="patch_15">
    <path d="M 475.960688 352.055886 
L 385.926579 390.469875 
L 382.463923 302.257177 
L 475.960688 268.836878 
" style="fill: none; opacity: 0"/>
   </g>
  </g>
  <g id="pane3d_11">
   <g id="patch_16">
    <path d="M 565.994796 390.469875 
L 475.960688 352.055886 
L 475.960688 268.836878 
L 569.457453 302.257177 
" style="fill: none; opacity: 0"/>
   </g>
  </g>
  <g id="pane3d_12">
   <g id="patch_17">
    <path d="M 565.994796 390.469875 
L 475.960688 352.055886 
L 385.926579 390.469875 
L 475.960688 435.102358 
" style="fill: none; opacity: 0"/>
   </g>
  </g>
  <g id="grid3d_10">
   <g id="Line3DCollection_10">
    <path d="M 469.799237 432.047951 
L 559.865541 387.854765 
L 563.07658 299.976342 
" style="fill: none; stroke: #b0b0b0; stroke-width: 0.8"/>
    <path d="M 442.418355 418.474464 
L 532.570715 376.209143 
L 534.689489 289.829413 
" style="fill: none; stroke: #b0b0b0; stroke-width: 0.8"/>
    <path d="M 416.262891 405.508453 
L 506.410203 365.047489 
L 507.525306 280.11961 
" style="fill: none; stroke: #b0b0b0; stroke-width: 0.8"/>
    <path d="M 391.252382 393.110028 
L 481.314734 354.340246 
L 481.506672 270.819283 
" style="fill: none; stroke: #b0b0b0; stroke-width: 0.8"/>
   </g>
  </g>
  <g id="grid3d_11">
   <g id="Line3DCollection_11">
    <path d="M 470.414703 270.819283 
L 470.606642 354.340246 
L 560.668994 393.110028 
" style="fill: none; stroke: #b0b0b0; stroke-width: 0.8"/>
    <path d="M 444.39607 280.11961 
L 445.511173 365.047489 
L 535.658485 405.508453 
" style="fill: none; stroke: #b0b0b0; stroke-width: 0.8"/>
    <path d="M 417.231887 289.829413 
L 419.350661 376.209143 
L 509.503021 418.474464 
" style="fill: none; stroke: #b0b0b0; stroke-width: 0.8"/>
    <path d="M 388.844796 299.976342 
L 392.055835 387.854765 
L 482.122139 432.047951 
" style="fill: none; stroke: #b0b0b0; stroke-width: 0.8"/>
   </g>
  </g>
  <g id="grid3d_12">
   <g id="Line3DCollection_12">
    <path d="M 566.061534 388.769701 
L 475.960688 350.447744 
L 385.859842 388.769701 
" style="fill: none; stroke: #b0b0b0; stroke-width: 0.8"/>
    <path d="M 566.67467 373.149796 
L 475.960688 335.681127 
L 385.246706 373.149796 
" style="fill: none; stroke: #b0b0b0; stroke-width: 0.8"/>
    <path d="M 567.296208 357.315847 
L 475.960688 320.726445 
L 384.625168 357.315847 
" style="fill: none; stroke: #b0b0b0; stroke-width: 0.8"/>
    <path d="M 567.926321 341.263425 
L 475.960688 305.580083 
L 383.995055 341.263425 
" style="fill: none; stroke: #b0b0b0; stroke-width: 0.8"/>
    <path d="M 568.565189 324.987976 
L 475.960688 290.238331 
L 383.356186 324.987976 
" style="fill: none; stroke: #b0b0b0; stroke-width: 0.8"/>
    <path d="M 569.212996 308.484821 
L 475.960688 274.697384 
L 382.70838 308.484821 
" style="fill: none; stroke: #b0b0b0; stroke-width: 0.8"/>
   </g>
  </g>
  <g id="axis3d_10">
   <g id="line2d_86">
    <path d="M 385.926579 390.469875 
L 475.960688 435.102358 
" style="fill: none; stroke: #000000; stroke-width: 0.8; stroke-linecap: square"/>
   </g>
   <g id="xtick_43">
    <g id="line2d_87">
     <path d="M 470.577287 431.666182 
L 468.240125 432.812966 
" style="fill: none; stroke: #000000; stroke-width: 0.8; stroke-linecap: square"/>
    </g>
    <g id="text_46">
     <!-- 0 -->
     <g transform="translate(455.938518 454.767473) scale(0.1 -0.1)">
      <use xlink:href="#DejaVuSerif-30"/>
     </g>
    </g>
   </g>
   <g id="xtick_44">
    <g id="line2d_88">
     <path d="M 443.195832 418.109967 
L 440.860461 419.204838 
" style="fill: none; stroke: #000000; stroke-width: 0.8; stroke-linecap: square"/>
    </g>
    <g id="text_47">
     <!-- 1 -->
     <g transform="translate(428.683376 440.786983) scale(0.1 -0.1)">
      <use xlink:href="#DejaVuSerif-31"/>
     </g>
    </g>
   </g>
   <g id="xtick_45">
    <g id="line2d_89">
     <path d="M 417.039067 405.160081 
L 414.707672 406.206485 
" style="fill: none; stroke: #000000; stroke-width: 0.8; stroke-linecap: square"/>
    </g>
    <g id="text_48">
     <!-- 2 -->
     <g transform="translate(402.653242 427.434859) scale(0.1 -0.1)">
      <use xlink:href="#DejaVuSerif-32"/>
     </g>
    </g>
   </g>
   <g id="xtick_46">
    <g id="line2d_90">
     <path d="M 392.026624 392.776735 
L 389.701099 393.77782 
" style="fill: none; stroke: #000000; stroke-width: 0.8; stroke-linecap: square"/>
    </g>
    <g id="text_49">
     <!-- 3 -->
     <g transform="translate(377.76734 414.669667) scale(0.1 -0.1)">
      <use xlink:href="#DejaVuSerif-33"/>
     </g>
    </g>
   </g>
  </g>
  <g id="axis3d_11">
   <g id="line2d_91">
    <path d="M 565.994796 390.469875 
L 475.960688 435.102358 
" style="fill: none; stroke: #000000; stroke-width: 0.8; stroke-linecap: square"/>
   </g>
   <g id="xtick_47">
    <g id="line2d_92">
     <path d="M 559.894752 392.776735 
L 562.220277 393.77782 
" style="fill: none; stroke: #000000; stroke-width: 0.8; stroke-linecap: square"/>
    </g>
    <g id="text_50">
     <!-- 0 -->
     <g transform="translate(567.791536 414.669667) scale(0.1 -0.1)">
      <use xlink:href="#DejaVuSerif-30"/>
     </g>
    </g>
   </g>
   <g id="xtick_48">
    <g id="line2d_93">
     <path d="M 534.882309 405.160081 
L 537.213704 406.206485 
" style="fill: none; stroke: #000000; stroke-width: 0.8; stroke-linecap: square"/>
    </g>
    <g id="text_51">
     <!-- 1 -->
     <g transform="translate(542.905634 427.434859) scale(0.1 -0.1)">
      <use xlink:href="#DejaVuSerif-31"/>
     </g>
    </g>
   </g>
   <g id="xtick_49">
    <g id="line2d_94">
     <path d="M 508.725544 418.109967 
L 511.060914 419.204838 
" style="fill: none; stroke: #000000; stroke-width: 0.8; stroke-linecap: square"/>
    </g>
    <g id="text_52">
     <!-- 2 -->
     <g transform="translate(516.875499 440.786983) scale(0.1 -0.1)">
      <use xlink:href="#DejaVuSerif-32"/>
     </g>
    </g>
   </g>
   <g id="xtick_50">
    <g id="line2d_95">
     <path d="M 481.344089 431.666182 
L 483.681251 432.812966 
" style="fill: none; stroke: #000000; stroke-width: 0.8; stroke-linecap: square"/>
    </g>
    <g id="text_53">
     <!-- 3 -->
     <g transform="translate(489.620358 454.767473) scale(0.1 -0.1)">
      <use xlink:href="#DejaVuSerif-33"/>
     </g>
    </g>
   </g>
  </g>
  <g id="axis3d_12">
   <g id="line2d_96">
    <path d="M 565.994796 390.469875 
L 569.457453 302.257177 
" style="fill: none; stroke: #000000; stroke-width: 0.8; stroke-linecap: square"/>
   </g>
   <g id="xtick_51">
    <g id="line2d_97">
     <path d="M 565.287178 388.44035 
L 567.613036 389.42959 
" style="fill: none; stroke: #000000; stroke-width: 0.8; stroke-linecap: square"/>
    </g>
    <g id="text_54">
     <!-- 0 -->
     <g transform="translate(582.61666 396.368139) scale(0.1 -0.1)">
      <use xlink:href="#DejaVuSerif-30"/>
     </g>
    </g>
   </g>
   <g id="xtick_52">
    <g id="line2d_98">
     <path d="M 565.894678 372.827626 
L 568.237483 373.795303 
" style="fill: none; stroke: #000000; stroke-width: 0.8; stroke-linecap: square"/>
    </g>
    <g id="text_55">
     <!-- 10 -->
     <g transform="translate(580.182852 380.748233) scale(0.1 -0.1)">
      <use xlink:href="#DejaVuSerif-31"/>
      <use xlink:href="#DejaVuSerif-30" x="63.623047"/>
     </g>
    </g>
   </g>
   <g id="xtick_53">
    <g id="line2d_99">
     <path d="M 566.510497 357.001088 
L 568.870498 357.946514 
" style="fill: none; stroke: #000000; stroke-width: 0.8; stroke-linecap: square"/>
    </g>
    <g id="text_56">
     <!-- 20 -->
     <g transform="translate(580.940536 364.914285) scale(0.1 -0.1)">
      <use xlink:href="#DejaVuSerif-32"/>
      <use xlink:href="#DejaVuSerif-30" x="63.623047"/>
     </g>
    </g>
   </g>
   <g id="xtick_54">
    <g id="line2d_100">
     <path d="M 567.134808 340.956312 
L 569.512258 341.87878 
" style="fill: none; stroke: #000000; stroke-width: 0.8; stroke-linecap: square"/>
    </g>
    <g id="text_57">
     <!-- 30 -->
     <g transform="translate(581.708674 348.861862) scale(0.1 -0.1)">
      <use xlink:href="#DejaVuSerif-33"/>
      <use xlink:href="#DejaVuSerif-30" x="63.623047"/>
     </g>
    </g>
   </g>
   <g id="xtick_55">
    <g id="line2d_101">
     <path d="M 567.767787 324.688753 
L 570.162945 325.587531 
" style="fill: none; stroke: #000000; stroke-width: 0.8; stroke-linecap: square"/>
    </g>
    <g id="text_58">
     <!-- 40 -->
     <g transform="translate(582.487485 332.586414) scale(0.1 -0.1)">
      <use xlink:href="#DejaVuSerif-34"/>
      <use xlink:href="#DejaVuSerif-30" x="63.623047"/>
     </g>
    </g>
   </g>
   <g id="xtick_56">
    <g id="line2d_102">
     <path d="M 568.409618 308.193739 
L 570.822747 309.068071 
" style="fill: none; stroke: #000000; stroke-width: 0.8; stroke-linecap: square"/>
    </g>
    <g id="text_59">
     <!-- 50 -->
     <g transform="translate(583.277192 316.083259) scale(0.1 -0.1)">
      <use xlink:href="#DejaVuSerif-35"/>
      <use xlink:href="#DejaVuSerif-30" x="63.623047"/>
     </g>
    </g>
   </g>
  </g>
  <g id="axes_4">
   <g id="line2d_103">
    <path d="M 463.396169 407.49304 
L 460.075252 401.572162 
L 456.592986 395.576058 
L 452.554969 388.843799 
L 448.096579 381.629688 
L 443.040381 373.669987 
L 437.529775 365.212883 
L 431.551841 356.251835 
L 425.09493 346.784183 
L 418.146359 336.807243 
L 410.69341 326.319976 
L 402.726675 315.327009 
L 394.426227 304.087875 
" clip-path="url(#pf61c69bca6)" style="fill: none; stroke: #000000; stroke-width: 1.5; stroke-linecap: square"/>
   </g>
   <g id="line2d_104">
    <path d="M 463.396169 407.493023 
L 460.081876 402.523976 
L 456.607704 397.315224 
L 452.579774 391.276235 
L 448.13263 384.608729 
L 443.088486 377.046152 
L 437.589244 368.801257 
L 431.62053 359.852493 
L 425.168822 350.179585 
L 418.219085 339.759995 
L 410.755702 328.570305 
L 402.765757 316.591153 
L 394.426227 304.087875 
" clip-path="url(#pf61c69bca6)" style="fill: none; stroke: #696969; stroke-width: 0.7; stroke-linecap: square"/>
   </g>
   <g id="line2d_105">
    <path d="M 554.594154 388.769701 
L 463.396169 407.493023 
" clip-path="url(#pf61c69bca6)" style="fill: none; stroke: #696969; stroke-width: 1.5; stroke-linecap: square"/>
   </g>
   <g id="line2d_106">
    <path d="M 554.594154 388.769701 
L 394.426227 304.087875 
" clip-path="url(#pf61c69bca6)" style="fill: none; stroke: #696969; stroke-width: 1.5; stroke-linecap: square"/>
   </g>
   <g id="line2d_107">
    <path d="M 554.594154 388.769701 
L 463.396169 407.49304 
" clip-path="url(#pf61c69bca6)" style="fill: none; stroke: #000000; stroke-width: 1.5; stroke-linecap: square"/>
   </g>
   <g id="line2d_108">
    <path d="M 554.594154 388.769701 
L 394.426227 304.087875 
" clip-path="url(#pf61c69bca6)" style="fill: none; stroke: #000000; stroke-width: 1.5; stroke-linecap: square"/>
   </g>
   <g id="line2d_109">
    <path d="M 463.396169 407.49304 
L 463.396169 407.493023 
" clip-path="url(#pf61c69bca6)" style="fill: none; stroke: #000000; stroke-width: 1.5; stroke-linecap: square"/>
   </g>
   <g id="line2d_110">
    <path d="M 394.426227 304.087875 
L 394.426227 304.087875 
" clip-path="url(#pf61c69bca6)" style="fill: none; stroke: #000000; stroke-width: 1.5; stroke-linecap: square"/>
   </g>
   <g id="line2d_111">
    <path d="M 554.594154 388.769701 
L 460.075252 401.572162 
" clip-path="url(#pf61c69bca6)" style="fill: none; stroke: #008080; stroke-opacity: 0.8; stroke-width: 0.7; stroke-linecap: square"/>
   </g>
   <g id="line2d_112">
    <path d="M 554.594154 388.769701 
L 456.592986 395.576058 
" clip-path="url(#pf61c69bca6)" style="fill: none; stroke: #008080; stroke-opacity: 0.8; stroke-width: 0.7; stroke-linecap: square"/>
   </g>
   <g id="line2d_113">
    <path d="M 554.594154 388.769701 
L 452.554969 388.843799 
" clip-path="url(#pf61c69bca6)" style="fill: none; stroke: #008080; stroke-opacity: 0.8; stroke-width: 0.7; stroke-linecap: square"/>
   </g>
   <g id="line2d_114">
    <path d="M 554.594154 388.769701 
L 448.096579 381.629688 
" clip-path="url(#pf61c69bca6)" style="fill: none; stroke: #008080; stroke-opacity: 0.8; stroke-width: 0.7; stroke-linecap: square"/>
   </g>
   <g id="line2d_115">
    <path d="M 554.594154 388.769701 
L 443.040381 373.669987 
" clip-path="url(#pf61c69bca6)" style="fill: none; stroke: #008080; stroke-opacity: 0.8; stroke-width: 0.7; stroke-linecap: square"/>
   </g>
   <g id="line2d_116">
    <path d="M 554.594154 388.769701 
L 437.529775 365.212883 
" clip-path="url(#pf61c69bca6)" style="fill: none; stroke: #008080; stroke-opacity: 0.8; stroke-width: 0.7; stroke-linecap: square"/>
   </g>
   <g id="line2d_117">
    <path d="M 554.594154 388.769701 
L 431.551841 356.251835 
" clip-path="url(#pf61c69bca6)" style="fill: none; stroke: #008080; stroke-opacity: 0.8; stroke-width: 0.7; stroke-linecap: square"/>
   </g>
   <g id="line2d_118">
    <path d="M 554.594154 388.769701 
L 425.09493 346.784183 
" clip-path="url(#pf61c69bca6)" style="fill: none; stroke: #008080; stroke-opacity: 0.8; stroke-width: 0.7; stroke-linecap: square"/>
   </g>
   <g id="line2d_119">
    <path d="M 554.594154 388.769701 
L 418.146359 336.807243 
" clip-path="url(#pf61c69bca6)" style="fill: none; stroke: #008080; stroke-opacity: 0.8; stroke-width: 0.7; stroke-linecap: square"/>
   </g>
   <g id="line2d_120">
    <path d="M 554.594154 388.769701 
L 410.69341 326.319976 
" clip-path="url(#pf61c69bca6)" style="fill: none; stroke: #008080; stroke-opacity: 0.8; stroke-width: 0.7; stroke-linecap: square"/>
   </g>
   <g id="line2d_121">
    <path d="M 554.594154 388.769701 
L 402.726675 315.327009 
" clip-path="url(#pf61c69bca6)" style="fill: none; stroke: #008080; stroke-opacity: 0.8; stroke-width: 0.7; stroke-linecap: square"/>
   </g>
   <g id="line2d_122">
    <path d="M 554.594154 388.769701 
L 460.081876 402.523976 
" clip-path="url(#pf61c69bca6)" style="fill: none; stroke-dasharray: 2.59,1.12; stroke-dashoffset: 0; stroke: #696969; stroke-opacity: 0.8; stroke-width: 0.7"/>
   </g>
   <g id="line2d_123">
    <path d="M 554.594154 388.769701 
L 456.607704 397.315224 
" clip-path="url(#pf61c69bca6)" style="fill: none; stroke-dasharray: 2.59,1.12; stroke-dashoffset: 0; stroke: #696969; stroke-opacity: 0.8; stroke-width: 0.7"/>
   </g>
   <g id="line2d_124">
    <path d="M 554.594154 388.769701 
L 452.579774 391.276235 
" clip-path="url(#pf61c69bca6)" style="fill: none; stroke-dasharray: 2.59,1.12; stroke-dashoffset: 0; stroke: #696969; stroke-opacity: 0.8; stroke-width: 0.7"/>
   </g>
   <g id="line2d_125">
    <path d="M 554.594154 388.769701 
L 448.13263 384.608729 
" clip-path="url(#pf61c69bca6)" style="fill: none; stroke-dasharray: 2.59,1.12; stroke-dashoffset: 0; stroke: #696969; stroke-opacity: 0.8; stroke-width: 0.7"/>
   </g>
   <g id="line2d_126">
    <path d="M 554.594154 388.769701 
L 443.088486 377.046152 
" clip-path="url(#pf61c69bca6)" style="fill: none; stroke-dasharray: 2.59,1.12; stroke-dashoffset: 0; stroke: #696969; stroke-opacity: 0.8; stroke-width: 0.7"/>
   </g>
   <g id="line2d_127">
    <path d="M 554.594154 388.769701 
L 437.589244 368.801257 
" clip-path="url(#pf61c69bca6)" style="fill: none; stroke-dasharray: 2.59,1.12; stroke-dashoffset: 0; stroke: #696969; stroke-opacity: 0.8; stroke-width: 0.7"/>
   </g>
   <g id="line2d_128">
    <path d="M 554.594154 388.769701 
L 431.62053 359.852493 
" clip-path="url(#pf61c69bca6)" style="fill: none; stroke-dasharray: 2.59,1.12; stroke-dashoffset: 0; stroke: #696969; stroke-opacity: 0.8; stroke-width: 0.7"/>
   </g>
   <g id="line2d_129">
    <path d="M 554.594154 388.769701 
L 425.168822 350.179585 
" clip-path="url(#pf61c69bca6)" style="fill: none; stroke-dasharray: 2.59,1.12; stroke-dashoffset: 0; stroke: #696969; stroke-opacity: 0.8; stroke-width: 0.7"/>
   </g>
   <g id="line2d_130">
    <path d="M 554.594154 388.769701 
L 418.219085 339.759995 
" clip-path="url(#pf61c69bca6)" style="fill: none; stroke-dasharray: 2.59,1.12; stroke-dashoffset: 0; stroke: #696969; stroke-opacity: 0.8; stroke-width: 0.7"/>
   </g>
   <g id="line2d_131">
    <path d="M 554.594154 388.769701 
L 410.755702 328.570305 
" clip-path="url(#pf61c69bca6)" style="fill: none; stroke-dasharray: 2.59,1.12; stroke-dashoffset: 0; stroke: #696969; stroke-opacity: 0.8; stroke-width: 0.7"/>
   </g>
   <g id="line2d_132">
    <path d="M 554.594154 388.769701 
L 402.765757 316.591153 
" clip-path="url(#pf61c69bca6)" style="fill: none; stroke-dasharray: 2.59,1.12; stroke-dashoffset: 0; stroke: #696969; stroke-opacity: 0.8; stroke-width: 0.7"/>
   </g>
   <g id="Poly3DCollection_4">
    <path d="M 554.594154 388.769701 
L 394.426227 304.087875 
L 394.426227 304.087875 
z
" clip-path="url(#pf61c69bca6)" style="fill: #2e5475; fill-opacity: 0.22"/>
    <path d="M 554.594154 388.769701 
L 402.765757 316.591153 
L 394.426227 304.087875 
z
" clip-path="url(#pf61c69bca6)" style="fill: #1d3549; fill-opacity: 0.22"/>
    <path d="M 554.594154 388.769701 
L 402.726675 315.327009 
L 394.426227 304.087875 
z
" clip-path="url(#pf61c69bca6)" style="fill: #1a3143; fill-opacity: 0.22"/>
    <path d="M 554.594154 388.769701 
L 410.755702 328.570305 
L 402.765757 316.591153 
z
" clip-path="url(#pf61c69bca6)" style="fill: #1d3549; fill-opacity: 0.22"/>
    <path d="M 554.594154 388.769701 
L 410.69341 326.319976 
L 402.726675 315.327009 
z
" clip-path="url(#pf61c69bca6)" style="fill: #1b3144; fill-opacity: 0.22"/>
    <path d="M 554.594154 388.769701 
L 418.219085 339.759995 
L 410.755702 328.570305 
z
" clip-path="url(#pf61c69bca6)" style="fill: #1d3549; fill-opacity: 0.22"/>
    <path d="M 554.594154 388.769701 
L 418.146359 336.807243 
L 410.69341 326.319976 
z
" clip-path="url(#pf61c69bca6)" style="fill: #1b3245; fill-opacity: 0.22"/>
    <path d="M 554.594154 388.769701 
L 425.168822 350.179585 
L 418.219085 339.759995 
z
" clip-path="url(#pf61c69bca6)" style="fill: #1d3549; fill-opacity: 0.22"/>
    <path d="M 554.594154 388.769701 
L 425.09493 346.784183 
L 418.146359 336.807243 
z
" clip-path="url(#pf61c69bca6)" style="fill: #1b3346; fill-opacity: 0.22"/>
    <path d="M 554.594154 388.769701 
L 431.62053 359.852493 
L 425.168822 350.179585 
z
" clip-path="url(#pf61c69bca6)" style="fill: #1d3549; fill-opacity: 0.22"/>
    <path d="M 554.594154 388.769701 
L 431.551841 356.251835 
L 425.09493 346.784183 
z
" clip-path="url(#pf61c69bca6)" style="fill: #1c3347; fill-opacity: 0.22"/>
    <path d="M 554.594154 388.769701 
L 437.589244 368.801257 
L 431.62053 359.852493 
z
" clip-path="url(#pf61c69bca6)" style="fill: #1d3549; fill-opacity: 0.22"/>
    <path d="M 554.594154 388.769701 
L 437.529775 365.212883 
L 431.551841 356.251835 
z
" clip-path="url(#pf61c69bca6)" style="fill: #1c3448; fill-opacity: 0.22"/>
    <path d="M 554.594154 388.769701 
L 443.088486 377.046152 
L 437.589244 368.801257 
z
" clip-path="url(#pf61c69bca6)" style="fill: #1d3549; fill-opacity: 0.22"/>
    <path d="M 394.426227 304.087875 
L 402.765757 316.591153 
L 394.426227 304.087875 
z
" clip-path="url(#pf61c69bca6)" style="fill: #1d364b; fill-opacity: 0.22"/>
    <path d="M 554.594154 388.769701 
L 443.040381 373.669987 
L 437.529775 365.212883 
z
" clip-path="url(#pf61c69bca6)" style="fill: #1c3448; fill-opacity: 0.22"/>
    <path d="M 554.594154 388.769701 
L 448.13263 384.608729 
L 443.088486 377.046152 
z
" clip-path="url(#pf61c69bca6)" style="fill: #1d3549; fill-opacity: 0.22"/>
    <path d="M 402.726675 315.327009 
L 402.765757 316.591153 
L 394.426227 304.087875 
z
" clip-path="url(#pf61c69bca6)" style="fill: #3e739f; fill-opacity: 0.22"/>
    <path d="M 554.594154 388.769701 
L 448.096579 381.629688 
L 443.040381 373.669987 
z
" clip-path="url(#pf61c69bca6)" style="fill: #1c3549; fill-opacity: 0.22"/>
    <path d="M 554.594154 388.769701 
L 452.579774 391.276235 
L 448.13263 384.608729 
z
" clip-path="url(#pf61c69bca6)" style="fill: #1d3549; fill-opacity: 0.22"/>
    <path d="M 554.594154 388.769701 
L 452.554969 388.843799 
L 448.096579 381.629688 
z
" clip-path="url(#pf61c69bca6)" style="fill: #1d354a; fill-opacity: 0.22"/>
    <path d="M 554.594154 388.769701 
L 456.607704 397.315224 
L 452.579774 391.276235 
z
" clip-path="url(#pf61c69bca6)" style="fill: #1d3549; fill-opacity: 0.22"/>
    <path d="M 402.726675 315.327009 
L 410.755702 328.570305 
L 402.765757 316.591153 
z
" clip-path="url(#pf61c69bca6)" style="fill: #3e739f; fill-opacity: 0.22"/>
    <path d="M 554.594154 388.769701 
L 456.592986 395.576058 
L 452.554969 388.843799 
z
" clip-path="url(#pf61c69bca6)" style="fill: #1d364a; fill-opacity: 0.22"/>
    <path d="M 554.594154 388.769701 
L 460.081876 402.523976 
L 456.607704 397.315224 
z
" clip-path="url(#pf61c69bca6)" style="fill: #1d3549; fill-opacity: 0.22"/>
    <path d="M 554.594154 388.769701 
L 460.075252 401.572162 
L 456.592986 395.576058 
z
" clip-path="url(#pf61c69bca6)" style="fill: #1d364b; fill-opacity: 0.22"/>
    <path d="M 410.69341 326.319976 
L 410.755702 328.570305 
L 402.726675 315.327009 
z
" clip-path="url(#pf61c69bca6)" style="fill: #3e739f; fill-opacity: 0.22"/>
    <path d="M 554.594154 388.769701 
L 463.396169 407.493023 
L 460.081876 402.523976 
z
" clip-path="url(#pf61c69bca6)" style="fill: #1d3549; fill-opacity: 0.22"/>
    <path d="M 554.594154 388.769701 
L 463.396169 407.49304 
L 460.075252 401.572162 
z
" clip-path="url(#pf61c69bca6)" style="fill: #1d364b; fill-opacity: 0.22"/>
    <path d="M 554.594154 388.769701 
L 463.396169 407.493023 
L 463.396169 407.49304 
z
" clip-path="url(#pf61c69bca6)" style="fill: #3b6e98; fill-opacity: 0.22"/>
    <path d="M 410.69341 326.319976 
L 418.219085 339.759995 
L 410.755702 328.570305 
z
" clip-path="url(#pf61c69bca6)" style="fill: #3e739f; fill-opacity: 0.22"/>
    <path d="M 418.146359 336.807243 
L 418.219085 339.759995 
L 410.69341 326.319976 
z
" clip-path="url(#pf61c69bca6)" style="fill: #3e739f; fill-opacity: 0.22"/>
    <path d="M 418.146359 336.807243 
L 425.168822 350.179585 
L 418.219085 339.759995 
z
" clip-path="url(#pf61c69bca6)" style="fill: #3e739f; fill-opacity: 0.22"/>
    <path d="M 425.09493 346.784183 
L 425.168822 350.179585 
L 418.146359 336.807243 
z
" clip-path="url(#pf61c69bca6)" style="fill: #3e739f; fill-opacity: 0.22"/>
    <path d="M 425.09493 346.784183 
L 431.62053 359.852493 
L 425.168822 350.179585 
z
" clip-path="url(#pf61c69bca6)" style="fill: #3e739f; fill-opacity: 0.22"/>
    <path d="M 431.551841 356.251835 
L 431.62053 359.852493 
L 425.09493 346.784183 
z
" clip-path="url(#pf61c69bca6)" style="fill: #3e739f; fill-opacity: 0.22"/>
    <path d="M 431.551841 356.251835 
L 437.589244 368.801257 
L 431.62053 359.852493 
z
" clip-path="url(#pf61c69bca6)" style="fill: #3e739f; fill-opacity: 0.22"/>
    <path d="M 437.529775 365.212883 
L 437.589244 368.801257 
L 431.551841 356.251835 
z
" clip-path="url(#pf61c69bca6)" style="fill: #3e739f; fill-opacity: 0.22"/>
    <path d="M 437.529775 365.212883 
L 443.088486 377.046152 
L 437.589244 368.801257 
z
" clip-path="url(#pf61c69bca6)" style="fill: #3e739f; fill-opacity: 0.22"/>
    <path d="M 443.040381 373.669987 
L 443.088486 377.046152 
L 437.529775 365.212883 
z
" clip-path="url(#pf61c69bca6)" style="fill: #3e739f; fill-opacity: 0.22"/>
    <path d="M 443.040381 373.669987 
L 448.13263 384.608729 
L 443.088486 377.046152 
z
" clip-path="url(#pf61c69bca6)" style="fill: #3e739f; fill-opacity: 0.22"/>
    <path d="M 448.096579 381.629688 
L 448.13263 384.608729 
L 443.040381 373.669987 
z
" clip-path="url(#pf61c69bca6)" style="fill: #3e739f; fill-opacity: 0.22"/>
    <path d="M 448.096579 381.629688 
L 452.579774 391.276235 
L 448.13263 384.608729 
z
" clip-path="url(#pf61c69bca6)" style="fill: #3e739f; fill-opacity: 0.22"/>
    <path d="M 452.554969 388.843799 
L 452.579774 391.276235 
L 448.096579 381.629688 
z
" clip-path="url(#pf61c69bca6)" style="fill: #3e739f; fill-opacity: 0.22"/>
    <path d="M 452.554969 388.843799 
L 456.607704 397.315224 
L 452.579774 391.276235 
z
" clip-path="url(#pf61c69bca6)" style="fill: #3e739f; fill-opacity: 0.22"/>
    <path d="M 456.592986 395.576058 
L 456.607704 397.315224 
L 452.554969 388.843799 
z
" clip-path="url(#pf61c69bca6)" style="fill: #3e739f; fill-opacity: 0.22"/>
    <path d="M 456.592986 395.576058 
L 460.081876 402.523976 
L 456.607704 397.315224 
z
" clip-path="url(#pf61c69bca6)" style="fill: #3e739f; fill-opacity: 0.22"/>
    <path d="M 460.075252 401.572162 
L 460.081876 402.523976 
L 456.592986 395.576058 
z
" clip-path="url(#pf61c69bca6)" style="fill: #3e739f; fill-opacity: 0.22"/>
    <path d="M 460.075252 401.572162 
L 463.396169 407.493023 
L 460.081876 402.523976 
z
" clip-path="url(#pf61c69bca6)" style="fill: #3e739f; fill-opacity: 0.22"/>
    <path d="M 463.396169 407.49304 
L 463.396169 407.493023 
L 460.075252 401.572162 
z
" clip-path="url(#pf61c69bca6)" style="fill: #1d364b; fill-opacity: 0.22"/>
   </g>
   <g id="text_60">
    <!-- (d) BRB-PWL -->
    <g transform="translate(433.142301 268.5216) scale(0.12 -0.12)">
     <defs>
      <path id="DejaVuSerif-64" d="M 3359 331 
L 3909 331 
L 3909 0 
L 2784 0 
L 2784 519 
Q 2616 206 2355 57 
Q 2094 -91 1709 -91 
Q 1097 -91 708 395 
Q 319 881 319 1663 
Q 319 2444 706 2928 
Q 1094 3413 1709 3413 
Q 2094 3413 2355 3264 
Q 2616 3116 2784 2803 
L 2784 4531 
L 2241 4531 
L 2241 4863 
L 3359 4863 
L 3359 331 
z
M 2784 1497 
L 2784 1825 
Q 2784 2422 2554 2737 
Q 2325 3053 1888 3053 
Q 1444 3053 1217 2703 
Q 991 2353 991 1663 
Q 991 975 1217 622 
Q 1444 269 1888 269 
Q 2325 269 2554 583 
Q 2784 897 2784 1497 
z
" transform="scale(0.015625)"/>
     </defs>
     <use xlink:href="#DejaVuSerif-28"/>
     <use xlink:href="#DejaVuSerif-64" x="39.013672"/>
     <use xlink:href="#DejaVuSerif-29" x="103.027344"/>
     <use xlink:href="#DejaVuSerif-20" x="142.041016"/>
     <use xlink:href="#DejaVuSerif-42" x="173.828125"/>
     <use xlink:href="#DejaVuSerif-52" x="247.314453"/>
     <use xlink:href="#DejaVuSerif-42" x="322.607422"/>
     <use xlink:href="#DejaVuSerif-2d" x="397.96875"/>
     <use xlink:href="#DejaVuSerif-50" x="431.757812"/>
     <use xlink:href="#DejaVuSerif-57" x="499.042969"/>
     <use xlink:href="#DejaVuSerif-4c" x="601.826172"/>
    </g>
   </g>
  </g>
 </g>
 <defs>
  <clipPath id="pd006b9129f">
   <rect x="7.2" y="7.2" width="201.6" height="201.6"/>
  </clipPath>
  <clipPath id="pbc46b690a5">
   <rect x="372.436364" y="7.2" width="201.6" height="201.6"/>
  </clipPath>
  <clipPath id="p32c828e0c9">
   <rect x="7.2" y="249.12" width="201.6" height="201.6"/>
  </clipPath>
  <clipPath id="pf61c69bca6">
   <rect x="372.436364" y="249.12" width="201.6" height="201.6"/>
  </clipPath>
 </defs>
</svg>
