<?xml version="1.0" encoding="utf-8" standalone="no"?>
<!DOCTYPE svg PUBLIC "-//W3C//DTD SVG 1.1//EN"
  "http://www.w3.org/Graphics/SVG/1.1/DTD/svg11.dtd">
<svg xmlns:xlink="http://www.w3.org/1999/xlink" width="705.456697pt" height="162.550916pt" viewBox="0 0 705.456697 162.550916" xmlns="http://www.w3.org/2000/svg" version="1.1">
 <metadata>
  <rdf:RDF xmlns:dc="http://purl.org/dc/elements/1.1/" xmlns:cc="http://creativecommons.org/ns#" xmlns:rdf="http://www.w3.org/1999/02/22-rdf-syntax-ns#">
   <cc:Work>
    <dc:type rdf:resource="http://purl.org/dc/dcmitype/StillImage"/>
    <dc:date>2026-05-19T17:24:59.231413</dc:date>
    <dc:format>image/svg+xml</dc:format>
    <dc:creator>
     <cc:Agent>
      <dc:title>Matplotlib v3.8.4, https://matplotlib.org/</dc:title>
     </cc:Agent>
    </dc:creator>
   </cc:Work>
  </rdf:RDF>
 </metadata>
 <defs>
  <style type="text/css">*{stroke-linejoin: round; stroke-linecap: butt}</style>
 </defs>
 <g id="figure_1">
  <g id="patch_1">
   <path d="M 0 162.550916 
L 705.456697 162.550916 
L 705.456697 0 
L 0 0 
L 0 162.550916 
z
" style="fill: none"/>
  </g>
  <g id="patch_2">
   <path d="M 24.902696 143.853061 
L 161.555757 143.853061 
L 161.555757 7.2 
L 24.902696 7.2 
L 24.902696 143.853061 
z
" style="fill: none"/>
  </g>
  <g id="pane3d_1">
   <g id="patch_3">
    <path d="M 156.104841 103.012962 
L 95.07589 76.974325 
L 95.07589 20.564939 
L 158.451976 43.21864 
" style="fill: none; opacity: 0"/>
   </g>
  </g>
  <g id="pane3d_2">
   <g id="patch_4">
    <path d="M 34.046939 103.012962 
L 95.07589 76.974325 
L 95.07589 20.564939 
L 31.699803 43.21864 
" style="fill: none; opacity: 0"/>
   </g>
  </g>
  <g id="pane3d_3">
   <g id="patch_5">
    <path d="M 95.07589 133.266759 
L 156.104841 103.012962 
L 95.07589 76.974325 
L 34.046939 103.012962 
" style="fill: none; opacity: 0"/>
   </g>
  </g>
  <g id="grid3d_1">
   <g id="Line3DCollection_1">
    <path d="M 99.252383 131.196351 
L 38.201609 101.240329 
L 36.02503 41.672593 
" style="fill: none; stroke: #b0b0b0; stroke-width: 0.8"/>
    <path d="M 117.812311 121.995665 
L 56.703203 93.346431 
L 55.267008 34.794573 
" style="fill: none; stroke: #b0b0b0; stroke-width: 0.8"/>
    <path d="M 135.541597 113.20675 
L 74.435912 85.780586 
L 73.680048 28.212855 
" style="fill: none; stroke: #b0b0b0; stroke-width: 0.8"/>
    <path d="M 152.494785 104.80257 
L 91.446689 78.522761 
L 91.316585 21.908698 
" style="fill: none; stroke: #b0b0b0; stroke-width: 0.8"/>
   </g>
  </g>
  <g id="grid3d_2">
   <g id="Line3DCollection_2">
    <path d="M 154.12675 41.672593 
L 151.95017 101.240329 
L 90.899396 131.196351 
" style="fill: none; stroke: #b0b0b0; stroke-width: 0.8"/>
    <path d="M 134.884771 34.794573 
L 133.448576 93.346431 
L 72.339469 121.995665 
" style="fill: none; stroke: #b0b0b0; stroke-width: 0.8"/>
    <path d="M 116.471731 28.212855 
L 115.715867 85.780586 
L 54.610182 113.20675 
" style="fill: none; stroke: #b0b0b0; stroke-width: 0.8"/>
    <path d="M 98.835194 21.908698 
L 98.70509 78.522761 
L 37.656994 104.80257 
" style="fill: none; stroke: #b0b0b0; stroke-width: 0.8"/>
   </g>
  </g>
  <g id="grid3d_3">
   <g id="Line3DCollection_3">
    <path d="M 34.001701 101.860512 
L 95.07589 75.884258 
L 156.150078 101.860512 
" style="fill: none; stroke: #b0b0b0; stroke-width: 0.8"/>
    <path d="M 33.224212 82.05364 
L 95.07589 57.167129 
L 156.927567 82.05364 
" style="fill: none; stroke: #b0b0b0; stroke-width: 0.8"/>
    <path d="M 32.426673 61.735974 
L 95.07589 38.001764 
L 157.725107 61.735974 
" style="fill: none; stroke: #b0b0b0; stroke-width: 0.8"/>
   </g>
  </g>
  <g id="axis3d_1">
   <g id="line2d_1">
    <path d="M 156.104841 103.012962 
L 95.07589 133.266759 
" style="fill: none; stroke: #000000; stroke-width: 0.8; stroke-linecap: square"/>
   </g>
   <g id="xtick_1">
    <g id="line2d_2">
     <path d="M 98.724988 130.937572 
L 100.309216 131.714912 
" style="fill: none; stroke: #000000; stroke-width: 0.8; stroke-linecap: square"/>
    </g>
    <g id="text_1">
     <!-- $\mathdefault{0}$ -->
     <g transform="translate(107.463966 153.189025) scale(0.1 -0.1)">
      <defs>
       <path id="TeXGyreTermesX-Regular-30" d="M 3046 2138 
C 3046 3450 2464 4352 1626 4352 
C 1274 4352 1005 4244 768 4020 
C 397 3661 154 2925 154 2176 
C 154 1479 365 730 666 372 
C 902 90 1229 -64 1600 -64 
C 1926 -64 2202 45 2432 269 
C 2803 621 3046 1364 3046 2138 
z
M 2432 2125 
C 2432 788 2150 103 1600 103 
C 1050 103 768 788 768 2119 
C 768 3476 1056 4186 1606 4186 
C 2144 4186 2432 3463 2432 2125 
z
" transform="scale(0.015625)"/>
      </defs>
      <use xlink:href="#TeXGyreTermesX-Regular-30" transform="scale(0.996264)"/>
     </g>
    </g>
   </g>
   <g id="xtick_2">
    <g id="line2d_3">
     <path d="M 117.285304 121.748593 
L 118.868317 122.490743 
" style="fill: none; stroke: #000000; stroke-width: 0.8; stroke-linecap: square"/>
    </g>
    <g id="text_2">
     <!-- $\mathdefault{1}$ -->
     <g transform="translate(125.897366 143.579744) scale(0.1 -0.1)">
      <defs>
       <path id="TeXGyreTermesX-Regular-31" d="M 2522 0 
L 2522 96 
C 2016 96 1914 160 1914 470 
L 1914 4327 
L 1862 4339 
L 710 3757 
L 710 3667 
C 787 3699 858 3725 883 3738 
C 998 3783 1107 3808 1171 3808 
C 1306 3808 1363 3711 1363 3505 
L 1363 592 
C 1363 379 1312 232 1210 173 
C 1114 116 1024 96 755 96 
L 755 0 
L 2522 0 
z
" transform="scale(0.015625)"/>
      </defs>
      <use xlink:href="#TeXGyreTermesX-Regular-31" transform="scale(0.996264)"/>
     </g>
    </g>
   </g>
   <g id="xtick_3">
    <g id="line2d_4">
     <path d="M 135.015473 112.970609 
L 136.595791 113.679906 
" style="fill: none; stroke: #000000; stroke-width: 0.8; stroke-linecap: square"/>
    </g>
    <g id="text_3">
     <!-- $\mathdefault{2}$ -->
     <g transform="translate(143.500574 134.403239) scale(0.1 -0.1)">
      <defs>
       <path id="TeXGyreTermesX-Regular-32" d="M 3040 875 
L 2957 907 
C 2720 544 2637 486 2349 486 
L 819 486 
L 1894 1609 
C 2464 2202 2714 2687 2714 3185 
C 2714 3823 2195 4313 1530 4313 
C 1178 4313 845 4173 608 3918 
C 403 3700 307 3496 198 3043 
L 333 3011 
C 589 3636 819 3840 1261 3840 
C 1798 3840 2163 3476 2163 2940 
C 2163 2443 1869 1850 1331 1282 
L 192 77 
L 192 0 
L 2688 0 
L 3040 875 
z
" transform="scale(0.015625)"/>
      </defs>
      <use xlink:href="#TeXGyreTermesX-Regular-32" transform="scale(0.996264)"/>
     </g>
    </g>
   </g>
   <g id="xtick_4">
    <g id="line2d_5">
     <path d="M 151.969971 104.57665 
L 153.546311 105.255228 
" style="fill: none; stroke: #000000; stroke-width: 0.8; stroke-linecap: square"/>
    </g>
    <g id="text_4">
     <!-- $\mathdefault{3}$ -->
     <g transform="translate(160.328438 125.630919) scale(0.1 -0.1)">
      <defs>
       <path id="TeXGyreTermesX-Regular-33" d="M 2765 1428 
C 2765 1754 2662 2055 2477 2253 
C 2349 2394 2227 2471 1946 2592 
C 2387 2893 2547 3130 2547 3476 
C 2547 3994 2138 4352 1549 4352 
C 1229 4352 947 4244 717 4039 
C 525 3866 429 3699 288 3315 
L 384 3290 
C 646 3757 934 3968 1338 3968 
C 1754 3968 2042 3687 2042 3284 
C 2042 3053 1946 2823 1786 2663 
C 1594 2471 1414 2375 979 2221 
L 979 2138 
C 1357 2138 1504 2125 1658 2068 
C 2054 1927 2304 1562 2304 1120 
C 2304 583 1939 167 1466 167 
C 1293 167 1165 212 928 365 
C 736 480 627 525 518 525 
C 371 525 275 436 275 301 
C 275 77 550 -64 998 -64 
C 1491 -64 1997 103 2298 365 
C 2598 628 2765 999 2765 1428 
z
" transform="scale(0.015625)"/>
      </defs>
      <use xlink:href="#TeXGyreTermesX-Regular-33" transform="scale(0.996264)"/>
     </g>
    </g>
   </g>
  </g>
  <g id="axis3d_2">
   <g id="line2d_6">
    <path d="M 34.046939 103.012962 
L 95.07589 133.266759 
" style="fill: none; stroke: #000000; stroke-width: 0.8; stroke-linecap: square"/>
   </g>
   <g id="xtick_5">
    <g id="line2d_7">
     <path d="M 91.426792 130.937572 
L 89.842563 131.714912 
" style="fill: none; stroke: #000000; stroke-width: 0.8; stroke-linecap: square"/>
    </g>
    <g id="text_5">
     <!-- $\mathdefault{0}$ -->
     <g transform="translate(77.706493 153.189025) scale(0.1 -0.1)">
      <use xlink:href="#TeXGyreTermesX-Regular-30" transform="scale(0.996264)"/>
     </g>
    </g>
   </g>
   <g id="xtick_6">
    <g id="line2d_8">
     <path d="M 72.866476 121.748593 
L 71.283462 122.490743 
" style="fill: none; stroke: #000000; stroke-width: 0.8; stroke-linecap: square"/>
    </g>
    <g id="text_6">
     <!-- $\mathdefault{1}$ -->
     <g transform="translate(59.273093 143.579744) scale(0.1 -0.1)">
      <use xlink:href="#TeXGyreTermesX-Regular-31" transform="scale(0.996264)"/>
     </g>
    </g>
   </g>
   <g id="xtick_7">
    <g id="line2d_9">
     <path d="M 55.136307 112.970609 
L 53.555988 113.679906 
" style="fill: none; stroke: #000000; stroke-width: 0.8; stroke-linecap: square"/>
    </g>
    <g id="text_7">
     <!-- $\mathdefault{2}$ -->
     <g transform="translate(41.669885 134.403239) scale(0.1 -0.1)">
      <use xlink:href="#TeXGyreTermesX-Regular-32" transform="scale(0.996264)"/>
     </g>
    </g>
   </g>
   <g id="xtick_8">
    <g id="line2d_10">
     <path d="M 38.181808 104.57665 
L 36.605468 105.255228 
" style="fill: none; stroke: #000000; stroke-width: 0.8; stroke-linecap: square"/>
    </g>
    <g id="text_8">
     <!-- $\mathdefault{3}$ -->
     <g transform="translate(24.842021 125.630919) scale(0.1 -0.1)">
      <use xlink:href="#TeXGyreTermesX-Regular-33" transform="scale(0.996264)"/>
     </g>
    </g>
   </g>
  </g>
  <g id="axis3d_3">
   <g id="line2d_11">
    <path d="M 34.046939 103.012962 
L 31.699803 43.21864 
" style="fill: none; stroke: #000000; stroke-width: 0.8; stroke-linecap: square"/>
   </g>
   <g id="xtick_9">
    <g id="line2d_12">
     <path d="M 34.526593 101.637263 
L 32.950027 102.307813 
" style="fill: none; stroke: #000000; stroke-width: 0.8; stroke-linecap: square"/>
    </g>
    <g id="text_9">
     <!-- $\mathdefault{0}$ -->
     <g transform="translate(11.774665 108.699855) scale(0.1 -0.1)">
      <use xlink:href="#TeXGyreTermesX-Regular-30" transform="scale(0.996264)"/>
     </g>
    </g>
   </g>
   <g id="xtick_10">
    <g id="line2d_13">
     <path d="M 33.756253 81.839569 
L 32.158189 82.482563 
" style="fill: none; stroke: #000000; stroke-width: 0.8; stroke-linecap: square"/>
    </g>
    <g id="text_10">
     <!-- $\mathdefault{20}$ -->
     <g transform="translate(8.255267 88.892983) scale(0.1 -0.1)">
      <use xlink:href="#TeXGyreTermesX-Regular-32" transform="scale(0.996264)"/>
      <use xlink:href="#TeXGyreTermesX-Regular-30" transform="translate(49.8132 0) scale(0.996264)"/>
     </g>
    </g>
   </g>
   <g id="xtick_11">
    <g id="line2d_14">
     <path d="M 32.96606 61.531631 
L 31.345905 62.145415 
" style="fill: none; stroke: #000000; stroke-width: 0.8; stroke-linecap: square"/>
    </g>
    <g id="text_11">
     <!-- $\mathdefault{40}$ -->
     <g transform="translate(7.2 68.575317) scale(0.1 -0.1)">
      <defs>
       <path id="TeXGyreTermesX-Regular-34" d="M 3021 1088 
L 3021 1497 
L 2368 1497 
L 2368 4352 
L 2086 4352 
L 77 1497 
L 77 1088 
L 1875 1088 
L 1875 32 
L 2368 32 
L 2368 1088 
L 3021 1088 
z
M 1869 1497 
L 333 1497 
L 1869 3698 
L 1869 1497 
z
" transform="scale(0.015625)"/>
      </defs>
      <use xlink:href="#TeXGyreTermesX-Regular-34" transform="scale(0.996264)"/>
      <use xlink:href="#TeXGyreTermesX-Regular-30" transform="translate(49.8132 0) scale(0.996264)"/>
     </g>
    </g>
   </g>
  </g>
  <g id="axes_1">
   <g id="line2d_15">
    <path d="M 95.07589 127.93469 
L 49.971683 89.954623 
L 95.07589 24.441393 
L 95.07589 127.93469 
" clip-path="url(#p80cf22b48d)" style="fill: none; stroke: #000000; stroke-width: 1.5; stroke-linecap: square"/>
   </g>
   <g id="Poly3DCollection_1">
    <path d="M 95.07589 127.93469 
L 95.07589 24.441393 
L 49.971683 89.954623 
z
" clip-path="url(#p80cf22b48d)" style="fill: #007200; fill-opacity: 0.4"/>
   </g>
   <g id="text_12">
    <!-- (a) CE-L -->
    <g transform="translate(75.386135 18.418286) scale(0.1 -0.1)">
     <defs>
      <path id="TeXGyreTermesX-Regular-28" d="M 1946 -1030 
C 1434 -627 1254 -403 1082 77 
C 928 506 858 992 858 1632 
C 858 2304 941 2829 1114 3226 
C 1293 3622 1485 3853 1946 4224 
L 1888 4326 
C 1414 4019 1222 3853 986 3558 
C 531 3002 307 2362 307 1613 
C 307 800 544 173 1107 -480 
C 1370 -787 1536 -928 1869 -1133 
L 1946 -1030 
z
" transform="scale(0.015625)"/>
      <path id="TeXGyreTermesX-Regular-61" d="M 2829 256 
L 2829 423 
C 2720 333 2643 301 2547 301 
C 2400 301 2355 390 2355 672 
L 2355 1920 
C 2355 2246 2323 2426 2234 2573 
C 2099 2816 1824 2944 1434 2944 
C 1107 2944 800 2854 621 2707 
C 461 2573 358 2387 358 2227 
C 358 2080 480 1952 634 1952 
C 787 1952 922 2080 922 2221 
C 922 2246 915 2278 909 2323 
C 896 2381 890 2432 890 2477 
C 890 2650 1094 2790 1350 2790 
C 1664 2790 1837 2605 1837 2259 
L 1837 1869 
C 851 1472 742 1421 467 1178 
C 326 1050 237 832 237 621 
C 237 218 512 -64 909 -64 
C 1190 -64 1453 70 1843 403 
C 1875 64 1990 -64 2253 -64 
C 2470 -64 2605 13 2829 256 
z
M 1837 783 
C 1837 584 1805 526 1670 443 
C 1517 352 1338 301 1203 301 
C 979 301 800 520 800 796 
L 800 822 
C 800 1201 1062 1433 1837 1715 
L 1837 783 
z
" transform="scale(0.015625)"/>
      <path id="TeXGyreTermesX-Regular-29" d="M 1824 1581 
C 1824 2400 1587 3021 1024 3674 
C 762 3981 595 4122 262 4326 
L 186 4224 
C 698 3821 870 3597 1050 3117 
C 1203 2688 1274 2202 1274 1562 
C 1274 896 1190 365 1018 -26 
C 838 -429 646 -659 186 -1030 
L 243 -1133 
C 717 -826 909 -659 1146 -365 
C 1600 192 1824 832 1824 1581 
z
" transform="scale(0.015625)"/>
      <path id="TeXGyreTermesX-Regular-43" d="M 4051 749 
L 3936 864 
C 3462 410 3040 218 2509 218 
C 2125 218 1779 333 1510 557 
C 1133 871 922 1447 922 2189 
C 922 3348 1517 4096 2445 4096 
C 2816 4096 3142 3962 3398 3706 
C 3603 3501 3699 3322 3821 2906 
L 3968 2906 
L 3910 4352 
L 3776 4352 
C 3738 4218 3635 4141 3514 4141 
C 3450 4141 3360 4160 3258 4199 
C 2944 4301 2630 4352 2317 4352 
C 1824 4352 1318 4167 928 3847 
C 442 3444 179 2836 179 2106 
C 179 807 1030 -64 2304 -64 
C 3027 -64 3661 231 4051 749 
z
" transform="scale(0.015625)"/>
      <path id="TeXGyreTermesX-Regular-45" d="M 3821 1078 
L 3642 1078 
C 3322 389 3046 237 2131 237 
L 1958 237 
C 1651 237 1395 262 1338 307 
C 1299 334 1286 391 1286 514 
L 1286 2106 
L 2272 2106 
C 2797 2106 2893 2020 2976 1472 
L 3123 1472 
L 3123 2957 
L 2976 2957 
C 2893 2448 2790 2368 2272 2368 
L 1286 2368 
L 1286 3766 
C 1286 3943 1325 3981 1498 3981 
L 2362 3981 
C 3085 3981 3226 3886 3334 3314 
L 3494 3314 
L 3475 4224 
L 77 4224 
L 77 4102 
C 550 4064 634 3981 634 3525 
L 634 679 
C 634 223 544 134 77 134 
L 77 0 
L 3533 0 
L 3821 1078 
z
" transform="scale(0.015625)"/>
      <path id="TeXGyreTermesX-Regular-2d" d="M 1824 1216 
L 1824 1619 
L 250 1619 
L 250 1216 
L 1824 1216 
z
" transform="scale(0.015625)"/>
      <path id="TeXGyreTermesX-Regular-4c" d="M 3827 1114 
L 3667 1114 
C 3565 890 3482 742 3392 640 
C 3168 371 2816 250 2266 250 
L 1837 250 
C 1370 250 1286 288 1286 513 
L 1286 3550 
C 1286 4007 1376 4096 1882 4096 
L 1882 4237 
L 77 4237 
L 77 4115 
C 550 4077 634 3993 634 3536 
L 634 681 
C 634 223 544 134 77 134 
L 77 0 
L 3520 0 
L 3827 1114 
z
" transform="scale(0.015625)"/>
     </defs>
     <use xlink:href="#TeXGyreTermesX-Regular-28" transform="scale(0.996264)"/>
     <use xlink:href="#TeXGyreTermesX-Regular-61" transform="translate(33.17561 0) scale(0.996264)"/>
     <use xlink:href="#TeXGyreTermesX-Regular-29" transform="translate(77.409756 0) scale(0.996264)"/>
     <use xlink:href="#TeXGyreTermesX-Regular-43" transform="translate(135.491966 0) scale(0.996264)"/>
     <use xlink:href="#TeXGyreTermesX-Regular-45" transform="translate(201.942757 0) scale(0.996264)"/>
     <use xlink:href="#TeXGyreTermesX-Regular-2d" transform="translate(262.814494 0) scale(0.996264)"/>
     <use xlink:href="#TeXGyreTermesX-Regular-4c" transform="translate(295.990104 0) scale(0.996264)"/>
    </g>
   </g>
  </g>
  <g id="patch_6">
   <path d="M 202.551676 143.853061 
L 339.204737 143.853061 
L 339.204737 7.2 
L 202.551676 7.2 
L 202.551676 143.853061 
z
" style="fill: none"/>
  </g>
  <g id="pane3d_4">
   <g id="patch_7">
    <path d="M 333.75382 103.012962 
L 272.724869 76.974325 
L 272.724869 20.564939 
L 336.100956 43.21864 
" style="fill: none; opacity: 0"/>
   </g>
  </g>
  <g id="pane3d_5">
   <g id="patch_8">
    <path d="M 211.695918 103.012962 
L 272.724869 76.974325 
L 272.724869 20.564939 
L 209.348782 43.21864 
" style="fill: none; opacity: 0"/>
   </g>
  </g>
  <g id="pane3d_6">
   <g id="patch_9">
    <path d="M 272.724869 133.266759 
L 333.75382 103.012962 
L 272.724869 76.974325 
L 211.695918 103.012962 
" style="fill: none; opacity: 0"/>
   </g>
  </g>
  <g id="grid3d_4">
   <g id="Line3DCollection_4">
    <path d="M 276.901363 131.196351 
L 215.850589 101.240329 
L 213.674009 41.672593 
" style="fill: none; stroke: #b0b0b0; stroke-width: 0.8"/>
    <path d="M 295.46129 121.995665 
L 234.352183 93.346431 
L 232.915988 34.794573 
" style="fill: none; stroke: #b0b0b0; stroke-width: 0.8"/>
    <path d="M 313.190577 113.20675 
L 252.084892 85.780586 
L 251.329028 28.212855 
" style="fill: none; stroke: #b0b0b0; stroke-width: 0.8"/>
    <path d="M 330.143765 104.80257 
L 269.095669 78.522761 
L 268.965565 21.908698 
" style="fill: none; stroke: #b0b0b0; stroke-width: 0.8"/>
   </g>
  </g>
  <g id="grid3d_5">
   <g id="Line3DCollection_5">
    <path d="M 331.775729 41.672593 
L 329.59915 101.240329 
L 268.548375 131.196351 
" style="fill: none; stroke: #b0b0b0; stroke-width: 0.8"/>
    <path d="M 312.53375 34.794573 
L 311.097555 93.346431 
L 249.988448 121.995665 
" style="fill: none; stroke: #b0b0b0; stroke-width: 0.8"/>
    <path d="M 294.120711 28.212855 
L 293.364847 85.780586 
L 232.259162 113.20675 
" style="fill: none; stroke: #b0b0b0; stroke-width: 0.8"/>
    <path d="M 276.484174 21.908698 
L 276.35407 78.522761 
L 215.305974 104.80257 
" style="fill: none; stroke: #b0b0b0; stroke-width: 0.8"/>
   </g>
  </g>
  <g id="grid3d_6">
   <g id="Line3DCollection_6">
    <path d="M 211.65068 101.860512 
L 272.724869 75.884258 
L 333.799058 101.860512 
" style="fill: none; stroke: #b0b0b0; stroke-width: 0.8"/>
    <path d="M 210.813766 80.539751 
L 272.724869 55.737896 
L 334.635972 80.539751 
" style="fill: none; stroke: #b0b0b0; stroke-width: 0.8"/>
    <path d="M 209.953596 58.626544 
L 272.724869 35.071755 
L 335.496142 58.626544 
" style="fill: none; stroke: #b0b0b0; stroke-width: 0.8"/>
   </g>
  </g>
  <g id="axis3d_4">
   <g id="line2d_16">
    <path d="M 333.75382 103.012962 
L 272.724869 133.266759 
" style="fill: none; stroke: #000000; stroke-width: 0.8; stroke-linecap: square"/>
   </g>
   <g id="xtick_12">
    <g id="line2d_17">
     <path d="M 276.373967 130.937572 
L 277.958196 131.714912 
" style="fill: none; stroke: #000000; stroke-width: 0.8; stroke-linecap: square"/>
    </g>
    <g id="text_13">
     <!-- $\mathdefault{0}$ -->
     <g transform="translate(285.112946 153.189025) scale(0.1 -0.1)">
      <use xlink:href="#TeXGyreTermesX-Regular-30" transform="scale(0.996264)"/>
     </g>
    </g>
   </g>
   <g id="xtick_13">
    <g id="line2d_18">
     <path d="M 294.934283 121.748593 
L 296.517297 122.490743 
" style="fill: none; stroke: #000000; stroke-width: 0.8; stroke-linecap: square"/>
    </g>
    <g id="text_14">
     <!-- $\mathdefault{1}$ -->
     <g transform="translate(303.546346 143.579744) scale(0.1 -0.1)">
      <use xlink:href="#TeXGyreTermesX-Regular-31" transform="scale(0.996264)"/>
     </g>
    </g>
   </g>
   <g id="xtick_14">
    <g id="line2d_19">
     <path d="M 312.664452 112.970609 
L 314.244771 113.679906 
" style="fill: none; stroke: #000000; stroke-width: 0.8; stroke-linecap: square"/>
    </g>
    <g id="text_15">
     <!-- $\mathdefault{2}$ -->
     <g transform="translate(321.149553 134.403239) scale(0.1 -0.1)">
      <use xlink:href="#TeXGyreTermesX-Regular-32" transform="scale(0.996264)"/>
     </g>
    </g>
   </g>
   <g id="xtick_15">
    <g id="line2d_20">
     <path d="M 329.618951 104.57665 
L 331.195291 105.255228 
" style="fill: none; stroke: #000000; stroke-width: 0.8; stroke-linecap: square"/>
    </g>
    <g id="text_16">
     <!-- $\mathdefault{3}$ -->
     <g transform="translate(337.977417 125.630919) scale(0.1 -0.1)">
      <use xlink:href="#TeXGyreTermesX-Regular-33" transform="scale(0.996264)"/>
     </g>
    </g>
   </g>
  </g>
  <g id="axis3d_5">
   <g id="line2d_21">
    <path d="M 211.695918 103.012962 
L 272.724869 133.266759 
" style="fill: none; stroke: #000000; stroke-width: 0.8; stroke-linecap: square"/>
   </g>
   <g id="xtick_16">
    <g id="line2d_22">
     <path d="M 269.075771 130.937572 
L 267.491543 131.714912 
" style="fill: none; stroke: #000000; stroke-width: 0.8; stroke-linecap: square"/>
    </g>
    <g id="text_17">
     <!-- $\mathdefault{0}$ -->
     <g transform="translate(255.355472 153.189025) scale(0.1 -0.1)">
      <use xlink:href="#TeXGyreTermesX-Regular-30" transform="scale(0.996264)"/>
     </g>
    </g>
   </g>
   <g id="xtick_17">
    <g id="line2d_23">
     <path d="M 250.515455 121.748593 
L 248.932442 122.490743 
" style="fill: none; stroke: #000000; stroke-width: 0.8; stroke-linecap: square"/>
    </g>
    <g id="text_18">
     <!-- $\mathdefault{1}$ -->
     <g transform="translate(236.922072 143.579744) scale(0.1 -0.1)">
      <use xlink:href="#TeXGyreTermesX-Regular-31" transform="scale(0.996264)"/>
     </g>
    </g>
   </g>
   <g id="xtick_18">
    <g id="line2d_24">
     <path d="M 232.785286 112.970609 
L 231.204967 113.679906 
" style="fill: none; stroke: #000000; stroke-width: 0.8; stroke-linecap: square"/>
    </g>
    <g id="text_19">
     <!-- $\mathdefault{2}$ -->
     <g transform="translate(219.318865 134.403239) scale(0.1 -0.1)">
      <use xlink:href="#TeXGyreTermesX-Regular-32" transform="scale(0.996264)"/>
     </g>
    </g>
   </g>
   <g id="xtick_19">
    <g id="line2d_25">
     <path d="M 215.830788 104.57665 
L 214.254448 105.255228 
" style="fill: none; stroke: #000000; stroke-width: 0.8; stroke-linecap: square"/>
    </g>
    <g id="text_20">
     <!-- $\mathdefault{3}$ -->
     <g transform="translate(202.491001 125.630919) scale(0.1 -0.1)">
      <use xlink:href="#TeXGyreTermesX-Regular-33" transform="scale(0.996264)"/>
     </g>
    </g>
   </g>
  </g>
  <g id="axis3d_6">
   <g id="line2d_26">
    <path d="M 211.695918 103.012962 
L 209.348782 43.21864 
" style="fill: none; stroke: #000000; stroke-width: 0.8; stroke-linecap: square"/>
   </g>
   <g id="xtick_20">
    <g id="line2d_27">
     <path d="M 212.175572 101.637263 
L 210.599007 102.307813 
" style="fill: none; stroke: #000000; stroke-width: 0.8; stroke-linecap: square"/>
    </g>
    <g id="text_21">
     <!-- $\mathdefault{0}$ -->
     <g transform="translate(189.423645 108.699855) scale(0.1 -0.1)">
      <use xlink:href="#TeXGyreTermesX-Regular-30" transform="scale(0.996264)"/>
     </g>
    </g>
   </g>
   <g id="xtick_21">
    <g id="line2d_28">
     <path d="M 211.346354 80.326393 
L 209.746645 80.967244 
" style="fill: none; stroke: #000000; stroke-width: 0.8; stroke-linecap: square"/>
    </g>
    <g id="text_22">
     <!-- $\mathdefault{20}$ -->
     <g transform="translate(185.825618 87.379093) scale(0.1 -0.1)">
      <use xlink:href="#TeXGyreTermesX-Regular-32" transform="scale(0.996264)"/>
      <use xlink:href="#TeXGyreTermesX-Regular-30" transform="translate(49.8132 0) scale(0.996264)"/>
     </g>
    </g>
   </g>
   <g id="xtick_22">
    <g id="line2d_29">
     <path d="M 210.494109 58.423717 
L 208.87057 59.032947 
" style="fill: none; stroke: #000000; stroke-width: 0.8; stroke-linecap: square"/>
    </g>
    <g id="text_23">
     <!-- $\mathdefault{40}$ -->
     <g transform="translate(184.687481 65.465886) scale(0.1 -0.1)">
      <use xlink:href="#TeXGyreTermesX-Regular-34" transform="scale(0.996264)"/>
      <use xlink:href="#TeXGyreTermesX-Regular-30" transform="translate(49.8132 0) scale(0.996264)"/>
     </g>
    </g>
   </g>
  </g>
  <g id="axes_2">
   <g id="line2d_30">
    <path d="M 272.724869 127.93469 
L 227.606354 89.457247 
L 272.724869 24.441393 
L 272.724869 127.93469 
" clip-path="url(#p7797367d1b)" style="fill: none; stroke: #000000; stroke-width: 1.5; stroke-linecap: square"/>
   </g>
   <g id="Poly3DCollection_2">
    <path d="M 272.724869 127.93469 
L 272.724869 24.441393 
L 227.606354 89.457247 
z
" clip-path="url(#p7797367d1b)" style="fill: #e3e300; fill-opacity: 0.4"/>
   </g>
   <g id="text_24">
    <!-- (b) AE-L -->
    <g transform="translate(252.482187 18.418286) scale(0.1 -0.1)">
     <defs>
      <path id="TeXGyreTermesX-Regular-62" d="M 2995 1555 
C 2995 2342 2509 2944 1869 2944 
C 1478 2944 1107 2714 979 2400 
L 979 4364 
L 947 4377 
C 678 4281 506 4230 205 4147 
L 19 4096 
L 19 3994 
C 58 4000 83 4000 128 4000 
C 384 4000 442 3942 442 3673 
L 442 347 
C 442 147 986 -64 1498 -64 
C 2342 -64 2995 640 2995 1555 
z
M 2432 1261 
C 2432 550 2125 141 1600 141 
C 1267 141 979 288 979 448 
L 979 2061 
C 979 2310 1280 2541 1613 2541 
C 2112 2541 2432 2042 2432 1261 
z
" transform="scale(0.015625)"/>
      <path id="TeXGyreTermesX-Regular-41" d="M 4518 0 
L 4518 128 
C 4230 128 4166 192 3942 667 
L 2349 4320 
L 2221 4320 
L 890 1163 
C 480 224 403 128 96 128 
L 96 0 
L 1363 0 
L 1363 128 
C 1056 128 928 212 928 393 
C 928 470 947 560 979 645 
L 1274 1401 
L 2950 1401 
L 3213 781 
C 3290 600 3334 438 3334 341 
C 3334 283 3296 212 3245 186 
C 3168 140 3117 128 2886 128 
L 2886 0 
L 4518 0 
z
M 2861 1664 
L 1382 1664 
L 2118 3416 
L 2861 1664 
z
" transform="scale(0.015625)"/>
     </defs>
     <use xlink:href="#TeXGyreTermesX-Regular-28" transform="scale(0.996264)"/>
     <use xlink:href="#TeXGyreTermesX-Regular-62" transform="translate(33.17561 0) scale(0.996264)"/>
     <use xlink:href="#TeXGyreTermesX-Regular-29" transform="translate(82.98881 0) scale(0.996264)"/>
     <use xlink:href="#TeXGyreTermesX-Regular-41" transform="translate(141.07102 0) scale(0.996264)"/>
     <use xlink:href="#TeXGyreTermesX-Regular-45" transform="translate(213.001294 0) scale(0.996264)"/>
     <use xlink:href="#TeXGyreTermesX-Regular-2d" transform="translate(273.873031 0) scale(0.996264)"/>
     <use xlink:href="#TeXGyreTermesX-Regular-4c" transform="translate(307.048641 0) scale(0.996264)"/>
    </g>
   </g>
  </g>
  <g id="patch_10">
   <path d="M 380.200655 143.853061 
L 516.853716 143.853061 
L 516.853716 7.2 
L 380.200655 7.2 
L 380.200655 143.853061 
z
" style="fill: none"/>
  </g>
  <g id="pane3d_7">
   <g id="patch_11">
    <path d="M 511.4028 103.012962 
L 450.373849 76.974325 
L 450.373849 20.564939 
L 513.749936 43.21864 
" style="fill: none; opacity: 0"/>
   </g>
  </g>
  <g id="pane3d_8">
   <g id="patch_12">
    <path d="M 389.344898 103.012962 
L 450.373849 76.974325 
L 450.373849 20.564939 
L 386.997762 43.21864 
" style="fill: none; opacity: 0"/>
   </g>
  </g>
  <g id="pane3d_9">
   <g id="patch_13">
    <path d="M 450.373849 133.266759 
L 511.4028 103.012962 
L 450.373849 76.974325 
L 389.344898 103.012962 
" style="fill: none; opacity: 0"/>
   </g>
  </g>
  <g id="grid3d_7">
   <g id="Line3DCollection_7">
    <path d="M 454.550343 131.196351 
L 393.499568 101.240329 
L 391.322989 41.672593 
" style="fill: none; stroke: #b0b0b0; stroke-width: 0.8"/>
    <path d="M 473.11027 121.995665 
L 412.001163 93.346431 
L 410.564968 34.794573 
" style="fill: none; stroke: #b0b0b0; stroke-width: 0.8"/>
    <path d="M 490.839556 113.20675 
L 429.733871 85.780586 
L 428.978007 28.212855 
" style="fill: none; stroke: #b0b0b0; stroke-width: 0.8"/>
    <path d="M 507.792744 104.80257 
L 446.744648 78.522761 
L 446.614544 21.908698 
" style="fill: none; stroke: #b0b0b0; stroke-width: 0.8"/>
   </g>
  </g>
  <g id="grid3d_8">
   <g id="Line3DCollection_8">
    <path d="M 509.424709 41.672593 
L 507.248129 101.240329 
L 446.197355 131.196351 
" style="fill: none; stroke: #b0b0b0; stroke-width: 0.8"/>
    <path d="M 490.18273 34.794573 
L 488.746535 93.346431 
L 427.637428 121.995665 
" style="fill: none; stroke: #b0b0b0; stroke-width: 0.8"/>
    <path d="M 471.76969 28.212855 
L 471.013826 85.780586 
L 409.908141 113.20675 
" style="fill: none; stroke: #b0b0b0; stroke-width: 0.8"/>
    <path d="M 454.133153 21.908698 
L 454.003049 78.522761 
L 392.954953 104.80257 
" style="fill: none; stroke: #b0b0b0; stroke-width: 0.8"/>
   </g>
  </g>
  <g id="grid3d_9">
   <g id="Line3DCollection_9">
    <path d="M 389.29966 101.860512 
L 450.373849 75.884258 
L 511.448038 101.860512 
" style="fill: none; stroke: #b0b0b0; stroke-width: 0.8"/>
    <path d="M 388.462746 80.539751 
L 450.373849 55.737896 
L 512.284952 80.539751 
" style="fill: none; stroke: #b0b0b0; stroke-width: 0.8"/>
    <path d="M 387.602576 58.626544 
L 450.373849 35.071755 
L 513.145122 58.626544 
" style="fill: none; stroke: #b0b0b0; stroke-width: 0.8"/>
   </g>
  </g>
  <g id="axis3d_7">
   <g id="line2d_31">
    <path d="M 511.4028 103.012962 
L 450.373849 133.266759 
" style="fill: none; stroke: #000000; stroke-width: 0.8; stroke-linecap: square"/>
   </g>
   <g id="xtick_23">
    <g id="line2d_32">
     <path d="M 454.022947 130.937572 
L 455.607175 131.714912 
" style="fill: none; stroke: #000000; stroke-width: 0.8; stroke-linecap: square"/>
    </g>
    <g id="text_25">
     <!-- $\mathdefault{0}$ -->
     <g transform="translate(462.761926 153.189025) scale(0.1 -0.1)">
      <use xlink:href="#TeXGyreTermesX-Regular-30" transform="scale(0.996264)"/>
     </g>
    </g>
   </g>
   <g id="xtick_24">
    <g id="line2d_33">
     <path d="M 472.583263 121.748593 
L 474.166276 122.490743 
" style="fill: none; stroke: #000000; stroke-width: 0.8; stroke-linecap: square"/>
    </g>
    <g id="text_26">
     <!-- $\mathdefault{1}$ -->
     <g transform="translate(481.195326 143.579744) scale(0.1 -0.1)">
      <use xlink:href="#TeXGyreTermesX-Regular-31" transform="scale(0.996264)"/>
     </g>
    </g>
   </g>
   <g id="xtick_25">
    <g id="line2d_34">
     <path d="M 490.313432 112.970609 
L 491.893751 113.679906 
" style="fill: none; stroke: #000000; stroke-width: 0.8; stroke-linecap: square"/>
    </g>
    <g id="text_27">
     <!-- $\mathdefault{2}$ -->
     <g transform="translate(498.798533 134.403239) scale(0.1 -0.1)">
      <use xlink:href="#TeXGyreTermesX-Regular-32" transform="scale(0.996264)"/>
     </g>
    </g>
   </g>
   <g id="xtick_26">
    <g id="line2d_35">
     <path d="M 507.26793 104.57665 
L 508.84427 105.255228 
" style="fill: none; stroke: #000000; stroke-width: 0.8; stroke-linecap: square"/>
    </g>
    <g id="text_28">
     <!-- $\mathdefault{3}$ -->
     <g transform="translate(515.626397 125.630919) scale(0.1 -0.1)">
      <use xlink:href="#TeXGyreTermesX-Regular-33" transform="scale(0.996264)"/>
     </g>
    </g>
   </g>
  </g>
  <g id="axis3d_8">
   <g id="line2d_36">
    <path d="M 389.344898 103.012962 
L 450.373849 133.266759 
" style="fill: none; stroke: #000000; stroke-width: 0.8; stroke-linecap: square"/>
   </g>
   <g id="xtick_27">
    <g id="line2d_37">
     <path d="M 446.724751 130.937572 
L 445.140523 131.714912 
" style="fill: none; stroke: #000000; stroke-width: 0.8; stroke-linecap: square"/>
    </g>
    <g id="text_29">
     <!-- $\mathdefault{0}$ -->
     <g transform="translate(433.004452 153.189025) scale(0.1 -0.1)">
      <use xlink:href="#TeXGyreTermesX-Regular-30" transform="scale(0.996264)"/>
     </g>
    </g>
   </g>
   <g id="xtick_28">
    <g id="line2d_38">
     <path d="M 428.164435 121.748593 
L 426.581421 122.490743 
" style="fill: none; stroke: #000000; stroke-width: 0.8; stroke-linecap: square"/>
    </g>
    <g id="text_30">
     <!-- $\mathdefault{1}$ -->
     <g transform="translate(414.571052 143.579744) scale(0.1 -0.1)">
      <use xlink:href="#TeXGyreTermesX-Regular-31" transform="scale(0.996264)"/>
     </g>
    </g>
   </g>
   <g id="xtick_29">
    <g id="line2d_39">
     <path d="M 410.434266 112.970609 
L 408.853947 113.679906 
" style="fill: none; stroke: #000000; stroke-width: 0.8; stroke-linecap: square"/>
    </g>
    <g id="text_31">
     <!-- $\mathdefault{2}$ -->
     <g transform="translate(396.967845 134.403239) scale(0.1 -0.1)">
      <use xlink:href="#TeXGyreTermesX-Regular-32" transform="scale(0.996264)"/>
     </g>
    </g>
   </g>
   <g id="xtick_30">
    <g id="line2d_40">
     <path d="M 393.479767 104.57665 
L 391.903427 105.255228 
" style="fill: none; stroke: #000000; stroke-width: 0.8; stroke-linecap: square"/>
    </g>
    <g id="text_32">
     <!-- $\mathdefault{3}$ -->
     <g transform="translate(380.139981 125.630919) scale(0.1 -0.1)">
      <use xlink:href="#TeXGyreTermesX-Regular-33" transform="scale(0.996264)"/>
     </g>
    </g>
   </g>
  </g>
  <g id="axis3d_9">
   <g id="line2d_41">
    <path d="M 389.344898 103.012962 
L 386.997762 43.21864 
" style="fill: none; stroke: #000000; stroke-width: 0.8; stroke-linecap: square"/>
   </g>
   <g id="xtick_31">
    <g id="line2d_42">
     <path d="M 389.824552 101.637263 
L 388.247986 102.307813 
" style="fill: none; stroke: #000000; stroke-width: 0.8; stroke-linecap: square"/>
    </g>
    <g id="text_33">
     <!-- $\mathdefault{0}$ -->
     <g transform="translate(367.072624 108.699855) scale(0.1 -0.1)">
      <use xlink:href="#TeXGyreTermesX-Regular-30" transform="scale(0.996264)"/>
     </g>
    </g>
   </g>
   <g id="xtick_32">
    <g id="line2d_43">
     <path d="M 388.995334 80.326393 
L 387.395625 80.967244 
" style="fill: none; stroke: #000000; stroke-width: 0.8; stroke-linecap: square"/>
    </g>
    <g id="text_34">
     <!-- $\mathdefault{20}$ -->
     <g transform="translate(363.474598 87.379093) scale(0.1 -0.1)">
      <use xlink:href="#TeXGyreTermesX-Regular-32" transform="scale(0.996264)"/>
      <use xlink:href="#TeXGyreTermesX-Regular-30" transform="translate(49.8132 0) scale(0.996264)"/>
     </g>
    </g>
   </g>
   <g id="xtick_33">
    <g id="line2d_44">
     <path d="M 388.143089 58.423717 
L 386.519549 59.032947 
" style="fill: none; stroke: #000000; stroke-width: 0.8; stroke-linecap: square"/>
    </g>
    <g id="text_35">
     <!-- $\mathdefault{40}$ -->
     <g transform="translate(362.33646 65.465886) scale(0.1 -0.1)">
      <use xlink:href="#TeXGyreTermesX-Regular-34" transform="scale(0.996264)"/>
      <use xlink:href="#TeXGyreTermesX-Regular-30" transform="translate(49.8132 0) scale(0.996264)"/>
     </g>
    </g>
   </g>
  </g>
  <g id="axes_3">
   <g id="line2d_45">
    <path d="M 405.255334 89.457258 
L 407.403135 85.725235 
L 409.660318 81.948251 
L 412.283074 77.710038 
L 415.184321 73.170811 
L 418.480298 68.164615 
L 422.078334 62.847476 
L 425.987475 57.215084 
L 430.216027 51.265548 
L 434.773063 44.996929 
L 439.667776 38.408294 
L 444.907268 31.502222 
L 450.373849 24.441393 
" clip-path="url(#p93c0651960)" style="fill: none; stroke: #000000; stroke-width: 1.5; stroke-linecap: square"/>
   </g>
   <g id="line2d_46">
    <path d="M 450.373849 127.93469 
L 405.255334 89.457258 
" clip-path="url(#p93c0651960)" style="fill: none; stroke: #000000; stroke-width: 1.5; stroke-linecap: square"/>
   </g>
   <g id="line2d_47">
    <path d="M 450.373849 127.93469 
L 450.373849 24.441393 
" clip-path="url(#p93c0651960)" style="fill: none; stroke: #000000; stroke-width: 1.5; stroke-linecap: square"/>
   </g>
   <g id="line2d_48">
    <path d="M 450.373849 127.93469 
L 407.403135 85.725235 
" clip-path="url(#p93c0651960)" style="fill: none; stroke: #0000ff; stroke-opacity: 0.8; stroke-width: 0.7; stroke-linecap: square"/>
   </g>
   <g id="line2d_49">
    <path d="M 450.373849 127.93469 
L 409.660318 81.948251 
" clip-path="url(#p93c0651960)" style="fill: none; stroke: #0000ff; stroke-opacity: 0.8; stroke-width: 0.7; stroke-linecap: square"/>
   </g>
   <g id="line2d_50">
    <path d="M 450.373849 127.93469 
L 412.283074 77.710038 
" clip-path="url(#p93c0651960)" style="fill: none; stroke: #0000ff; stroke-opacity: 0.8; stroke-width: 0.7; stroke-linecap: square"/>
   </g>
   <g id="line2d_51">
    <path d="M 450.373849 127.93469 
L 415.184321 73.170811 
" clip-path="url(#p93c0651960)" style="fill: none; stroke: #0000ff; stroke-opacity: 0.8; stroke-width: 0.7; stroke-linecap: square"/>
   </g>
   <g id="line2d_52">
    <path d="M 450.373849 127.93469 
L 418.480298 68.164615 
" clip-path="url(#p93c0651960)" style="fill: none; stroke: #0000ff; stroke-opacity: 0.8; stroke-width: 0.7; stroke-linecap: square"/>
   </g>
   <g id="line2d_53">
    <path d="M 450.373849 127.93469 
L 422.078334 62.847476 
" clip-path="url(#p93c0651960)" style="fill: none; stroke: #0000ff; stroke-opacity: 0.8; stroke-width: 0.7; stroke-linecap: square"/>
   </g>
   <g id="line2d_54">
    <path d="M 450.373849 127.93469 
L 425.987475 57.215084 
" clip-path="url(#p93c0651960)" style="fill: none; stroke: #0000ff; stroke-opacity: 0.8; stroke-width: 0.7; stroke-linecap: square"/>
   </g>
   <g id="line2d_55">
    <path d="M 450.373849 127.93469 
L 430.216027 51.265548 
" clip-path="url(#p93c0651960)" style="fill: none; stroke: #0000ff; stroke-opacity: 0.8; stroke-width: 0.7; stroke-linecap: square"/>
   </g>
   <g id="line2d_56">
    <path d="M 450.373849 127.93469 
L 434.773063 44.996929 
" clip-path="url(#p93c0651960)" style="fill: none; stroke: #0000ff; stroke-opacity: 0.8; stroke-width: 0.7; stroke-linecap: square"/>
   </g>
   <g id="line2d_57">
    <path d="M 450.373849 127.93469 
L 439.667776 38.408294 
" clip-path="url(#p93c0651960)" style="fill: none; stroke: #0000ff; stroke-opacity: 0.8; stroke-width: 0.7; stroke-linecap: square"/>
   </g>
   <g id="line2d_58">
    <path d="M 450.373849 127.93469 
L 444.907268 31.502222 
" clip-path="url(#p93c0651960)" style="fill: none; stroke: #0000ff; stroke-opacity: 0.8; stroke-width: 0.7; stroke-linecap: square"/>
   </g>
   <g id="Poly3DCollection_3">
    <path d="M 450.373849 127.93469 
L 444.907268 31.502222 
L 450.373849 24.441393 
z
" clip-path="url(#p93c0651960)" style="fill: #00005f; fill-opacity: 0.25"/>
    <path d="M 450.373849 127.93469 
L 439.667776 38.408294 
L 444.907268 31.502222 
z
" clip-path="url(#p93c0651960)" style="fill: #000061; fill-opacity: 0.25"/>
    <path d="M 450.373849 127.93469 
L 434.773063 44.996929 
L 439.667776 38.408294 
z
" clip-path="url(#p93c0651960)" style="fill: #000062; fill-opacity: 0.25"/>
    <path d="M 450.373849 127.93469 
L 430.216027 51.265548 
L 434.773063 44.996929 
z
" clip-path="url(#p93c0651960)" style="fill: #000063; fill-opacity: 0.25"/>
    <path d="M 450.373849 127.93469 
L 425.987475 57.215084 
L 430.216027 51.265548 
z
" clip-path="url(#p93c0651960)" style="fill: #000065; fill-opacity: 0.25"/>
    <path d="M 450.373849 127.93469 
L 422.078334 62.847476 
L 425.987475 57.215084 
z
" clip-path="url(#p93c0651960)" style="fill: #000066; fill-opacity: 0.25"/>
    <path d="M 450.373849 127.93469 
L 418.480298 68.164615 
L 422.078334 62.847476 
z
" clip-path="url(#p93c0651960)" style="fill: #000067; fill-opacity: 0.25"/>
    <path d="M 450.373849 127.93469 
L 415.184321 73.170811 
L 418.480298 68.164615 
z
" clip-path="url(#p93c0651960)" style="fill: #000068; fill-opacity: 0.25"/>
    <path d="M 450.373849 127.93469 
L 412.283074 77.710038 
L 415.184321 73.170811 
z
" clip-path="url(#p93c0651960)" style="fill: #000068; fill-opacity: 0.25"/>
    <path d="M 450.373849 127.93469 
L 409.660318 81.948251 
L 412.283074 77.710038 
z
" clip-path="url(#p93c0651960)" style="fill: #000069; fill-opacity: 0.25"/>
    <path d="M 450.373849 127.93469 
L 407.403135 85.725235 
L 409.660318 81.948251 
z
" clip-path="url(#p93c0651960)" style="fill: #00006a; fill-opacity: 0.25"/>
    <path d="M 450.373849 127.93469 
L 405.255334 89.457258 
L 407.403135 85.725235 
z
" clip-path="url(#p93c0651960)" style="fill: #00006a; fill-opacity: 0.25"/>
   </g>
   <g id="text_36">
    <!-- (c) SB-PWL -->
    <g transform="translate(423.486088 18.418286) scale(0.1 -0.1)">
     <defs>
      <path id="TeXGyreTermesX-Regular-63" d="M 2637 942 
L 2547 999 
C 2240 550 2010 397 1645 397 
C 1056 397 653 909 653 1645 
C 653 2310 1005 2758 1523 2758 
C 1754 2758 1837 2688 1901 2451 
L 1939 2310 
C 1990 2125 2106 2016 2246 2016 
C 2413 2016 2547 2138 2547 2285 
C 2547 2643 2099 2944 1562 2944 
C 1261 2944 954 2829 698 2618 
C 352 2330 160 1888 160 1357 
C 160 531 666 -64 1376 -64 
C 1651 -64 1894 26 2112 205 
C 2304 358 2432 545 2637 942 
z
" transform="scale(0.015625)"/>
      <path id="TeXGyreTermesX-Regular-53" d="M 3142 1101 
C 3142 1632 2790 2042 1946 2503 
C 1274 2868 1005 3149 1005 3501 
C 1005 3853 1274 4090 1670 4090 
C 1958 4090 2227 3968 2451 3738 
C 2650 3533 2739 3367 2842 2989 
L 3002 2989 
L 2861 4352 
L 2726 4352 
C 2701 4212 2630 4135 2522 4135 
C 2458 4135 2355 4160 2240 4212 
C 2003 4301 1773 4352 1549 4352 
C 1299 4352 1030 4250 826 4084 
C 576 3878 454 3603 454 3250 
C 454 2743 736 2385 1453 2006 
C 1914 1756 2246 1499 2406 1256 
C 2464 1167 2496 1038 2496 878 
C 2496 454 2176 160 1709 160 
C 1133 160 736 513 416 1296 
L 269 1296 
L 461 -64 
L 602 -64 
C 608 57 685 147 781 147 
C 851 147 960 122 1082 79 
C 1325 -14 1581 -64 1837 -64 
C 2579 -64 3142 442 3142 1101 
z
" transform="scale(0.015625)"/>
      <path id="TeXGyreTermesX-Regular-42" d="M 3795 1165 
C 3795 1451 3680 1710 3482 1897 
C 3290 2072 3117 2150 2701 2253 
C 3034 2335 3168 2398 3322 2531 
C 3482 2671 3578 2903 3578 3163 
C 3578 3871 3008 4237 1901 4237 
L 109 4237 
L 109 4096 
C 646 4096 723 4026 723 3548 
L 723 689 
C 723 212 640 128 109 128 
L 109 0 
L 2246 0 
C 2746 0 3200 136 3437 356 
C 3667 564 3795 855 3795 1165 
z
M 3059 1159 
C 3059 809 2925 555 2669 406 
C 2464 290 2202 238 1779 238 
C 1466 238 1376 296 1376 504 
L 1376 2112 
C 1997 2112 2291 2080 2522 1982 
C 2886 1827 3059 1568 3059 1159 
z
M 2925 3137 
C 2925 2646 2586 2368 1984 2368 
L 1376 2368 
L 1376 3812 
C 1376 3944 1421 4001 1517 4001 
L 1798 4001 
C 2534 4001 2925 3699 2925 3137 
z
" transform="scale(0.015625)"/>
      <path id="TeXGyreTermesX-Regular-50" d="M 3469 3078 
C 3469 3344 3379 3584 3206 3768 
C 2950 4047 2394 4224 1792 4224 
L 102 4224 
L 102 4102 
C 576 4051 640 3987 640 3528 
L 640 766 
C 640 230 589 166 102 122 
L 102 0 
L 1894 0 
L 1894 128 
C 1389 128 1293 218 1293 693 
L 1293 1875 
C 1459 1856 1568 1856 1734 1856 
C 2234 1856 2579 1919 2854 2072 
C 3238 2274 3469 2660 3469 3078 
z
M 2771 3040 
C 2771 2428 2394 2112 1658 2112 
C 1530 2112 1440 2119 1293 2131 
L 1293 3772 
C 1293 3943 1338 3987 1510 3987 
C 2374 3987 2771 3690 2771 3040 
z
" transform="scale(0.015625)"/>
      <path id="TeXGyreTermesX-Regular-57" d="M 5965 4102 
L 5965 4224 
L 4698 4224 
L 4698 4102 
C 5024 4070 5139 4000 5139 3826 
C 5139 3692 5101 3524 5037 3345 
L 4237 1169 
L 3392 3358 
L 3315 3551 
C 3258 3685 3219 3807 3219 3877 
C 3219 4032 3366 4096 3712 4096 
L 3712 4224 
L 2003 4224 
L 2003 4096 
C 2368 4096 2432 4038 2650 3524 
L 2861 2998 
L 2176 1188 
L 1254 3612 
C 1210 3728 1184 3838 1184 3909 
C 1184 4051 1274 4096 1600 4096 
L 1600 4224 
L 32 4224 
L 32 4102 
C 358 4070 454 3955 691 3351 
L 1926 -96 
L 2022 -96 
L 3008 2619 
L 4032 -96 
L 4128 -96 
L 5434 3647 
C 5555 3981 5626 4038 5965 4102 
z
" transform="scale(0.015625)"/>
     </defs>
     <use xlink:href="#TeXGyreTermesX-Regular-28" transform="scale(0.996264)"/>
     <use xlink:href="#TeXGyreTermesX-Regular-63" transform="translate(33.17561 0) scale(0.996264)"/>
     <use xlink:href="#TeXGyreTermesX-Regular-29" transform="translate(77.409756 0) scale(0.996264)"/>
     <use xlink:href="#TeXGyreTermesX-Regular-53" transform="translate(135.491966 0) scale(0.996264)"/>
     <use xlink:href="#TeXGyreTermesX-Regular-42" transform="translate(190.884221 0) scale(0.996264)"/>
     <use xlink:href="#TeXGyreTermesX-Regular-2d" transform="translate(257.335012 0) scale(0.996264)"/>
     <use xlink:href="#TeXGyreTermesX-Regular-50" transform="translate(290.510622 0) scale(0.996264)"/>
     <use xlink:href="#TeXGyreTermesX-Regular-57" transform="translate(345.902876 0) scale(0.996264)"/>
     <use xlink:href="#TeXGyreTermesX-Regular-4c" transform="translate(439.950223 0) scale(0.996264)"/>
    </g>
   </g>
  </g>
  <g id="patch_14">
   <path d="M 557.849635 143.853061 
L 694.502696 143.853061 
L 694.502696 7.2 
L 557.849635 7.2 
L 557.849635 143.853061 
z
" style="fill: none"/>
  </g>
  <g id="pane3d_10">
   <g id="patch_15">
    <path d="M 689.051779 103.012962 
L 628.022828 76.974325 
L 628.022828 20.564939 
L 691.398915 43.21864 
" style="fill: none; opacity: 0"/>
   </g>
  </g>
  <g id="pane3d_11">
   <g id="patch_16">
    <path d="M 566.993877 103.012962 
L 628.022828 76.974325 
L 628.022828 20.564939 
L 564.646742 43.21864 
" style="fill: none; opacity: 0"/>
   </g>
  </g>
  <g id="pane3d_12">
   <g id="patch_17">
    <path d="M 628.022828 133.266759 
L 689.051779 103.012962 
L 628.022828 76.974325 
L 566.993877 103.012962 
" style="fill: none; opacity: 0"/>
   </g>
  </g>
  <g id="grid3d_10">
   <g id="Line3DCollection_10">
    <path d="M 632.199322 131.196351 
L 571.148548 101.240329 
L 568.971969 41.672593 
" style="fill: none; stroke: #b0b0b0; stroke-width: 0.8"/>
    <path d="M 650.759249 121.995665 
L 589.650142 93.346431 
L 588.213947 34.794573 
" style="fill: none; stroke: #b0b0b0; stroke-width: 0.8"/>
    <path d="M 668.488536 113.20675 
L 607.382851 85.780586 
L 606.626987 28.212855 
" style="fill: none; stroke: #b0b0b0; stroke-width: 0.8"/>
    <path d="M 685.441724 104.80257 
L 624.393628 78.522761 
L 624.263524 21.908698 
" style="fill: none; stroke: #b0b0b0; stroke-width: 0.8"/>
   </g>
  </g>
  <g id="grid3d_11">
   <g id="Line3DCollection_11">
    <path d="M 687.073688 41.672593 
L 684.897109 101.240329 
L 623.846335 131.196351 
" style="fill: none; stroke: #b0b0b0; stroke-width: 0.8"/>
    <path d="M 667.83171 34.794573 
L 666.395515 93.346431 
L 605.286407 121.995665 
" style="fill: none; stroke: #b0b0b0; stroke-width: 0.8"/>
    <path d="M 649.41867 28.212855 
L 648.662806 85.780586 
L 587.557121 113.20675 
" style="fill: none; stroke: #b0b0b0; stroke-width: 0.8"/>
    <path d="M 631.782133 21.908698 
L 631.652029 78.522761 
L 570.603933 104.80257 
" style="fill: none; stroke: #b0b0b0; stroke-width: 0.8"/>
   </g>
  </g>
  <g id="grid3d_12">
   <g id="Line3DCollection_12">
    <path d="M 566.94864 101.860512 
L 628.022828 75.884258 
L 689.097017 101.860512 
" style="fill: none; stroke: #b0b0b0; stroke-width: 0.8"/>
    <path d="M 566.111725 80.539751 
L 628.022828 55.737896 
L 689.933931 80.539751 
" style="fill: none; stroke: #b0b0b0; stroke-width: 0.8"/>
    <path d="M 565.251556 58.626544 
L 628.022828 35.071755 
L 690.794101 58.626544 
" style="fill: none; stroke: #b0b0b0; stroke-width: 0.8"/>
   </g>
  </g>
  <g id="axis3d_10">
   <g id="line2d_59">
    <path d="M 689.051779 103.012962 
L 628.022828 133.266759 
" style="fill: none; stroke: #000000; stroke-width: 0.8; stroke-linecap: square"/>
   </g>
   <g id="xtick_34">
    <g id="line2d_60">
     <path d="M 631.671926 130.937572 
L 633.256155 131.714912 
" style="fill: none; stroke: #000000; stroke-width: 0.8; stroke-linecap: square"/>
    </g>
    <g id="text_37">
     <!-- $\mathdefault{0}$ -->
     <g transform="translate(640.410905 153.189025) scale(0.1 -0.1)">
      <use xlink:href="#TeXGyreTermesX-Regular-30" transform="scale(0.996264)"/>
     </g>
    </g>
   </g>
   <g id="xtick_35">
    <g id="line2d_61">
     <path d="M 650.232242 121.748593 
L 651.815256 122.490743 
" style="fill: none; stroke: #000000; stroke-width: 0.8; stroke-linecap: square"/>
    </g>
    <g id="text_38">
     <!-- $\mathdefault{1}$ -->
     <g transform="translate(658.844305 143.579744) scale(0.1 -0.1)">
      <use xlink:href="#TeXGyreTermesX-Regular-31" transform="scale(0.996264)"/>
     </g>
    </g>
   </g>
   <g id="xtick_36">
    <g id="line2d_62">
     <path d="M 667.962411 112.970609 
L 669.54273 113.679906 
" style="fill: none; stroke: #000000; stroke-width: 0.8; stroke-linecap: square"/>
    </g>
    <g id="text_39">
     <!-- $\mathdefault{2}$ -->
     <g transform="translate(676.447513 134.403239) scale(0.1 -0.1)">
      <use xlink:href="#TeXGyreTermesX-Regular-32" transform="scale(0.996264)"/>
     </g>
    </g>
   </g>
   <g id="xtick_37">
    <g id="line2d_63">
     <path d="M 684.91691 104.57665 
L 686.49325 105.255228 
" style="fill: none; stroke: #000000; stroke-width: 0.8; stroke-linecap: square"/>
    </g>
    <g id="text_40">
     <!-- $\mathdefault{3}$ -->
     <g transform="translate(693.275377 125.630919) scale(0.1 -0.1)">
      <use xlink:href="#TeXGyreTermesX-Regular-33" transform="scale(0.996264)"/>
     </g>
    </g>
   </g>
  </g>
  <g id="axis3d_11">
   <g id="line2d_64">
    <path d="M 566.993877 103.012962 
L 628.022828 133.266759 
" style="fill: none; stroke: #000000; stroke-width: 0.8; stroke-linecap: square"/>
   </g>
   <g id="xtick_38">
    <g id="line2d_65">
     <path d="M 624.37373 130.937572 
L 622.789502 131.714912 
" style="fill: none; stroke: #000000; stroke-width: 0.8; stroke-linecap: square"/>
    </g>
    <g id="text_41">
     <!-- $\mathdefault{0}$ -->
     <g transform="translate(610.653432 153.189025) scale(0.1 -0.1)">
      <use xlink:href="#TeXGyreTermesX-Regular-30" transform="scale(0.996264)"/>
     </g>
    </g>
   </g>
   <g id="xtick_39">
    <g id="line2d_66">
     <path d="M 605.813414 121.748593 
L 604.230401 122.490743 
" style="fill: none; stroke: #000000; stroke-width: 0.8; stroke-linecap: square"/>
    </g>
    <g id="text_42">
     <!-- $\mathdefault{1}$ -->
     <g transform="translate(592.220031 143.579744) scale(0.1 -0.1)">
      <use xlink:href="#TeXGyreTermesX-Regular-31" transform="scale(0.996264)"/>
     </g>
    </g>
   </g>
   <g id="xtick_40">
    <g id="line2d_67">
     <path d="M 588.083245 112.970609 
L 586.502927 113.679906 
" style="fill: none; stroke: #000000; stroke-width: 0.8; stroke-linecap: square"/>
    </g>
    <g id="text_43">
     <!-- $\mathdefault{2}$ -->
     <g transform="translate(574.616824 134.403239) scale(0.1 -0.1)">
      <use xlink:href="#TeXGyreTermesX-Regular-32" transform="scale(0.996264)"/>
     </g>
    </g>
   </g>
   <g id="xtick_41">
    <g id="line2d_68">
     <path d="M 571.128747 104.57665 
L 569.552407 105.255228 
" style="fill: none; stroke: #000000; stroke-width: 0.8; stroke-linecap: square"/>
    </g>
    <g id="text_44">
     <!-- $\mathdefault{3}$ -->
     <g transform="translate(557.78896 125.630919) scale(0.1 -0.1)">
      <use xlink:href="#TeXGyreTermesX-Regular-33" transform="scale(0.996264)"/>
     </g>
    </g>
   </g>
  </g>
  <g id="axis3d_12">
   <g id="line2d_69">
    <path d="M 566.993877 103.012962 
L 564.646742 43.21864 
" style="fill: none; stroke: #000000; stroke-width: 0.8; stroke-linecap: square"/>
   </g>
   <g id="xtick_42">
    <g id="line2d_70">
     <path d="M 567.473531 101.637263 
L 565.896966 102.307813 
" style="fill: none; stroke: #000000; stroke-width: 0.8; stroke-linecap: square"/>
    </g>
    <g id="text_45">
     <!-- $\mathdefault{0}$ -->
     <g transform="translate(544.721604 108.699855) scale(0.1 -0.1)">
      <use xlink:href="#TeXGyreTermesX-Regular-30" transform="scale(0.996264)"/>
     </g>
    </g>
   </g>
   <g id="xtick_43">
    <g id="line2d_71">
     <path d="M 566.644314 80.326393 
L 565.044604 80.967244 
" style="fill: none; stroke: #000000; stroke-width: 0.8; stroke-linecap: square"/>
    </g>
    <g id="text_46">
     <!-- $\mathdefault{20}$ -->
     <g transform="translate(541.123577 87.379093) scale(0.1 -0.1)">
      <use xlink:href="#TeXGyreTermesX-Regular-32" transform="scale(0.996264)"/>
      <use xlink:href="#TeXGyreTermesX-Regular-30" transform="translate(49.8132 0) scale(0.996264)"/>
     </g>
    </g>
   </g>
   <g id="xtick_44">
    <g id="line2d_72">
     <path d="M 565.792069 58.423717 
L 564.168529 59.032947 
" style="fill: none; stroke: #000000; stroke-width: 0.8; stroke-linecap: square"/>
    </g>
    <g id="text_47">
     <!-- $\mathdefault{40}$ -->
     <g transform="translate(539.98544 65.465886) scale(0.1 -0.1)">
      <use xlink:href="#TeXGyreTermesX-Regular-34" transform="scale(0.996264)"/>
      <use xlink:href="#TeXGyreTermesX-Regular-30" transform="translate(49.8132 0) scale(0.996264)"/>
     </g>
    </g>
   </g>
  </g>
  <g id="axes_4">
   <g id="line2d_73">
    <path d="M 582.904313 89.457258 
L 585.052115 85.725235 
L 587.309297 81.948251 
L 589.932054 77.710038 
L 592.8333 73.170811 
L 596.129278 68.164615 
L 599.727314 62.847476 
L 603.636454 57.215084 
L 607.865006 51.265548 
L 612.422043 44.996929 
L 617.316756 38.408294 
L 622.556248 31.502222 
L 628.022828 24.441393 
" clip-path="url(#pec745493b0)" style="fill: none; stroke: #000000; stroke-width: 1.5; stroke-linecap: square"/>
   </g>
   <g id="line2d_74">
    <path d="M 583.157005 98.240674 
L 585.368281 97.291749 
L 587.68009 96.299681 
L 590.352555 95.152845 
L 593.293439 93.890823 
L 596.616834 92.464653 
L 600.225286 90.916157 
L 604.124442 89.242911 
L 608.318951 87.44292 
L 612.813979 85.513967 
L 617.614568 83.453888 
L 622.723512 81.261486 
L 628.022828 78.987388 
" clip-path="url(#pec745493b0)" style="fill: none; stroke: #800080; stroke-width: 1.5; stroke-linecap: square"/>
   </g>
   <g id="line2d_75">
    <path d="M 628.022828 127.93469 
L 583.157005 98.240674 
" clip-path="url(#pec745493b0)" style="fill: none; stroke: #800080; stroke-width: 1.5; stroke-linecap: square"/>
   </g>
   <g id="line2d_76">
    <path d="M 628.022828 127.93469 
L 628.022828 78.987388 
" clip-path="url(#pec745493b0)" style="fill: none; stroke: #800080; stroke-width: 1.5; stroke-linecap: square"/>
   </g>
   <g id="line2d_77">
    <path d="M 628.022828 127.93469 
L 582.904313 89.457258 
" clip-path="url(#pec745493b0)" style="fill: none; stroke: #000000; stroke-width: 1.5; stroke-linecap: square"/>
   </g>
   <g id="line2d_78">
    <path d="M 628.022828 127.93469 
L 628.022828 24.441393 
" clip-path="url(#pec745493b0)" style="fill: none; stroke: #000000; stroke-width: 1.5; stroke-linecap: square"/>
   </g>
   <g id="line2d_79">
    <path d="M 582.904313 89.457258 
L 583.157005 98.240674 
" clip-path="url(#pec745493b0)" style="fill: none; stroke: #000000; stroke-width: 1.5; stroke-linecap: square"/>
   </g>
   <g id="line2d_80">
    <path d="M 628.022828 24.441393 
L 628.022828 78.987388 
" clip-path="url(#pec745493b0)" style="fill: none; stroke: #000000; stroke-width: 1.5; stroke-linecap: square"/>
   </g>
   <g id="line2d_81">
    <path d="M 628.022828 127.93469 
L 585.052115 85.725235 
" clip-path="url(#pec745493b0)" style="fill: none; stroke: #800080; stroke-opacity: 0.8; stroke-width: 0.7; stroke-linecap: square"/>
   </g>
   <g id="line2d_82">
    <path d="M 628.022828 127.93469 
L 587.309297 81.948251 
" clip-path="url(#pec745493b0)" style="fill: none; stroke: #800080; stroke-opacity: 0.8; stroke-width: 0.7; stroke-linecap: square"/>
   </g>
   <g id="line2d_83">
    <path d="M 628.022828 127.93469 
L 589.932054 77.710038 
" clip-path="url(#pec745493b0)" style="fill: none; stroke: #800080; stroke-opacity: 0.8; stroke-width: 0.7; stroke-linecap: square"/>
   </g>
   <g id="line2d_84">
    <path d="M 628.022828 127.93469 
L 592.8333 73.170811 
" clip-path="url(#pec745493b0)" style="fill: none; stroke: #800080; stroke-opacity: 0.8; stroke-width: 0.7; stroke-linecap: square"/>
   </g>
   <g id="line2d_85">
    <path d="M 628.022828 127.93469 
L 596.129278 68.164615 
" clip-path="url(#pec745493b0)" style="fill: none; stroke: #800080; stroke-opacity: 0.8; stroke-width: 0.7; stroke-linecap: square"/>
   </g>
   <g id="line2d_86">
    <path d="M 628.022828 127.93469 
L 599.727314 62.847476 
" clip-path="url(#pec745493b0)" style="fill: none; stroke: #800080; stroke-opacity: 0.8; stroke-width: 0.7; stroke-linecap: square"/>
   </g>
   <g id="line2d_87">
    <path d="M 628.022828 127.93469 
L 603.636454 57.215084 
" clip-path="url(#pec745493b0)" style="fill: none; stroke: #800080; stroke-opacity: 0.8; stroke-width: 0.7; stroke-linecap: square"/>
   </g>
   <g id="line2d_88">
    <path d="M 628.022828 127.93469 
L 607.865006 51.265548 
" clip-path="url(#pec745493b0)" style="fill: none; stroke: #800080; stroke-opacity: 0.8; stroke-width: 0.7; stroke-linecap: square"/>
   </g>
   <g id="line2d_89">
    <path d="M 628.022828 127.93469 
L 612.422043 44.996929 
" clip-path="url(#pec745493b0)" style="fill: none; stroke: #800080; stroke-opacity: 0.8; stroke-width: 0.7; stroke-linecap: square"/>
   </g>
   <g id="line2d_90">
    <path d="M 628.022828 127.93469 
L 617.316756 38.408294 
" clip-path="url(#pec745493b0)" style="fill: none; stroke: #800080; stroke-opacity: 0.8; stroke-width: 0.7; stroke-linecap: square"/>
   </g>
   <g id="line2d_91">
    <path d="M 628.022828 127.93469 
L 622.556248 31.502222 
" clip-path="url(#pec745493b0)" style="fill: none; stroke: #800080; stroke-opacity: 0.8; stroke-width: 0.7; stroke-linecap: square"/>
   </g>
   <g id="Poly3DCollection_4">
    <path d="M 628.022828 24.441393 
L 622.723512 81.261486 
L 628.022828 78.987388 
z
" clip-path="url(#pec745493b0)" style="fill: #710071; fill-opacity: 0.25"/>
    <path d="M 622.556248 31.502222 
L 617.614568 83.453888 
L 622.723512 81.261486 
z
" clip-path="url(#pec745493b0)" style="fill: #710071; fill-opacity: 0.25"/>
    <path d="M 617.316756 38.408294 
L 612.813979 85.513967 
L 617.614568 83.453888 
z
" clip-path="url(#pec745493b0)" style="fill: #710071; fill-opacity: 0.25"/>
    <path d="M 622.556248 31.502222 
L 622.723512 81.261486 
L 628.022828 24.441393 
z
" clip-path="url(#pec745493b0)" style="fill: #710071; fill-opacity: 0.25"/>
    <path d="M 612.422043 44.996929 
L 608.318951 87.44292 
L 612.813979 85.513967 
z
" clip-path="url(#pec745493b0)" style="fill: #710071; fill-opacity: 0.25"/>
    <path d="M 617.316756 38.408294 
L 617.614568 83.453888 
L 622.556248 31.502222 
z
" clip-path="url(#pec745493b0)" style="fill: #710071; fill-opacity: 0.25"/>
    <path d="M 607.865006 51.265548 
L 604.124442 89.242911 
L 608.318951 87.44292 
z
" clip-path="url(#pec745493b0)" style="fill: #710071; fill-opacity: 0.25"/>
    <path d="M 612.422043 44.996929 
L 612.813979 85.513967 
L 617.316756 38.408294 
z
" clip-path="url(#pec745493b0)" style="fill: #710071; fill-opacity: 0.25"/>
    <path d="M 603.636454 57.215084 
L 600.225286 90.916157 
L 604.124442 89.242911 
z
" clip-path="url(#pec745493b0)" style="fill: #710071; fill-opacity: 0.25"/>
    <path d="M 607.865006 51.265548 
L 608.318951 87.44292 
L 612.422043 44.996929 
z
" clip-path="url(#pec745493b0)" style="fill: #710071; fill-opacity: 0.25"/>
    <path d="M 599.727314 62.847476 
L 596.616834 92.464653 
L 600.225286 90.916157 
z
" clip-path="url(#pec745493b0)" style="fill: #710071; fill-opacity: 0.25"/>
    <path d="M 603.636454 57.215084 
L 604.124442 89.242911 
L 607.865006 51.265548 
z
" clip-path="url(#pec745493b0)" style="fill: #710071; fill-opacity: 0.25"/>
    <path d="M 596.129278 68.164615 
L 593.293439 93.890823 
L 596.616834 92.464653 
z
" clip-path="url(#pec745493b0)" style="fill: #710071; fill-opacity: 0.25"/>
    <path d="M 599.727314 62.847476 
L 600.225286 90.916157 
L 603.636454 57.215084 
z
" clip-path="url(#pec745493b0)" style="fill: #710071; fill-opacity: 0.25"/>
    <path d="M 592.8333 73.170811 
L 590.352555 95.152845 
L 593.293439 93.890823 
z
" clip-path="url(#pec745493b0)" style="fill: #710071; fill-opacity: 0.25"/>
    <path d="M 596.129278 68.164615 
L 596.616834 92.464653 
L 599.727314 62.847476 
z
" clip-path="url(#pec745493b0)" style="fill: #710071; fill-opacity: 0.25"/>
    <path d="M 628.022828 127.93469 
L 622.723512 81.261486 
L 628.022828 78.987388 
z
" clip-path="url(#pec745493b0)" style="fill: #440044; fill-opacity: 0.25"/>
    <path d="M 589.932054 77.710038 
L 587.68009 96.299681 
L 590.352555 95.152845 
z
" clip-path="url(#pec745493b0)" style="fill: #710071; fill-opacity: 0.25"/>
    <path d="M 592.8333 73.170811 
L 593.293439 93.890823 
L 596.129278 68.164615 
z
" clip-path="url(#pec745493b0)" style="fill: #710071; fill-opacity: 0.25"/>
    <path d="M 628.022828 127.93469 
L 617.614568 83.453888 
L 622.723512 81.261486 
z
" clip-path="url(#pec745493b0)" style="fill: #440044; fill-opacity: 0.25"/>
    <path d="M 589.932054 77.710038 
L 590.352555 95.152845 
L 592.8333 73.170811 
z
" clip-path="url(#pec745493b0)" style="fill: #710071; fill-opacity: 0.25"/>
    <path d="M 587.309297 81.948251 
L 585.368281 97.291749 
L 587.68009 96.299681 
z
" clip-path="url(#pec745493b0)" style="fill: #710071; fill-opacity: 0.25"/>
    <path d="M 587.309297 81.948251 
L 587.68009 96.299681 
L 589.932054 77.710038 
z
" clip-path="url(#pec745493b0)" style="fill: #710071; fill-opacity: 0.25"/>
    <path d="M 585.052115 85.725235 
L 583.157005 98.240674 
L 585.368281 97.291749 
z
" clip-path="url(#pec745493b0)" style="fill: #710071; fill-opacity: 0.25"/>
    <path d="M 628.022828 127.93469 
L 612.813979 85.513967 
L 617.614568 83.453888 
z
" clip-path="url(#pec745493b0)" style="fill: #440044; fill-opacity: 0.25"/>
    <path d="M 585.052115 85.725235 
L 585.368281 97.291749 
L 587.309297 81.948251 
z
" clip-path="url(#pec745493b0)" style="fill: #710071; fill-opacity: 0.25"/>
    <path d="M 628.022828 127.93469 
L 628.022828 24.441393 
L 628.022828 78.987388 
z
" clip-path="url(#pec745493b0)" style="fill: #530053; fill-opacity: 0.25"/>
    <path d="M 582.904313 89.457258 
L 583.157005 98.240674 
L 585.052115 85.725235 
z
" clip-path="url(#pec745493b0)" style="fill: #710071; fill-opacity: 0.25"/>
    <path d="M 628.022828 127.93469 
L 608.318951 87.44292 
L 612.813979 85.513967 
z
" clip-path="url(#pec745493b0)" style="fill: #440044; fill-opacity: 0.25"/>
    <path d="M 628.022828 127.93469 
L 604.124442 89.242911 
L 608.318951 87.44292 
z
" clip-path="url(#pec745493b0)" style="fill: #440044; fill-opacity: 0.25"/>
    <path d="M 628.022828 127.93469 
L 600.225286 90.916157 
L 604.124442 89.242911 
z
" clip-path="url(#pec745493b0)" style="fill: #440044; fill-opacity: 0.25"/>
    <path d="M 628.022828 127.93469 
L 596.616834 92.464653 
L 600.225286 90.916157 
z
" clip-path="url(#pec745493b0)" style="fill: #440044; fill-opacity: 0.25"/>
    <path d="M 628.022828 127.93469 
L 622.556248 31.502222 
L 628.022828 24.441393 
z
" clip-path="url(#pec745493b0)" style="fill: #300030; fill-opacity: 0.25"/>
    <path d="M 628.022828 127.93469 
L 617.316756 38.408294 
L 622.556248 31.502222 
z
" clip-path="url(#pec745493b0)" style="fill: #310031; fill-opacity: 0.25"/>
    <path d="M 628.022828 127.93469 
L 593.293439 93.890823 
L 596.616834 92.464653 
z
" clip-path="url(#pec745493b0)" style="fill: #440044; fill-opacity: 0.25"/>
    <path d="M 628.022828 127.93469 
L 612.422043 44.996929 
L 617.316756 38.408294 
z
" clip-path="url(#pec745493b0)" style="fill: #310031; fill-opacity: 0.25"/>
    <path d="M 628.022828 127.93469 
L 590.352555 95.152845 
L 593.293439 93.890823 
z
" clip-path="url(#pec745493b0)" style="fill: #440044; fill-opacity: 0.25"/>
    <path d="M 628.022828 127.93469 
L 607.865006 51.265548 
L 612.422043 44.996929 
z
" clip-path="url(#pec745493b0)" style="fill: #320032; fill-opacity: 0.25"/>
    <path d="M 628.022828 127.93469 
L 587.68009 96.299681 
L 590.352555 95.152845 
z
" clip-path="url(#pec745493b0)" style="fill: #440044; fill-opacity: 0.25"/>
    <path d="M 628.022828 127.93469 
L 603.636454 57.215084 
L 607.865006 51.265548 
z
" clip-path="url(#pec745493b0)" style="fill: #320032; fill-opacity: 0.25"/>
    <path d="M 628.022828 127.93469 
L 585.368281 97.291749 
L 587.68009 96.299681 
z
" clip-path="url(#pec745493b0)" style="fill: #440044; fill-opacity: 0.25"/>
    <path d="M 628.022828 127.93469 
L 599.727314 62.847476 
L 603.636454 57.215084 
z
" clip-path="url(#pec745493b0)" style="fill: #330033; fill-opacity: 0.25"/>
    <path d="M 628.022828 127.93469 
L 596.129278 68.164615 
L 599.727314 62.847476 
z
" clip-path="url(#pec745493b0)" style="fill: #340034; fill-opacity: 0.25"/>
    <path d="M 628.022828 127.93469 
L 583.157005 98.240674 
L 585.368281 97.291749 
z
" clip-path="url(#pec745493b0)" style="fill: #440044; fill-opacity: 0.25"/>
    <path d="M 628.022828 127.93469 
L 592.8333 73.170811 
L 596.129278 68.164615 
z
" clip-path="url(#pec745493b0)" style="fill: #340034; fill-opacity: 0.25"/>
    <path d="M 628.022828 127.93469 
L 589.932054 77.710038 
L 592.8333 73.170811 
z
" clip-path="url(#pec745493b0)" style="fill: #340034; fill-opacity: 0.25"/>
    <path d="M 628.022828 127.93469 
L 583.157005 98.240674 
L 582.904313 89.457258 
z
" clip-path="url(#pec745493b0)" style="fill: #3a003a; fill-opacity: 0.25"/>
    <path d="M 628.022828 127.93469 
L 587.309297 81.948251 
L 589.932054 77.710038 
z
" clip-path="url(#pec745493b0)" style="fill: #350035; fill-opacity: 0.25"/>
    <path d="M 628.022828 127.93469 
L 585.052115 85.725235 
L 587.309297 81.948251 
z
" clip-path="url(#pec745493b0)" style="fill: #350035; fill-opacity: 0.25"/>
    <path d="M 628.022828 127.93469 
L 582.904313 89.457258 
L 585.052115 85.725235 
z
" clip-path="url(#pec745493b0)" style="fill: #350035; fill-opacity: 0.25"/>
   </g>
   <g id="text_48">
    <!-- (d) RB-PWL -->
    <g transform="translate(600.303188 18.418286) scale(0.1 -0.1)">
     <defs>
      <path id="TeXGyreTermesX-Regular-64" d="M 3142 269 
L 3142 365 
C 3027 365 3014 365 2995 365 
C 2765 365 2714 435 2714 731 
L 2714 4364 
L 2682 4377 
C 2374 4268 2150 4204 1741 4096 
L 1741 3994 
C 1792 4000 1830 4000 1882 4000 
C 2118 4000 2176 3936 2176 3672 
L 2176 2669 
C 1933 2874 1760 2944 1504 2944 
C 768 2944 173 2221 173 1312 
C 173 493 653 -64 1357 -64 
C 1715 -64 1958 64 2176 365 
L 2176 -45 
L 2202 -64 
L 3142 269 
z
M 2176 653 
C 2176 608 2131 531 2067 461 
C 1952 333 1792 269 1606 269 
C 1075 269 723 781 723 1568 
C 723 2291 1037 2765 1523 2765 
C 1862 2765 2176 2464 2176 2125 
L 2176 653 
z
" transform="scale(0.015625)"/>
      <path id="TeXGyreTermesX-Regular-52" d="M 4218 0 
L 4218 121 
C 3974 140 3846 205 3661 424 
L 2342 2061 
C 2771 2143 2963 2219 3174 2388 
C 3379 2553 3501 2818 3501 3113 
C 3501 3385 3418 3618 3251 3801 
C 3008 4059 2477 4224 1875 4224 
L 109 4224 
L 109 4102 
C 589 4051 653 3981 653 3528 
L 653 765 
C 653 236 589 159 109 121 
L 109 0 
L 1882 0 
L 1882 134 
C 1389 134 1306 219 1306 692 
L 1306 1984 
L 1664 1984 
L 3187 0 
L 4218 0 
z
M 2803 3123 
C 2803 2807 2669 2542 2438 2423 
C 2144 2258 1920 2221 1306 2221 
L 1306 3762 
C 1306 3937 1376 3987 1632 3987 
C 2432 3987 2803 3716 2803 3123 
z
" transform="scale(0.015625)"/>
     </defs>
     <use xlink:href="#TeXGyreTermesX-Regular-28" transform="scale(0.996264)"/>
     <use xlink:href="#TeXGyreTermesX-Regular-64" transform="translate(33.17561 0) scale(0.996264)"/>
     <use xlink:href="#TeXGyreTermesX-Regular-29" transform="translate(82.98881 0) scale(0.996264)"/>
     <use xlink:href="#TeXGyreTermesX-Regular-52" transform="translate(141.07102 0) scale(0.996264)"/>
     <use xlink:href="#TeXGyreTermesX-Regular-42" transform="translate(207.521812 0) scale(0.996264)"/>
     <use xlink:href="#TeXGyreTermesX-Regular-2d" transform="translate(273.972603 0) scale(0.996264)"/>
     <use xlink:href="#TeXGyreTermesX-Regular-50" transform="translate(307.148213 0) scale(0.996264)"/>
     <use xlink:href="#TeXGyreTermesX-Regular-57" transform="translate(362.540467 0) scale(0.996264)"/>
     <use xlink:href="#TeXGyreTermesX-Regular-4c" transform="translate(456.587814 0) scale(0.996264)"/>
    </g>
   </g>
  </g>
 </g>
 <defs>
  <clipPath id="p80cf22b48d">
   <rect x="24.902696" y="7.2" width="136.653061" height="136.653061"/>
  </clipPath>
  <clipPath id="p7797367d1b">
   <rect x="202.551676" y="7.2" width="136.653061" height="136.653061"/>
  </clipPath>
  <clipPath id="p93c0651960">
   <rect x="380.200655" y="7.2" width="136.653061" height="136.653061"/>
  </clipPath>
  <clipPath id="pec745493b0">
   <rect x="557.849635" y="7.2" width="136.653061" height="136.653061"/>
  </clipPath>
 </defs>
</svg>
