<?xml version="1.0" encoding="utf-8" standalone="no"?>
<!DOCTYPE svg PUBLIC "-//W3C//DTD SVG 1.1//EN"
  "http://www.w3.org/Graphics/SVG/1.1/DTD/svg11.dtd">
<svg xmlns:xlink="http://www.w3.org/1999/xlink" width="705.440407pt" height="166.46352pt" viewBox="0 0 705.440407 166.46352" xmlns="http://www.w3.org/2000/svg" version="1.1">
 <metadata>
  <rdf:RDF xmlns:dc="http://purl.org/dc/elements/1.1/" xmlns:cc="http://creativecommons.org/ns#" xmlns:rdf="http://www.w3.org/1999/02/22-rdf-syntax-ns#">
   <cc:Work>
    <dc:type rdf:resource="http://purl.org/dc/dcmitype/StillImage"/>
    <dc:date>2026-06-08T15:06:41.015233</dc:date>
    <dc:format>image/svg+xml</dc:format>
    <dc:creator>
     <cc:Agent>
      <dc:title>Matplotlib v3.8.4, https://matplotlib.org/</dc:title>
     </cc:Agent>
    </dc:creator>
   </cc:Work>
  </rdf:RDF>
 </metadata>
 <defs>
  <style type="text/css">*{stroke-linejoin: round; stroke-linecap: butt}</style>
 </defs>
 <g id="figure_1">
  <g id="patch_1">
   <path d="M 0 166.46352 
L 705.440407 166.46352 
L 705.440407 0 
L 0 0 
L 0 166.46352 
z
" style="fill: none"/>
  </g>
  <g id="patch_2">
   <path d="M 7.2 148.168421 
L 148.168421 148.168421 
L 148.168421 7.2 
L 7.2 7.2 
L 7.2 148.168421 
z
" style="fill: none"/>
  </g>
  <g id="pane3d_1">
   <g id="patch_3">
    <path d="M 79.589189 79.177725 
L 16.633008 106.038635 
L 14.211752 44.356071 
L 79.589189 20.98699 
" style="fill: none; opacity: 0"/>
   </g>
  </g>
  <g id="pane3d_2">
   <g id="patch_4">
    <path d="M 142.54537 106.038635 
L 79.589189 79.177725 
L 79.589189 20.98699 
L 144.966626 44.356071 
" style="fill: none; opacity: 0"/>
   </g>
  </g>
  <g id="pane3d_3">
   <g id="patch_5">
    <path d="M 142.54537 106.038635 
L 79.589189 79.177725 
L 16.633008 106.038635 
L 79.589189 137.247814 
" style="fill: none; opacity: 0"/>
   </g>
  </g>
  <g id="grid3d_1">
   <g id="Line3DCollection_1">
    <path d="M 75.280806 135.112026 
L 138.2595 104.210023 
L 140.504813 42.761202 
" style="fill: none; stroke: #b0b0b0; stroke-width: 0.8"/>
    <path d="M 56.134776 125.620791 
L 119.173644 96.066845 
L 120.655193 35.66598 
" style="fill: none; stroke: #b0b0b0; stroke-width: 0.8"/>
    <path d="M 37.845617 116.554332 
L 100.880956 88.262079 
L 101.660689 28.876419 
" style="fill: none; stroke: #b0b0b0; stroke-width: 0.8"/>
    <path d="M 20.357065 107.884756 
L 83.332996 80.775059 
L 83.467208 22.373183 
" style="fill: none; stroke: #b0b0b0; stroke-width: 0.8"/>
   </g>
  </g>
  <g id="grid3d_2">
   <g id="Line3DCollection_2">
    <path d="M 75.71117 22.373183 
L 75.845382 80.775059 
L 138.821313 107.884756 
" style="fill: none; stroke: #b0b0b0; stroke-width: 0.8"/>
    <path d="M 57.51769 28.876419 
L 58.297423 88.262079 
L 121.332761 116.554332 
" style="fill: none; stroke: #b0b0b0; stroke-width: 0.8"/>
    <path d="M 38.523185 35.66598 
L 40.004734 96.066845 
L 103.043602 125.620791 
" style="fill: none; stroke: #b0b0b0; stroke-width: 0.8"/>
    <path d="M 18.673565 42.761202 
L 20.918879 104.210023 
L 83.897572 135.112026 
" style="fill: none; stroke: #b0b0b0; stroke-width: 0.8"/>
   </g>
  </g>
  <g id="grid3d_3">
   <g id="Line3DCollection_3">
    <path d="M 142.592037 104.849791 
L 79.589189 78.053235 
L 16.586342 104.849791 
" style="fill: none; stroke: #b0b0b0; stroke-width: 0.8"/>
    <path d="M 143.394078 84.41744 
L 79.589189 58.745039 
L 15.784301 84.41744 
" style="fill: none; stroke: #b0b0b0; stroke-width: 0.8"/>
    <path d="M 144.216802 63.458163 
L 79.589189 38.974451 
L 14.961576 63.458163 
" style="fill: none; stroke: #b0b0b0; stroke-width: 0.8"/>
   </g>
  </g>
  <g id="axis3d_1">
   <g id="line2d_1">
    <path d="M 16.633008 106.038635 
L 79.589189 137.247814 
" style="fill: none; stroke: #000000; stroke-width: 0.8; stroke-linecap: square"/>
   </g>
   <g id="xtick_1">
    <g id="line2d_2">
     <path d="M 75.824856 134.845074 
L 74.1906 135.646961 
" style="fill: none; stroke: #000000; stroke-width: 0.8; stroke-linecap: square"/>
    </g>
    <g id="text_1">
     <!-- $\mathdefault{0}$ -->
     <g transform="translate(62.090071 157.101629) scale(0.1 -0.1)">
      <defs>
       <path id="TeXGyreTermesX-Regular-30" d="M 3046 2138 
C 3046 3450 2464 4352 1626 4352 
C 1274 4352 1005 4244 768 4020 
C 397 3661 154 2925 154 2176 
C 154 1479 365 730 666 372 
C 902 90 1229 -64 1600 -64 
C 1926 -64 2202 45 2432 269 
C 2803 621 3046 1364 3046 2138 
z
M 2432 2125 
C 2432 788 2150 103 1600 103 
C 1050 103 768 788 768 2119 
C 768 3476 1056 4186 1606 4186 
C 2144 4186 2432 3463 2432 2125 
z
" transform="scale(0.015625)"/>
      </defs>
      <use xlink:href="#TeXGyreTermesX-Regular-30" transform="scale(0.996264)"/>
     </g>
    </g>
   </g>
   <g id="xtick_2">
    <g id="line2d_3">
     <path d="M 56.678425 125.365917 
L 55.045422 126.131503 
" style="fill: none; stroke: #000000; stroke-width: 0.8; stroke-linecap: square"/>
    </g>
    <g id="text_2">
     <!-- $\mathdefault{1}$ -->
     <g transform="translate(43.070493 147.201951) scale(0.1 -0.1)">
      <defs>
       <path id="TeXGyreTermesX-Regular-31" d="M 2522 0 
L 2522 96 
C 2016 96 1914 160 1914 470 
L 1914 4327 
L 1862 4339 
L 710 3757 
L 710 3667 
C 787 3699 858 3725 883 3738 
C 998 3783 1107 3808 1171 3808 
C 1306 3808 1363 3711 1363 3505 
L 1363 592 
C 1363 379 1312 232 1210 173 
C 1114 116 1024 96 755 96 
L 755 0 
L 2522 0 
z
" transform="scale(0.015625)"/>
      </defs>
      <use xlink:href="#TeXGyreTermesX-Regular-31" transform="scale(0.996264)"/>
     </g>
    </g>
   </g>
   <g id="xtick_3">
    <g id="line2d_4">
     <path d="M 38.388356 116.310733 
L 36.758133 117.042429 
" style="fill: none; stroke: #000000; stroke-width: 0.8; stroke-linecap: square"/>
    </g>
    <g id="text_3">
     <!-- $\mathdefault{2}$ -->
     <g transform="translate(24.907342 137.748043) scale(0.1 -0.1)">
      <defs>
       <path id="TeXGyreTermesX-Regular-32" d="M 3040 875 
L 2957 907 
C 2720 544 2637 486 2349 486 
L 819 486 
L 1894 1609 
C 2464 2202 2714 2687 2714 3185 
C 2714 3823 2195 4313 1530 4313 
C 1178 4313 845 4173 608 3918 
C 403 3700 307 3496 198 3043 
L 333 3011 
C 589 3636 819 3840 1261 3840 
C 1798 3840 2163 3476 2163 2940 
C 2163 2443 1869 1850 1331 1282 
L 192 77 
L 192 0 
L 2688 0 
L 3040 875 
z
" transform="scale(0.015625)"/>
      </defs>
      <use xlink:href="#TeXGyreTermesX-Regular-32" transform="scale(0.996264)"/>
     </g>
    </g>
   </g>
   <g id="xtick_4">
    <g id="line2d_5">
     <path d="M 20.898452 107.651702 
L 19.272333 108.351709 
" style="fill: none; stroke: #000000; stroke-width: 0.8; stroke-linecap: square"/>
    </g>
    <g id="text_4">
     <!-- $\mathdefault{3}$ -->
     <g transform="translate(7.544046 128.710459) scale(0.1 -0.1)">
      <defs>
       <path id="TeXGyreTermesX-Regular-33" d="M 2765 1428 
C 2765 1754 2662 2055 2477 2253 
C 2349 2394 2227 2471 1946 2592 
C 2387 2893 2547 3130 2547 3476 
C 2547 3994 2138 4352 1549 4352 
C 1229 4352 947 4244 717 4039 
C 525 3866 429 3699 288 3315 
L 384 3290 
C 646 3757 934 3968 1338 3968 
C 1754 3968 2042 3687 2042 3284 
C 2042 3053 1946 2823 1786 2663 
C 1594 2471 1414 2375 979 2221 
L 979 2138 
C 1357 2138 1504 2125 1658 2068 
C 2054 1927 2304 1562 2304 1120 
C 2304 583 1939 167 1466 167 
C 1293 167 1165 212 928 365 
C 736 480 627 525 518 525 
C 371 525 275 436 275 301 
C 275 77 550 -64 998 -64 
C 1491 -64 1997 103 2298 365 
C 2598 628 2765 999 2765 1428 
z
" transform="scale(0.015625)"/>
      </defs>
      <use xlink:href="#TeXGyreTermesX-Regular-33" transform="scale(0.996264)"/>
     </g>
    </g>
   </g>
  </g>
  <g id="axis3d_2">
   <g id="line2d_6">
    <path d="M 142.54537 106.038635 
L 79.589189 137.247814 
" style="fill: none; stroke: #000000; stroke-width: 0.8; stroke-linecap: square"/>
   </g>
   <g id="xtick_5">
    <g id="line2d_7">
     <path d="M 138.279926 107.651702 
L 139.906045 108.351709 
" style="fill: none; stroke: #000000; stroke-width: 0.8; stroke-linecap: square"/>
    </g>
    <g id="text_5">
     <!-- $\mathdefault{0}$ -->
     <g transform="translate(146.653012 128.710459) scale(0.1 -0.1)">
      <use xlink:href="#TeXGyreTermesX-Regular-30" transform="scale(0.996264)"/>
     </g>
    </g>
   </g>
   <g id="xtick_6">
    <g id="line2d_8">
     <path d="M 120.790022 116.310733 
L 122.420246 117.042429 
" style="fill: none; stroke: #000000; stroke-width: 0.8; stroke-linecap: square"/>
    </g>
    <g id="text_6">
     <!-- $\mathdefault{1}$ -->
     <g transform="translate(129.289716 137.748043) scale(0.1 -0.1)">
      <use xlink:href="#TeXGyreTermesX-Regular-31" transform="scale(0.996264)"/>
     </g>
    </g>
   </g>
   <g id="xtick_7">
    <g id="line2d_9">
     <path d="M 102.499953 125.365917 
L 104.132957 126.131503 
" style="fill: none; stroke: #000000; stroke-width: 0.8; stroke-linecap: square"/>
    </g>
    <g id="text_7">
     <!-- $\mathdefault{2}$ -->
     <g transform="translate(111.126565 147.201951) scale(0.1 -0.1)">
      <use xlink:href="#TeXGyreTermesX-Regular-32" transform="scale(0.996264)"/>
     </g>
    </g>
   </g>
   <g id="xtick_8">
    <g id="line2d_10">
     <path d="M 83.353522 134.845074 
L 84.987778 135.646961 
" style="fill: none; stroke: #000000; stroke-width: 0.8; stroke-linecap: square"/>
    </g>
    <g id="text_8">
     <!-- $\mathdefault{3}$ -->
     <g transform="translate(92.106987 157.101629) scale(0.1 -0.1)">
      <use xlink:href="#TeXGyreTermesX-Regular-33" transform="scale(0.996264)"/>
     </g>
    </g>
   </g>
  </g>
  <g id="axis3d_3">
   <g id="line2d_11">
    <path d="M 142.54537 106.038635 
L 144.966626 44.356071 
" style="fill: none; stroke: #000000; stroke-width: 0.8; stroke-linecap: square"/>
   </g>
   <g id="xtick_9">
    <g id="line2d_12">
     <path d="M 142.050569 104.619493 
L 143.676921 105.311217 
" style="fill: none; stroke: #000000; stroke-width: 0.8; stroke-linecap: square"/>
    </g>
    <g id="text_9">
     <!-- $\mathdefault{0}$ -->
     <g transform="translate(159.837752 111.689134) scale(0.1 -0.1)">
      <use xlink:href="#TeXGyreTermesX-Regular-30" transform="scale(0.996264)"/>
     </g>
    </g>
   </g>
   <g id="xtick_10">
    <g id="line2d_13">
     <path d="M 142.845235 84.196608 
L 144.493765 84.859907 
" style="fill: none; stroke: #000000; stroke-width: 0.8; stroke-linecap: square"/>
    </g>
    <g id="text_10">
     <!-- $\mathdefault{20}$ -->
     <g transform="translate(158.400382 91.256782) scale(0.1 -0.1)">
      <use xlink:href="#TeXGyreTermesX-Regular-32" transform="scale(0.996264)"/>
      <use xlink:href="#TeXGyreTermesX-Regular-30" transform="translate(49.8132 0) scale(0.996264)"/>
     </g>
    </g>
   </g>
   <g id="xtick_11">
    <g id="line2d_14">
     <path d="M 143.660381 63.247367 
L 145.3317 63.880534 
" style="fill: none; stroke: #000000; stroke-width: 0.8; stroke-linecap: square"/>
    </g>
    <g id="text_11">
     <!-- $\mathdefault{40}$ -->
     <g transform="translate(159.480835 70.297505) scale(0.1 -0.1)">
      <defs>
       <path id="TeXGyreTermesX-Regular-34" d="M 3021 1088 
L 3021 1497 
L 2368 1497 
L 2368 4352 
L 2086 4352 
L 77 1497 
L 77 1088 
L 1875 1088 
L 1875 32 
L 2368 32 
L 2368 1088 
L 3021 1088 
z
M 1869 1497 
L 333 1497 
L 1869 3698 
L 1869 1497 
z
" transform="scale(0.015625)"/>
      </defs>
      <use xlink:href="#TeXGyreTermesX-Regular-34" transform="scale(0.996264)"/>
      <use xlink:href="#TeXGyreTermesX-Regular-30" transform="translate(49.8132 0) scale(0.996264)"/>
     </g>
    </g>
   </g>
  </g>
  <g id="axes_1">
   <g id="line2d_15">
    <path d="M 134.573492 104.849791 
L 70.806453 118.482071 
L 22.57637 45.636183 
L 134.573492 104.849791 
" clip-path="url(#p5859b85b1b)" style="fill: none; stroke: #000000; stroke-width: 1.5; stroke-linecap: square"/>
   </g>
   <g id="Poly3DCollection_1">
    <path d="M 134.573492 104.849791 
L 22.57637 45.636183 
L 70.806453 118.482071 
z
" clip-path="url(#p5859b85b1b)" style="fill: #007200; fill-opacity: 0.4"/>
   </g>
   <g id="text_12">
    <!-- (a) CE-L -->
    <g transform="translate(56.2725 18.962021) scale(0.12 -0.12)">
     <defs>
      <path id="TeXGyreTermesX-Regular-28" d="M 1946 -1030 
C 1434 -627 1254 -403 1082 77 
C 928 506 858 992 858 1632 
C 858 2304 941 2829 1114 3226 
C 1293 3622 1485 3853 1946 4224 
L 1888 4326 
C 1414 4019 1222 3853 986 3558 
C 531 3002 307 2362 307 1613 
C 307 800 544 173 1107 -480 
C 1370 -787 1536 -928 1869 -1133 
L 1946 -1030 
z
" transform="scale(0.015625)"/>
      <path id="TeXGyreTermesX-Regular-61" d="M 2829 256 
L 2829 423 
C 2720 333 2643 301 2547 301 
C 2400 301 2355 390 2355 672 
L 2355 1920 
C 2355 2246 2323 2426 2234 2573 
C 2099 2816 1824 2944 1434 2944 
C 1107 2944 800 2854 621 2707 
C 461 2573 358 2387 358 2227 
C 358 2080 480 1952 634 1952 
C 787 1952 922 2080 922 2221 
C 922 2246 915 2278 909 2323 
C 896 2381 890 2432 890 2477 
C 890 2650 1094 2790 1350 2790 
C 1664 2790 1837 2605 1837 2259 
L 1837 1869 
C 851 1472 742 1421 467 1178 
C 326 1050 237 832 237 621 
C 237 218 512 -64 909 -64 
C 1190 -64 1453 70 1843 403 
C 1875 64 1990 -64 2253 -64 
C 2470 -64 2605 13 2829 256 
z
M 1837 783 
C 1837 584 1805 526 1670 443 
C 1517 352 1338 301 1203 301 
C 979 301 800 520 800 796 
L 800 822 
C 800 1201 1062 1433 1837 1715 
L 1837 783 
z
" transform="scale(0.015625)"/>
      <path id="TeXGyreTermesX-Regular-29" d="M 1824 1581 
C 1824 2400 1587 3021 1024 3674 
C 762 3981 595 4122 262 4326 
L 186 4224 
C 698 3821 870 3597 1050 3117 
C 1203 2688 1274 2202 1274 1562 
C 1274 896 1190 365 1018 -26 
C 838 -429 646 -659 186 -1030 
L 243 -1133 
C 717 -826 909 -659 1146 -365 
C 1600 192 1824 832 1824 1581 
z
" transform="scale(0.015625)"/>
      <path id="TeXGyreTermesX-Regular-43" d="M 4051 749 
L 3936 864 
C 3462 410 3040 218 2509 218 
C 2125 218 1779 333 1510 557 
C 1133 871 922 1447 922 2189 
C 922 3348 1517 4096 2445 4096 
C 2816 4096 3142 3962 3398 3706 
C 3603 3501 3699 3322 3821 2906 
L 3968 2906 
L 3910 4352 
L 3776 4352 
C 3738 4218 3635 4141 3514 4141 
C 3450 4141 3360 4160 3258 4199 
C 2944 4301 2630 4352 2317 4352 
C 1824 4352 1318 4167 928 3847 
C 442 3444 179 2836 179 2106 
C 179 807 1030 -64 2304 -64 
C 3027 -64 3661 231 4051 749 
z
" transform="scale(0.015625)"/>
      <path id="TeXGyreTermesX-Regular-45" d="M 3821 1078 
L 3642 1078 
C 3322 389 3046 237 2131 237 
L 1958 237 
C 1651 237 1395 262 1338 307 
C 1299 334 1286 391 1286 514 
L 1286 2106 
L 2272 2106 
C 2797 2106 2893 2020 2976 1472 
L 3123 1472 
L 3123 2957 
L 2976 2957 
C 2893 2448 2790 2368 2272 2368 
L 1286 2368 
L 1286 3766 
C 1286 3943 1325 3981 1498 3981 
L 2362 3981 
C 3085 3981 3226 3886 3334 3314 
L 3494 3314 
L 3475 4224 
L 77 4224 
L 77 4102 
C 550 4064 634 3981 634 3525 
L 634 679 
C 634 223 544 134 77 134 
L 77 0 
L 3533 0 
L 3821 1078 
z
" transform="scale(0.015625)"/>
      <path id="TeXGyreTermesX-Regular-2d" d="M 1824 1216 
L 1824 1619 
L 250 1619 
L 250 1216 
L 1824 1216 
z
" transform="scale(0.015625)"/>
      <path id="TeXGyreTermesX-Regular-4c" d="M 3827 1114 
L 3667 1114 
C 3565 890 3482 742 3392 640 
C 3168 371 2816 250 2266 250 
L 1837 250 
C 1370 250 1286 288 1286 513 
L 1286 3550 
C 1286 4007 1376 4096 1882 4096 
L 1882 4237 
L 77 4237 
L 77 4115 
C 550 4077 634 3993 634 3536 
L 634 681 
C 634 223 544 134 77 134 
L 77 0 
L 3520 0 
L 3827 1114 
z
" transform="scale(0.015625)"/>
     </defs>
     <use xlink:href="#TeXGyreTermesX-Regular-28" transform="scale(0.996264)"/>
     <use xlink:href="#TeXGyreTermesX-Regular-61" transform="translate(33.17561 0) scale(0.996264)"/>
     <use xlink:href="#TeXGyreTermesX-Regular-29" transform="translate(77.409756 0) scale(0.996264)"/>
     <use xlink:href="#TeXGyreTermesX-Regular-43" transform="translate(135.491966 0) scale(0.996264)"/>
     <use xlink:href="#TeXGyreTermesX-Regular-45" transform="translate(201.942757 0) scale(0.996264)"/>
     <use xlink:href="#TeXGyreTermesX-Regular-2d" transform="translate(262.814494 0) scale(0.996264)"/>
     <use xlink:href="#TeXGyreTermesX-Regular-4c" transform="translate(295.990104 0) scale(0.996264)"/>
    </g>
   </g>
  </g>
  <g id="patch_6">
   <path d="M 183.410526 148.168421 
L 324.378947 148.168421 
L 324.378947 7.2 
L 183.410526 7.2 
L 183.410526 148.168421 
z
" style="fill: none"/>
  </g>
  <g id="pane3d_4">
   <g id="patch_7">
    <path d="M 255.799716 79.177725 
L 192.843534 106.038635 
L 190.422279 44.356071 
L 255.799716 20.98699 
" style="fill: none; opacity: 0"/>
   </g>
  </g>
  <g id="pane3d_5">
   <g id="patch_8">
    <path d="M 318.755897 106.038635 
L 255.799716 79.177725 
L 255.799716 20.98699 
L 321.177152 44.356071 
" style="fill: none; opacity: 0"/>
   </g>
  </g>
  <g id="pane3d_6">
   <g id="patch_9">
    <path d="M 318.755897 106.038635 
L 255.799716 79.177725 
L 192.843534 106.038635 
L 255.799716 137.247814 
" style="fill: none; opacity: 0"/>
   </g>
  </g>
  <g id="grid3d_4">
   <g id="Line3DCollection_4">
    <path d="M 251.491332 135.112026 
L 314.470026 104.210023 
L 316.715339 42.761202 
" style="fill: none; stroke: #b0b0b0; stroke-width: 0.8"/>
    <path d="M 232.345302 125.620791 
L 295.384171 96.066845 
L 296.865719 35.66598 
" style="fill: none; stroke: #b0b0b0; stroke-width: 0.8"/>
    <path d="M 214.056143 116.554332 
L 277.091482 88.262079 
L 277.871215 28.876419 
" style="fill: none; stroke: #b0b0b0; stroke-width: 0.8"/>
    <path d="M 196.567592 107.884756 
L 259.543522 80.775059 
L 259.677735 22.373183 
" style="fill: none; stroke: #b0b0b0; stroke-width: 0.8"/>
   </g>
  </g>
  <g id="grid3d_5">
   <g id="Line3DCollection_5">
    <path d="M 251.921696 22.373183 
L 252.055909 80.775059 
L 315.031839 107.884756 
" style="fill: none; stroke: #b0b0b0; stroke-width: 0.8"/>
    <path d="M 233.728216 28.876419 
L 234.507949 88.262079 
L 297.543288 116.554332 
" style="fill: none; stroke: #b0b0b0; stroke-width: 0.8"/>
    <path d="M 214.733712 35.66598 
L 216.21526 96.066845 
L 279.254129 125.620791 
" style="fill: none; stroke: #b0b0b0; stroke-width: 0.8"/>
    <path d="M 194.884092 42.761202 
L 197.129405 104.210023 
L 260.108099 135.112026 
" style="fill: none; stroke: #b0b0b0; stroke-width: 0.8"/>
   </g>
  </g>
  <g id="grid3d_6">
   <g id="Line3DCollection_6">
    <path d="M 318.802563 104.849791 
L 255.799716 78.053235 
L 192.796868 104.849791 
" style="fill: none; stroke: #b0b0b0; stroke-width: 0.8"/>
    <path d="M 319.665906 82.855743 
L 255.799716 57.270672 
L 191.933525 82.855743 
" style="fill: none; stroke: #b0b0b0; stroke-width: 0.8"/>
    <path d="M 320.553239 60.25054 
L 255.799716 35.951916 
L 191.046192 60.25054 
" style="fill: none; stroke: #b0b0b0; stroke-width: 0.8"/>
   </g>
  </g>
  <g id="axis3d_4">
   <g id="line2d_16">
    <path d="M 192.843534 106.038635 
L 255.799716 137.247814 
" style="fill: none; stroke: #000000; stroke-width: 0.8; stroke-linecap: square"/>
   </g>
   <g id="xtick_12">
    <g id="line2d_17">
     <path d="M 252.035383 134.845074 
L 250.401126 135.646961 
" style="fill: none; stroke: #000000; stroke-width: 0.8; stroke-linecap: square"/>
    </g>
    <g id="text_13">
     <!-- $\mathdefault{0}$ -->
     <g transform="translate(238.300598 157.101629) scale(0.1 -0.1)">
      <use xlink:href="#TeXGyreTermesX-Regular-30" transform="scale(0.996264)"/>
     </g>
    </g>
   </g>
   <g id="xtick_13">
    <g id="line2d_18">
     <path d="M 232.888952 125.365917 
L 231.255948 126.131503 
" style="fill: none; stroke: #000000; stroke-width: 0.8; stroke-linecap: square"/>
    </g>
    <g id="text_14">
     <!-- $\mathdefault{1}$ -->
     <g transform="translate(219.28102 147.201951) scale(0.1 -0.1)">
      <use xlink:href="#TeXGyreTermesX-Regular-31" transform="scale(0.996264)"/>
     </g>
    </g>
   </g>
   <g id="xtick_14">
    <g id="line2d_19">
     <path d="M 214.598882 116.310733 
L 212.968659 117.042429 
" style="fill: none; stroke: #000000; stroke-width: 0.8; stroke-linecap: square"/>
    </g>
    <g id="text_15">
     <!-- $\mathdefault{2}$ -->
     <g transform="translate(201.117869 137.748043) scale(0.1 -0.1)">
      <use xlink:href="#TeXGyreTermesX-Regular-32" transform="scale(0.996264)"/>
     </g>
    </g>
   </g>
   <g id="xtick_15">
    <g id="line2d_20">
     <path d="M 197.108979 107.651702 
L 195.48286 108.351709 
" style="fill: none; stroke: #000000; stroke-width: 0.8; stroke-linecap: square"/>
    </g>
    <g id="text_16">
     <!-- $\mathdefault{3}$ -->
     <g transform="translate(183.754572 128.710459) scale(0.1 -0.1)">
      <use xlink:href="#TeXGyreTermesX-Regular-33" transform="scale(0.996264)"/>
     </g>
    </g>
   </g>
  </g>
  <g id="axis3d_5">
   <g id="line2d_21">
    <path d="M 318.755897 106.038635 
L 255.799716 137.247814 
" style="fill: none; stroke: #000000; stroke-width: 0.8; stroke-linecap: square"/>
   </g>
   <g id="xtick_16">
    <g id="line2d_22">
     <path d="M 314.490452 107.651702 
L 316.116571 108.351709 
" style="fill: none; stroke: #000000; stroke-width: 0.8; stroke-linecap: square"/>
    </g>
    <g id="text_17">
     <!-- $\mathdefault{0}$ -->
     <g transform="translate(322.863539 128.710459) scale(0.1 -0.1)">
      <use xlink:href="#TeXGyreTermesX-Regular-30" transform="scale(0.996264)"/>
     </g>
    </g>
   </g>
   <g id="xtick_17">
    <g id="line2d_23">
     <path d="M 297.000549 116.310733 
L 298.630772 117.042429 
" style="fill: none; stroke: #000000; stroke-width: 0.8; stroke-linecap: square"/>
    </g>
    <g id="text_18">
     <!-- $\mathdefault{1}$ -->
     <g transform="translate(305.500242 137.748043) scale(0.1 -0.1)">
      <use xlink:href="#TeXGyreTermesX-Regular-31" transform="scale(0.996264)"/>
     </g>
    </g>
   </g>
   <g id="xtick_18">
    <g id="line2d_24">
     <path d="M 278.710479 125.365917 
L 280.343483 126.131503 
" style="fill: none; stroke: #000000; stroke-width: 0.8; stroke-linecap: square"/>
    </g>
    <g id="text_19">
     <!-- $\mathdefault{2}$ -->
     <g transform="translate(287.337091 147.201951) scale(0.1 -0.1)">
      <use xlink:href="#TeXGyreTermesX-Regular-32" transform="scale(0.996264)"/>
     </g>
    </g>
   </g>
   <g id="xtick_19">
    <g id="line2d_25">
     <path d="M 259.564048 134.845074 
L 261.198305 135.646961 
" style="fill: none; stroke: #000000; stroke-width: 0.8; stroke-linecap: square"/>
    </g>
    <g id="text_20">
     <!-- $\mathdefault{3}$ -->
     <g transform="translate(268.317513 157.101629) scale(0.1 -0.1)">
      <use xlink:href="#TeXGyreTermesX-Regular-33" transform="scale(0.996264)"/>
     </g>
    </g>
   </g>
  </g>
  <g id="axis3d_6">
   <g id="line2d_26">
    <path d="M 318.755897 106.038635 
L 321.177152 44.356071 
" style="fill: none; stroke: #000000; stroke-width: 0.8; stroke-linecap: square"/>
   </g>
   <g id="xtick_20">
    <g id="line2d_27">
     <path d="M 318.261096 104.619493 
L 319.887447 105.311217 
" style="fill: none; stroke: #000000; stroke-width: 0.8; stroke-linecap: square"/>
    </g>
    <g id="text_21">
     <!-- $\mathdefault{0}$ -->
     <g transform="translate(336.048279 111.689134) scale(0.1 -0.1)">
      <use xlink:href="#TeXGyreTermesX-Regular-30" transform="scale(0.996264)"/>
     </g>
    </g>
   </g>
   <g id="xtick_21">
    <g id="line2d_28">
     <path d="M 319.116499 82.635648 
L 320.766726 83.296736 
" style="fill: none; stroke: #000000; stroke-width: 0.8; stroke-linecap: square"/>
    </g>
    <g id="text_22">
     <!-- $\mathdefault{20}$ -->
     <g transform="translate(334.691414 89.695085) scale(0.1 -0.1)">
      <use xlink:href="#TeXGyreTermesX-Regular-32" transform="scale(0.996264)"/>
      <use xlink:href="#TeXGyreTermesX-Regular-30" transform="translate(49.8132 0) scale(0.996264)"/>
     </g>
    </g>
   </g>
   <g id="xtick_22">
    <g id="line2d_29">
     <path d="M 319.995657 60.041308 
L 321.670467 60.669777 
" style="fill: none; stroke: #000000; stroke-width: 0.8; stroke-linecap: square"/>
    </g>
    <g id="text_23">
     <!-- $\mathdefault{40}$ -->
     <g transform="translate(335.856715 67.089883) scale(0.1 -0.1)">
      <use xlink:href="#TeXGyreTermesX-Regular-34" transform="scale(0.996264)"/>
      <use xlink:href="#TeXGyreTermesX-Regular-30" transform="translate(49.8132 0) scale(0.996264)"/>
     </g>
    </g>
   </g>
  </g>
  <g id="axes_2">
   <g id="line2d_30">
    <path d="M 247.013999 117.942051 
L 244.691854 113.801887 
L 242.256886 109.609124 
L 239.433311 104.901604 
L 236.31579 99.857151 
L 232.780253 94.291344 
L 228.926972 88.37773 
L 224.746913 82.111734 
L 220.23193 75.491497 
L 215.373155 68.51514 
L 210.161694 61.181938 
L 204.590969 53.495127 
L 198.786897 45.636183 
" clip-path="url(#p5c88f37282)" style="fill: none; stroke: #000000; stroke-width: 1.5; stroke-linecap: square"/>
   </g>
   <g id="line2d_31">
    <path d="M 310.784019 104.849791 
L 247.013999 117.942051 
" clip-path="url(#p5c88f37282)" style="fill: none; stroke: #000000; stroke-width: 1.5; stroke-linecap: square"/>
   </g>
   <g id="line2d_32">
    <path d="M 310.784019 104.849791 
L 198.786897 45.636183 
" clip-path="url(#p5c88f37282)" style="fill: none; stroke: #000000; stroke-width: 1.5; stroke-linecap: square"/>
   </g>
   <g id="line2d_33">
    <path d="M 310.784019 104.849791 
L 244.691854 113.801887 
" clip-path="url(#p5c88f37282)" style="fill: none; stroke: #0000ff; stroke-opacity: 0.8; stroke-width: 0.7; stroke-linecap: square"/>
   </g>
   <g id="line2d_34">
    <path d="M 310.784019 104.849791 
L 242.256886 109.609124 
" clip-path="url(#p5c88f37282)" style="fill: none; stroke: #0000ff; stroke-opacity: 0.8; stroke-width: 0.7; stroke-linecap: square"/>
   </g>
   <g id="line2d_35">
    <path d="M 310.784019 104.849791 
L 239.433311 104.901604 
" clip-path="url(#p5c88f37282)" style="fill: none; stroke: #0000ff; stroke-opacity: 0.8; stroke-width: 0.7; stroke-linecap: square"/>
   </g>
   <g id="line2d_36">
    <path d="M 310.784019 104.849791 
L 236.31579 99.857151 
" clip-path="url(#p5c88f37282)" style="fill: none; stroke: #0000ff; stroke-opacity: 0.8; stroke-width: 0.7; stroke-linecap: square"/>
   </g>
   <g id="line2d_37">
    <path d="M 310.784019 104.849791 
L 232.780253 94.291344 
" clip-path="url(#p5c88f37282)" style="fill: none; stroke: #0000ff; stroke-opacity: 0.8; stroke-width: 0.7; stroke-linecap: square"/>
   </g>
   <g id="line2d_38">
    <path d="M 310.784019 104.849791 
L 228.926972 88.37773 
" clip-path="url(#p5c88f37282)" style="fill: none; stroke: #0000ff; stroke-opacity: 0.8; stroke-width: 0.7; stroke-linecap: square"/>
   </g>
   <g id="line2d_39">
    <path d="M 310.784019 104.849791 
L 224.746913 82.111734 
" clip-path="url(#p5c88f37282)" style="fill: none; stroke: #0000ff; stroke-opacity: 0.8; stroke-width: 0.7; stroke-linecap: square"/>
   </g>
   <g id="line2d_40">
    <path d="M 310.784019 104.849791 
L 220.23193 75.491497 
" clip-path="url(#p5c88f37282)" style="fill: none; stroke: #0000ff; stroke-opacity: 0.8; stroke-width: 0.7; stroke-linecap: square"/>
   </g>
   <g id="line2d_41">
    <path d="M 310.784019 104.849791 
L 215.373155 68.51514 
" clip-path="url(#p5c88f37282)" style="fill: none; stroke: #0000ff; stroke-opacity: 0.8; stroke-width: 0.7; stroke-linecap: square"/>
   </g>
   <g id="line2d_42">
    <path d="M 310.784019 104.849791 
L 210.161694 61.181938 
" clip-path="url(#p5c88f37282)" style="fill: none; stroke: #0000ff; stroke-opacity: 0.8; stroke-width: 0.7; stroke-linecap: square"/>
   </g>
   <g id="line2d_43">
    <path d="M 310.784019 104.849791 
L 204.590969 53.495127 
" clip-path="url(#p5c88f37282)" style="fill: none; stroke: #0000ff; stroke-opacity: 0.8; stroke-width: 0.7; stroke-linecap: square"/>
   </g>
   <g id="Poly3DCollection_2">
    <path d="M 310.784019 104.849791 
L 204.590969 53.495127 
L 198.786897 45.636183 
z
" clip-path="url(#p5c88f37282)" style="fill: #00005f; fill-opacity: 0.25"/>
    <path d="M 310.784019 104.849791 
L 210.161694 61.181938 
L 204.590969 53.495127 
z
" clip-path="url(#p5c88f37282)" style="fill: #000061; fill-opacity: 0.25"/>
    <path d="M 310.784019 104.849791 
L 215.373155 68.51514 
L 210.161694 61.181938 
z
" clip-path="url(#p5c88f37282)" style="fill: #000062; fill-opacity: 0.25"/>
    <path d="M 310.784019 104.849791 
L 220.23193 75.491497 
L 215.373155 68.51514 
z
" clip-path="url(#p5c88f37282)" style="fill: #000063; fill-opacity: 0.25"/>
    <path d="M 310.784019 104.849791 
L 224.746913 82.111734 
L 220.23193 75.491497 
z
" clip-path="url(#p5c88f37282)" style="fill: #000065; fill-opacity: 0.25"/>
    <path d="M 310.784019 104.849791 
L 228.926972 88.37773 
L 224.746913 82.111734 
z
" clip-path="url(#p5c88f37282)" style="fill: #000066; fill-opacity: 0.25"/>
    <path d="M 310.784019 104.849791 
L 232.780253 94.291344 
L 228.926972 88.37773 
z
" clip-path="url(#p5c88f37282)" style="fill: #000067; fill-opacity: 0.25"/>
    <path d="M 310.784019 104.849791 
L 236.31579 99.857151 
L 232.780253 94.291344 
z
" clip-path="url(#p5c88f37282)" style="fill: #000068; fill-opacity: 0.25"/>
    <path d="M 310.784019 104.849791 
L 239.433311 104.901604 
L 236.31579 99.857151 
z
" clip-path="url(#p5c88f37282)" style="fill: #000068; fill-opacity: 0.25"/>
    <path d="M 310.784019 104.849791 
L 242.256886 109.609124 
L 239.433311 104.901604 
z
" clip-path="url(#p5c88f37282)" style="fill: #000069; fill-opacity: 0.25"/>
    <path d="M 310.784019 104.849791 
L 244.691854 113.801887 
L 242.256886 109.609124 
z
" clip-path="url(#p5c88f37282)" style="fill: #00006a; fill-opacity: 0.25"/>
    <path d="M 310.784019 104.849791 
L 247.013999 117.942051 
L 244.691854 113.801887 
z
" clip-path="url(#p5c88f37282)" style="fill: #00006a; fill-opacity: 0.25"/>
   </g>
   <g id="text_24">
    <!-- (b) SB-PWL -->
    <g transform="translate(223.510676 18.962021) scale(0.12 -0.12)">
     <defs>
      <path id="TeXGyreTermesX-Regular-62" d="M 2995 1555 
C 2995 2342 2509 2944 1869 2944 
C 1478 2944 1107 2714 979 2400 
L 979 4364 
L 947 4377 
C 678 4281 506 4230 205 4147 
L 19 4096 
L 19 3994 
C 58 4000 83 4000 128 4000 
C 384 4000 442 3942 442 3673 
L 442 347 
C 442 147 986 -64 1498 -64 
C 2342 -64 2995 640 2995 1555 
z
M 2432 1261 
C 2432 550 2125 141 1600 141 
C 1267 141 979 288 979 448 
L 979 2061 
C 979 2310 1280 2541 1613 2541 
C 2112 2541 2432 2042 2432 1261 
z
" transform="scale(0.015625)"/>
      <path id="TeXGyreTermesX-Regular-53" d="M 3142 1101 
C 3142 1632 2790 2042 1946 2503 
C 1274 2868 1005 3149 1005 3501 
C 1005 3853 1274 4090 1670 4090 
C 1958 4090 2227 3968 2451 3738 
C 2650 3533 2739 3367 2842 2989 
L 3002 2989 
L 2861 4352 
L 2726 4352 
C 2701 4212 2630 4135 2522 4135 
C 2458 4135 2355 4160 2240 4212 
C 2003 4301 1773 4352 1549 4352 
C 1299 4352 1030 4250 826 4084 
C 576 3878 454 3603 454 3250 
C 454 2743 736 2385 1453 2006 
C 1914 1756 2246 1499 2406 1256 
C 2464 1167 2496 1038 2496 878 
C 2496 454 2176 160 1709 160 
C 1133 160 736 513 416 1296 
L 269 1296 
L 461 -64 
L 602 -64 
C 608 57 685 147 781 147 
C 851 147 960 122 1082 79 
C 1325 -14 1581 -64 1837 -64 
C 2579 -64 3142 442 3142 1101 
z
" transform="scale(0.015625)"/>
      <path id="TeXGyreTermesX-Regular-42" d="M 3795 1165 
C 3795 1451 3680 1710 3482 1897 
C 3290 2072 3117 2150 2701 2253 
C 3034 2335 3168 2398 3322 2531 
C 3482 2671 3578 2903 3578 3163 
C 3578 3871 3008 4237 1901 4237 
L 109 4237 
L 109 4096 
C 646 4096 723 4026 723 3548 
L 723 689 
C 723 212 640 128 109 128 
L 109 0 
L 2246 0 
C 2746 0 3200 136 3437 356 
C 3667 564 3795 855 3795 1165 
z
M 3059 1159 
C 3059 809 2925 555 2669 406 
C 2464 290 2202 238 1779 238 
C 1466 238 1376 296 1376 504 
L 1376 2112 
C 1997 2112 2291 2080 2522 1982 
C 2886 1827 3059 1568 3059 1159 
z
M 2925 3137 
C 2925 2646 2586 2368 1984 2368 
L 1376 2368 
L 1376 3812 
C 1376 3944 1421 4001 1517 4001 
L 1798 4001 
C 2534 4001 2925 3699 2925 3137 
z
" transform="scale(0.015625)"/>
      <path id="TeXGyreTermesX-Regular-50" d="M 3469 3078 
C 3469 3344 3379 3584 3206 3768 
C 2950 4047 2394 4224 1792 4224 
L 102 4224 
L 102 4102 
C 576 4051 640 3987 640 3528 
L 640 766 
C 640 230 589 166 102 122 
L 102 0 
L 1894 0 
L 1894 128 
C 1389 128 1293 218 1293 693 
L 1293 1875 
C 1459 1856 1568 1856 1734 1856 
C 2234 1856 2579 1919 2854 2072 
C 3238 2274 3469 2660 3469 3078 
z
M 2771 3040 
C 2771 2428 2394 2112 1658 2112 
C 1530 2112 1440 2119 1293 2131 
L 1293 3772 
C 1293 3943 1338 3987 1510 3987 
C 2374 3987 2771 3690 2771 3040 
z
" transform="scale(0.015625)"/>
      <path id="TeXGyreTermesX-Regular-57" d="M 5965 4102 
L 5965 4224 
L 4698 4224 
L 4698 4102 
C 5024 4070 5139 4000 5139 3826 
C 5139 3692 5101 3524 5037 3345 
L 4237 1169 
L 3392 3358 
L 3315 3551 
C 3258 3685 3219 3807 3219 3877 
C 3219 4032 3366 4096 3712 4096 
L 3712 4224 
L 2003 4224 
L 2003 4096 
C 2368 4096 2432 4038 2650 3524 
L 2861 2998 
L 2176 1188 
L 1254 3612 
C 1210 3728 1184 3838 1184 3909 
C 1184 4051 1274 4096 1600 4096 
L 1600 4224 
L 32 4224 
L 32 4102 
C 358 4070 454 3955 691 3351 
L 1926 -96 
L 2022 -96 
L 3008 2619 
L 4032 -96 
L 4128 -96 
L 5434 3647 
C 5555 3981 5626 4038 5965 4102 
z
" transform="scale(0.015625)"/>
     </defs>
     <use xlink:href="#TeXGyreTermesX-Regular-28" transform="scale(0.996264)"/>
     <use xlink:href="#TeXGyreTermesX-Regular-62" transform="translate(33.17561 0) scale(0.996264)"/>
     <use xlink:href="#TeXGyreTermesX-Regular-29" transform="translate(82.98881 0) scale(0.996264)"/>
     <use xlink:href="#TeXGyreTermesX-Regular-53" transform="translate(141.07102 0) scale(0.996264)"/>
     <use xlink:href="#TeXGyreTermesX-Regular-42" transform="translate(196.463275 0) scale(0.996264)"/>
     <use xlink:href="#TeXGyreTermesX-Regular-2d" transform="translate(262.914066 0) scale(0.996264)"/>
     <use xlink:href="#TeXGyreTermesX-Regular-50" transform="translate(296.089676 0) scale(0.996264)"/>
     <use xlink:href="#TeXGyreTermesX-Regular-57" transform="translate(351.481931 0) scale(0.996264)"/>
     <use xlink:href="#TeXGyreTermesX-Regular-4c" transform="translate(445.529277 0) scale(0.996264)"/>
    </g>
   </g>
  </g>
  <g id="patch_10">
   <path d="M 359.621053 148.168421 
L 500.589474 148.168421 
L 500.589474 7.2 
L 359.621053 7.2 
L 359.621053 148.168421 
z
" style="fill: none"/>
  </g>
  <g id="pane3d_7">
   <g id="patch_11">
    <path d="M 432.010242 79.177725 
L 369.054061 106.038635 
L 366.632805 44.356071 
L 432.010242 20.98699 
" style="fill: none; opacity: 0"/>
   </g>
  </g>
  <g id="pane3d_8">
   <g id="patch_12">
    <path d="M 494.966423 106.038635 
L 432.010242 79.177725 
L 432.010242 20.98699 
L 497.387679 44.356071 
" style="fill: none; opacity: 0"/>
   </g>
  </g>
  <g id="pane3d_9">
   <g id="patch_13">
    <path d="M 494.966423 106.038635 
L 432.010242 79.177725 
L 369.054061 106.038635 
L 432.010242 137.247814 
" style="fill: none; opacity: 0"/>
   </g>
  </g>
  <g id="grid3d_7">
   <g id="Line3DCollection_7">
    <path d="M 427.701859 135.112026 
L 490.680552 104.210023 
L 492.925866 42.761202 
" style="fill: none; stroke: #b0b0b0; stroke-width: 0.8"/>
    <path d="M 408.555829 125.620791 
L 471.594697 96.066845 
L 473.076246 35.66598 
" style="fill: none; stroke: #b0b0b0; stroke-width: 0.8"/>
    <path d="M 390.26667 116.554332 
L 453.302008 88.262079 
L 454.081741 28.876419 
" style="fill: none; stroke: #b0b0b0; stroke-width: 0.8"/>
    <path d="M 372.778118 107.884756 
L 435.754049 80.775059 
L 435.888261 22.373183 
" style="fill: none; stroke: #b0b0b0; stroke-width: 0.8"/>
   </g>
  </g>
  <g id="grid3d_8">
   <g id="Line3DCollection_8">
    <path d="M 428.132223 22.373183 
L 428.266435 80.775059 
L 491.242366 107.884756 
" style="fill: none; stroke: #b0b0b0; stroke-width: 0.8"/>
    <path d="M 409.938742 28.876419 
L 410.718475 88.262079 
L 473.753814 116.554332 
" style="fill: none; stroke: #b0b0b0; stroke-width: 0.8"/>
    <path d="M 390.944238 35.66598 
L 392.425787 96.066845 
L 455.464655 125.620791 
" style="fill: none; stroke: #b0b0b0; stroke-width: 0.8"/>
    <path d="M 371.094618 42.761202 
L 373.339931 104.210023 
L 436.318625 135.112026 
" style="fill: none; stroke: #b0b0b0; stroke-width: 0.8"/>
   </g>
  </g>
  <g id="grid3d_9">
   <g id="Line3DCollection_9">
    <path d="M 495.013089 104.849791 
L 432.010242 78.053235 
L 369.007394 104.849791 
" style="fill: none; stroke: #b0b0b0; stroke-width: 0.8"/>
    <path d="M 495.876432 82.855743 
L 432.010242 57.270672 
L 368.144051 82.855743 
" style="fill: none; stroke: #b0b0b0; stroke-width: 0.8"/>
    <path d="M 496.763765 60.25054 
L 432.010242 35.951916 
L 367.256718 60.25054 
" style="fill: none; stroke: #b0b0b0; stroke-width: 0.8"/>
   </g>
  </g>
  <g id="axis3d_7">
   <g id="line2d_44">
    <path d="M 369.054061 106.038635 
L 432.010242 137.247814 
" style="fill: none; stroke: #000000; stroke-width: 0.8; stroke-linecap: square"/>
   </g>
   <g id="xtick_23">
    <g id="line2d_45">
     <path d="M 428.245909 134.845074 
L 426.611653 135.646961 
" style="fill: none; stroke: #000000; stroke-width: 0.8; stroke-linecap: square"/>
    </g>
    <g id="text_25">
     <!-- $\mathdefault{0}$ -->
     <g transform="translate(414.511124 157.101629) scale(0.1 -0.1)">
      <use xlink:href="#TeXGyreTermesX-Regular-30" transform="scale(0.996264)"/>
     </g>
    </g>
   </g>
   <g id="xtick_24">
    <g id="line2d_46">
     <path d="M 409.099478 125.365917 
L 407.466474 126.131503 
" style="fill: none; stroke: #000000; stroke-width: 0.8; stroke-linecap: square"/>
    </g>
    <g id="text_26">
     <!-- $\mathdefault{1}$ -->
     <g transform="translate(395.491546 147.201951) scale(0.1 -0.1)">
      <use xlink:href="#TeXGyreTermesX-Regular-31" transform="scale(0.996264)"/>
     </g>
    </g>
   </g>
   <g id="xtick_25">
    <g id="line2d_47">
     <path d="M 390.809409 116.310733 
L 389.179185 117.042429 
" style="fill: none; stroke: #000000; stroke-width: 0.8; stroke-linecap: square"/>
    </g>
    <g id="text_27">
     <!-- $\mathdefault{2}$ -->
     <g transform="translate(377.328395 137.748043) scale(0.1 -0.1)">
      <use xlink:href="#TeXGyreTermesX-Regular-32" transform="scale(0.996264)"/>
     </g>
    </g>
   </g>
   <g id="xtick_26">
    <g id="line2d_48">
     <path d="M 373.319505 107.651702 
L 371.693386 108.351709 
" style="fill: none; stroke: #000000; stroke-width: 0.8; stroke-linecap: square"/>
    </g>
    <g id="text_28">
     <!-- $\mathdefault{3}$ -->
     <g transform="translate(359.965099 128.710459) scale(0.1 -0.1)">
      <use xlink:href="#TeXGyreTermesX-Regular-33" transform="scale(0.996264)"/>
     </g>
    </g>
   </g>
  </g>
  <g id="axis3d_8">
   <g id="line2d_49">
    <path d="M 494.966423 106.038635 
L 432.010242 137.247814 
" style="fill: none; stroke: #000000; stroke-width: 0.8; stroke-linecap: square"/>
   </g>
   <g id="xtick_27">
    <g id="line2d_50">
     <path d="M 490.700979 107.651702 
L 492.327098 108.351709 
" style="fill: none; stroke: #000000; stroke-width: 0.8; stroke-linecap: square"/>
    </g>
    <g id="text_29">
     <!-- $\mathdefault{0}$ -->
     <g transform="translate(499.074065 128.710459) scale(0.1 -0.1)">
      <use xlink:href="#TeXGyreTermesX-Regular-30" transform="scale(0.996264)"/>
     </g>
    </g>
   </g>
   <g id="xtick_28">
    <g id="line2d_51">
     <path d="M 473.211075 116.310733 
L 474.841298 117.042429 
" style="fill: none; stroke: #000000; stroke-width: 0.8; stroke-linecap: square"/>
    </g>
    <g id="text_30">
     <!-- $\mathdefault{1}$ -->
     <g transform="translate(481.710769 137.748043) scale(0.1 -0.1)">
      <use xlink:href="#TeXGyreTermesX-Regular-31" transform="scale(0.996264)"/>
     </g>
    </g>
   </g>
   <g id="xtick_29">
    <g id="line2d_52">
     <path d="M 454.921006 125.365917 
L 456.554009 126.131503 
" style="fill: none; stroke: #000000; stroke-width: 0.8; stroke-linecap: square"/>
    </g>
    <g id="text_31">
     <!-- $\mathdefault{2}$ -->
     <g transform="translate(463.547618 147.201951) scale(0.1 -0.1)">
      <use xlink:href="#TeXGyreTermesX-Regular-32" transform="scale(0.996264)"/>
     </g>
    </g>
   </g>
   <g id="xtick_30">
    <g id="line2d_53">
     <path d="M 435.774575 134.845074 
L 437.408831 135.646961 
" style="fill: none; stroke: #000000; stroke-width: 0.8; stroke-linecap: square"/>
    </g>
    <g id="text_32">
     <!-- $\mathdefault{3}$ -->
     <g transform="translate(444.52804 157.101629) scale(0.1 -0.1)">
      <use xlink:href="#TeXGyreTermesX-Regular-33" transform="scale(0.996264)"/>
     </g>
    </g>
   </g>
  </g>
  <g id="axis3d_9">
   <g id="line2d_54">
    <path d="M 494.966423 106.038635 
L 497.387679 44.356071 
" style="fill: none; stroke: #000000; stroke-width: 0.8; stroke-linecap: square"/>
   </g>
   <g id="xtick_31">
    <g id="line2d_55">
     <path d="M 494.471622 104.619493 
L 496.097974 105.311217 
" style="fill: none; stroke: #000000; stroke-width: 0.8; stroke-linecap: square"/>
    </g>
    <g id="text_33">
     <!-- $\mathdefault{0}$ -->
     <g transform="translate(512.258805 111.689134) scale(0.1 -0.1)">
      <use xlink:href="#TeXGyreTermesX-Regular-30" transform="scale(0.996264)"/>
     </g>
    </g>
   </g>
   <g id="xtick_32">
    <g id="line2d_56">
     <path d="M 495.327025 82.635648 
L 496.977252 83.296736 
" style="fill: none; stroke: #000000; stroke-width: 0.8; stroke-linecap: square"/>
    </g>
    <g id="text_34">
     <!-- $\mathdefault{20}$ -->
     <g transform="translate(510.90194 89.695085) scale(0.1 -0.1)">
      <use xlink:href="#TeXGyreTermesX-Regular-32" transform="scale(0.996264)"/>
      <use xlink:href="#TeXGyreTermesX-Regular-30" transform="translate(49.8132 0) scale(0.996264)"/>
     </g>
    </g>
   </g>
   <g id="xtick_33">
    <g id="line2d_57">
     <path d="M 496.206184 60.041308 
L 497.880993 60.669777 
" style="fill: none; stroke: #000000; stroke-width: 0.8; stroke-linecap: square"/>
    </g>
    <g id="text_35">
     <!-- $\mathdefault{40}$ -->
     <g transform="translate(512.067241 67.089883) scale(0.1 -0.1)">
      <use xlink:href="#TeXGyreTermesX-Regular-34" transform="scale(0.996264)"/>
      <use xlink:href="#TeXGyreTermesX-Regular-30" transform="translate(49.8132 0) scale(0.996264)"/>
     </g>
    </g>
   </g>
  </g>
  <g id="axes_3">
   <g id="line2d_58">
    <path d="M 423.224525 117.942051 
L 420.902381 113.801887 
L 418.467413 109.609124 
L 415.643837 104.901604 
L 412.526316 99.857151 
L 408.990779 94.291344 
L 405.137498 88.37773 
L 400.957439 82.111734 
L 396.442456 75.491497 
L 391.583681 68.51514 
L 386.37222 61.181938 
L 380.801496 53.495127 
L 374.997423 45.636183 
" clip-path="url(#p18e004b1e6)" style="fill: none; stroke: #000000; stroke-width: 1.5; stroke-linecap: square"/>
   </g>
   <g id="line2d_59">
    <path d="M 423.277138 127.475249 
L 420.989753 126.356291 
L 418.599245 125.186887 
L 415.836913 123.835592 
L 412.798508 122.349246 
L 409.366638 120.670422 
L 405.642486 118.848617 
L 401.620736 116.881231 
L 397.29716 114.766197 
L 392.667054 112.501212 
L 387.725896 110.084065 
L 382.471537 107.513704 
L 377.025939 104.849791 
" clip-path="url(#p18e004b1e6)" style="fill: none; stroke: #800080; stroke-width: 1.5; stroke-linecap: square"/>
   </g>
   <g id="line2d_60">
    <path d="M 486.994545 104.849791 
L 423.277138 127.475249 
" clip-path="url(#p18e004b1e6)" style="fill: none; stroke: #800080; stroke-width: 1.5; stroke-linecap: square"/>
   </g>
   <g id="line2d_61">
    <path d="M 486.994545 104.849791 
L 377.025939 104.849791 
" clip-path="url(#p18e004b1e6)" style="fill: none; stroke: #800080; stroke-width: 1.5; stroke-linecap: square"/>
   </g>
   <g id="line2d_62">
    <path d="M 486.994545 104.849791 
L 423.224525 117.942051 
" clip-path="url(#p18e004b1e6)" style="fill: none; stroke: #000000; stroke-width: 1.5; stroke-linecap: square"/>
   </g>
   <g id="line2d_63">
    <path d="M 486.994545 104.849791 
L 374.997423 45.636183 
" clip-path="url(#p18e004b1e6)" style="fill: none; stroke: #000000; stroke-width: 1.5; stroke-linecap: square"/>
   </g>
   <g id="line2d_64">
    <path d="M 423.224525 117.942051 
L 423.277138 127.475249 
" clip-path="url(#p18e004b1e6)" style="fill: none; stroke: #000000; stroke-width: 1.5; stroke-linecap: square"/>
   </g>
   <g id="line2d_65">
    <path d="M 374.997423 45.636183 
L 377.025939 104.849791 
" clip-path="url(#p18e004b1e6)" style="fill: none; stroke: #000000; stroke-width: 1.5; stroke-linecap: square"/>
   </g>
   <g id="line2d_66">
    <path d="M 486.994545 104.849791 
L 420.902381 113.801887 
" clip-path="url(#p18e004b1e6)" style="fill: none; stroke: #800080; stroke-opacity: 0.8; stroke-width: 0.7; stroke-linecap: square"/>
   </g>
   <g id="line2d_67">
    <path d="M 486.994545 104.849791 
L 418.467413 109.609124 
" clip-path="url(#p18e004b1e6)" style="fill: none; stroke: #800080; stroke-opacity: 0.8; stroke-width: 0.7; stroke-linecap: square"/>
   </g>
   <g id="line2d_68">
    <path d="M 486.994545 104.849791 
L 415.643837 104.901604 
" clip-path="url(#p18e004b1e6)" style="fill: none; stroke: #800080; stroke-opacity: 0.8; stroke-width: 0.7; stroke-linecap: square"/>
   </g>
   <g id="line2d_69">
    <path d="M 486.994545 104.849791 
L 412.526316 99.857151 
" clip-path="url(#p18e004b1e6)" style="fill: none; stroke: #800080; stroke-opacity: 0.8; stroke-width: 0.7; stroke-linecap: square"/>
   </g>
   <g id="line2d_70">
    <path d="M 486.994545 104.849791 
L 408.990779 94.291344 
" clip-path="url(#p18e004b1e6)" style="fill: none; stroke: #800080; stroke-opacity: 0.8; stroke-width: 0.7; stroke-linecap: square"/>
   </g>
   <g id="line2d_71">
    <path d="M 486.994545 104.849791 
L 405.137498 88.37773 
" clip-path="url(#p18e004b1e6)" style="fill: none; stroke: #800080; stroke-opacity: 0.8; stroke-width: 0.7; stroke-linecap: square"/>
   </g>
   <g id="line2d_72">
    <path d="M 486.994545 104.849791 
L 400.957439 82.111734 
" clip-path="url(#p18e004b1e6)" style="fill: none; stroke: #800080; stroke-opacity: 0.8; stroke-width: 0.7; stroke-linecap: square"/>
   </g>
   <g id="line2d_73">
    <path d="M 486.994545 104.849791 
L 396.442456 75.491497 
" clip-path="url(#p18e004b1e6)" style="fill: none; stroke: #800080; stroke-opacity: 0.8; stroke-width: 0.7; stroke-linecap: square"/>
   </g>
   <g id="line2d_74">
    <path d="M 486.994545 104.849791 
L 391.583681 68.51514 
" clip-path="url(#p18e004b1e6)" style="fill: none; stroke: #800080; stroke-opacity: 0.8; stroke-width: 0.7; stroke-linecap: square"/>
   </g>
   <g id="line2d_75">
    <path d="M 486.994545 104.849791 
L 386.37222 61.181938 
" clip-path="url(#p18e004b1e6)" style="fill: none; stroke: #800080; stroke-opacity: 0.8; stroke-width: 0.7; stroke-linecap: square"/>
   </g>
   <g id="line2d_76">
    <path d="M 486.994545 104.849791 
L 380.801496 53.495127 
" clip-path="url(#p18e004b1e6)" style="fill: none; stroke: #800080; stroke-opacity: 0.8; stroke-width: 0.7; stroke-linecap: square"/>
   </g>
   <g id="Poly3DCollection_3">
    <path d="M 486.994545 104.849791 
L 382.471537 107.513704 
L 377.025939 104.849791 
z
" clip-path="url(#p18e004b1e6)" style="fill: #440044; fill-opacity: 0.25"/>
    <path d="M 486.994545 104.849791 
L 387.725896 110.084065 
L 382.471537 107.513704 
z
" clip-path="url(#p18e004b1e6)" style="fill: #440044; fill-opacity: 0.25"/>
    <path d="M 486.994545 104.849791 
L 392.667054 112.501212 
L 387.725896 110.084065 
z
" clip-path="url(#p18e004b1e6)" style="fill: #440044; fill-opacity: 0.25"/>
    <path d="M 486.994545 104.849791 
L 374.997423 45.636183 
L 377.025939 104.849791 
z
" clip-path="url(#p18e004b1e6)" style="fill: #530053; fill-opacity: 0.25"/>
    <path d="M 374.997423 45.636183 
L 382.471537 107.513704 
L 377.025939 104.849791 
z
" clip-path="url(#p18e004b1e6)" style="fill: #710071; fill-opacity: 0.25"/>
    <path d="M 486.994545 104.849791 
L 397.29716 114.766197 
L 392.667054 112.501212 
z
" clip-path="url(#p18e004b1e6)" style="fill: #440044; fill-opacity: 0.25"/>
    <path d="M 486.994545 104.849791 
L 401.620736 116.881231 
L 397.29716 114.766197 
z
" clip-path="url(#p18e004b1e6)" style="fill: #440044; fill-opacity: 0.25"/>
    <path d="M 380.801496 53.495127 
L 387.725896 110.084065 
L 382.471537 107.513704 
z
" clip-path="url(#p18e004b1e6)" style="fill: #710071; fill-opacity: 0.25"/>
    <path d="M 486.994545 104.849791 
L 405.642486 118.848617 
L 401.620736 116.881231 
z
" clip-path="url(#p18e004b1e6)" style="fill: #440044; fill-opacity: 0.25"/>
    <path d="M 486.994545 104.849791 
L 409.366638 120.670422 
L 405.642486 118.848617 
z
" clip-path="url(#p18e004b1e6)" style="fill: #440044; fill-opacity: 0.25"/>
    <path d="M 486.994545 104.849791 
L 380.801496 53.495127 
L 374.997423 45.636183 
z
" clip-path="url(#p18e004b1e6)" style="fill: #300030; fill-opacity: 0.25"/>
    <path d="M 386.37222 61.181938 
L 392.667054 112.501212 
L 387.725896 110.084065 
z
" clip-path="url(#p18e004b1e6)" style="fill: #710071; fill-opacity: 0.25"/>
    <path d="M 380.801496 53.495127 
L 382.471537 107.513704 
L 374.997423 45.636183 
z
" clip-path="url(#p18e004b1e6)" style="fill: #710071; fill-opacity: 0.25"/>
    <path d="M 486.994545 104.849791 
L 386.37222 61.181938 
L 380.801496 53.495127 
z
" clip-path="url(#p18e004b1e6)" style="fill: #310031; fill-opacity: 0.25"/>
    <path d="M 486.994545 104.849791 
L 412.798508 122.349246 
L 409.366638 120.670422 
z
" clip-path="url(#p18e004b1e6)" style="fill: #440044; fill-opacity: 0.25"/>
    <path d="M 486.994545 104.849791 
L 391.583681 68.51514 
L 386.37222 61.181938 
z
" clip-path="url(#p18e004b1e6)" style="fill: #310031; fill-opacity: 0.25"/>
    <path d="M 391.583681 68.51514 
L 397.29716 114.766197 
L 392.667054 112.501212 
z
" clip-path="url(#p18e004b1e6)" style="fill: #710071; fill-opacity: 0.25"/>
    <path d="M 486.994545 104.849791 
L 415.836913 123.835592 
L 412.798508 122.349246 
z
" clip-path="url(#p18e004b1e6)" style="fill: #440044; fill-opacity: 0.25"/>
    <path d="M 486.994545 104.849791 
L 396.442456 75.491497 
L 391.583681 68.51514 
z
" clip-path="url(#p18e004b1e6)" style="fill: #320032; fill-opacity: 0.25"/>
    <path d="M 386.37222 61.181938 
L 387.725896 110.084065 
L 380.801496 53.495127 
z
" clip-path="url(#p18e004b1e6)" style="fill: #710071; fill-opacity: 0.25"/>
    <path d="M 486.994545 104.849791 
L 418.599245 125.186887 
L 415.836913 123.835592 
z
" clip-path="url(#p18e004b1e6)" style="fill: #440044; fill-opacity: 0.25"/>
    <path d="M 486.994545 104.849791 
L 400.957439 82.111734 
L 396.442456 75.491497 
z
" clip-path="url(#p18e004b1e6)" style="fill: #320032; fill-opacity: 0.25"/>
    <path d="M 396.442456 75.491497 
L 401.620736 116.881231 
L 397.29716 114.766197 
z
" clip-path="url(#p18e004b1e6)" style="fill: #710071; fill-opacity: 0.25"/>
    <path d="M 486.994545 104.849791 
L 420.989753 126.356291 
L 418.599245 125.186887 
z
" clip-path="url(#p18e004b1e6)" style="fill: #440044; fill-opacity: 0.25"/>
    <path d="M 486.994545 104.849791 
L 405.137498 88.37773 
L 400.957439 82.111734 
z
" clip-path="url(#p18e004b1e6)" style="fill: #330033; fill-opacity: 0.25"/>
    <path d="M 391.583681 68.51514 
L 392.667054 112.501212 
L 386.37222 61.181938 
z
" clip-path="url(#p18e004b1e6)" style="fill: #710071; fill-opacity: 0.25"/>
    <path d="M 486.994545 104.849791 
L 408.990779 94.291344 
L 405.137498 88.37773 
z
" clip-path="url(#p18e004b1e6)" style="fill: #340034; fill-opacity: 0.25"/>
    <path d="M 486.994545 104.849791 
L 423.277138 127.475249 
L 420.989753 126.356291 
z
" clip-path="url(#p18e004b1e6)" style="fill: #440044; fill-opacity: 0.25"/>
    <path d="M 486.994545 104.849791 
L 412.526316 99.857151 
L 408.990779 94.291344 
z
" clip-path="url(#p18e004b1e6)" style="fill: #340034; fill-opacity: 0.25"/>
    <path d="M 400.957439 82.111734 
L 405.642486 118.848617 
L 401.620736 116.881231 
z
" clip-path="url(#p18e004b1e6)" style="fill: #710071; fill-opacity: 0.25"/>
    <path d="M 486.994545 104.849791 
L 415.643837 104.901604 
L 412.526316 99.857151 
z
" clip-path="url(#p18e004b1e6)" style="fill: #340034; fill-opacity: 0.25"/>
    <path d="M 486.994545 104.849791 
L 423.277138 127.475249 
L 423.224525 117.942051 
z
" clip-path="url(#p18e004b1e6)" style="fill: #3a003a; fill-opacity: 0.25"/>
    <path d="M 396.442456 75.491497 
L 397.29716 114.766197 
L 391.583681 68.51514 
z
" clip-path="url(#p18e004b1e6)" style="fill: #710071; fill-opacity: 0.25"/>
    <path d="M 486.994545 104.849791 
L 418.467413 109.609124 
L 415.643837 104.901604 
z
" clip-path="url(#p18e004b1e6)" style="fill: #350035; fill-opacity: 0.25"/>
    <path d="M 486.994545 104.849791 
L 420.902381 113.801887 
L 418.467413 109.609124 
z
" clip-path="url(#p18e004b1e6)" style="fill: #350035; fill-opacity: 0.25"/>
    <path d="M 486.994545 104.849791 
L 423.224525 117.942051 
L 420.902381 113.801887 
z
" clip-path="url(#p18e004b1e6)" style="fill: #350035; fill-opacity: 0.25"/>
    <path d="M 405.137498 88.37773 
L 409.366638 120.670422 
L 405.642486 118.848617 
z
" clip-path="url(#p18e004b1e6)" style="fill: #710071; fill-opacity: 0.25"/>
    <path d="M 400.957439 82.111734 
L 401.620736 116.881231 
L 396.442456 75.491497 
z
" clip-path="url(#p18e004b1e6)" style="fill: #710071; fill-opacity: 0.25"/>
    <path d="M 408.990779 94.291344 
L 412.798508 122.349246 
L 409.366638 120.670422 
z
" clip-path="url(#p18e004b1e6)" style="fill: #710071; fill-opacity: 0.25"/>
    <path d="M 405.137498 88.37773 
L 405.642486 118.848617 
L 400.957439 82.111734 
z
" clip-path="url(#p18e004b1e6)" style="fill: #710071; fill-opacity: 0.25"/>
    <path d="M 412.526316 99.857151 
L 415.836913 123.835592 
L 412.798508 122.349246 
z
" clip-path="url(#p18e004b1e6)" style="fill: #710071; fill-opacity: 0.25"/>
    <path d="M 408.990779 94.291344 
L 409.366638 120.670422 
L 405.137498 88.37773 
z
" clip-path="url(#p18e004b1e6)" style="fill: #710071; fill-opacity: 0.25"/>
    <path d="M 415.643837 104.901604 
L 418.599245 125.186887 
L 415.836913 123.835592 
z
" clip-path="url(#p18e004b1e6)" style="fill: #710071; fill-opacity: 0.25"/>
    <path d="M 412.526316 99.857151 
L 412.798508 122.349246 
L 408.990779 94.291344 
z
" clip-path="url(#p18e004b1e6)" style="fill: #710071; fill-opacity: 0.25"/>
    <path d="M 415.643837 104.901604 
L 415.836913 123.835592 
L 412.526316 99.857151 
z
" clip-path="url(#p18e004b1e6)" style="fill: #710071; fill-opacity: 0.25"/>
    <path d="M 418.467413 109.609124 
L 420.989753 126.356291 
L 418.599245 125.186887 
z
" clip-path="url(#p18e004b1e6)" style="fill: #710071; fill-opacity: 0.25"/>
    <path d="M 418.467413 109.609124 
L 418.599245 125.186887 
L 415.643837 104.901604 
z
" clip-path="url(#p18e004b1e6)" style="fill: #710071; fill-opacity: 0.25"/>
    <path d="M 420.902381 113.801887 
L 423.277138 127.475249 
L 420.989753 126.356291 
z
" clip-path="url(#p18e004b1e6)" style="fill: #710071; fill-opacity: 0.25"/>
    <path d="M 420.902381 113.801887 
L 420.989753 126.356291 
L 418.467413 109.609124 
z
" clip-path="url(#p18e004b1e6)" style="fill: #710071; fill-opacity: 0.25"/>
    <path d="M 423.224525 117.942051 
L 423.277138 127.475249 
L 420.902381 113.801887 
z
" clip-path="url(#p18e004b1e6)" style="fill: #710071; fill-opacity: 0.25"/>
   </g>
   <g id="text_36">
    <!-- (c) RB-PWL -->
    <g transform="translate(399.392433 18.962021) scale(0.12 -0.12)">
     <defs>
      <path id="TeXGyreTermesX-Regular-63" d="M 2637 942 
L 2547 999 
C 2240 550 2010 397 1645 397 
C 1056 397 653 909 653 1645 
C 653 2310 1005 2758 1523 2758 
C 1754 2758 1837 2688 1901 2451 
L 1939 2310 
C 1990 2125 2106 2016 2246 2016 
C 2413 2016 2547 2138 2547 2285 
C 2547 2643 2099 2944 1562 2944 
C 1261 2944 954 2829 698 2618 
C 352 2330 160 1888 160 1357 
C 160 531 666 -64 1376 -64 
C 1651 -64 1894 26 2112 205 
C 2304 358 2432 545 2637 942 
z
" transform="scale(0.015625)"/>
      <path id="TeXGyreTermesX-Regular-52" d="M 4218 0 
L 4218 121 
C 3974 140 3846 205 3661 424 
L 2342 2061 
C 2771 2143 2963 2219 3174 2388 
C 3379 2553 3501 2818 3501 3113 
C 3501 3385 3418 3618 3251 3801 
C 3008 4059 2477 4224 1875 4224 
L 109 4224 
L 109 4102 
C 589 4051 653 3981 653 3528 
L 653 765 
C 653 236 589 159 109 121 
L 109 0 
L 1882 0 
L 1882 134 
C 1389 134 1306 219 1306 692 
L 1306 1984 
L 1664 1984 
L 3187 0 
L 4218 0 
z
M 2803 3123 
C 2803 2807 2669 2542 2438 2423 
C 2144 2258 1920 2221 1306 2221 
L 1306 3762 
C 1306 3937 1376 3987 1632 3987 
C 2432 3987 2803 3716 2803 3123 
z
" transform="scale(0.015625)"/>
     </defs>
     <use xlink:href="#TeXGyreTermesX-Regular-28" transform="scale(0.996264)"/>
     <use xlink:href="#TeXGyreTermesX-Regular-63" transform="translate(33.17561 0) scale(0.996264)"/>
     <use xlink:href="#TeXGyreTermesX-Regular-29" transform="translate(77.409756 0) scale(0.996264)"/>
     <use xlink:href="#TeXGyreTermesX-Regular-52" transform="translate(135.491966 0) scale(0.996264)"/>
     <use xlink:href="#TeXGyreTermesX-Regular-42" transform="translate(201.942757 0) scale(0.996264)"/>
     <use xlink:href="#TeXGyreTermesX-Regular-2d" transform="translate(268.393549 0) scale(0.996264)"/>
     <use xlink:href="#TeXGyreTermesX-Regular-50" transform="translate(301.569158 0) scale(0.996264)"/>
     <use xlink:href="#TeXGyreTermesX-Regular-57" transform="translate(356.961413 0) scale(0.996264)"/>
     <use xlink:href="#TeXGyreTermesX-Regular-4c" transform="translate(451.00876 0) scale(0.996264)"/>
    </g>
   </g>
  </g>
  <g id="patch_14">
   <path d="M 535.831579 148.168421 
L 676.8 148.168421 
L 676.8 7.2 
L 535.831579 7.2 
L 535.831579 148.168421 
z
" style="fill: none"/>
  </g>
  <g id="pane3d_10">
   <g id="patch_15">
    <path d="M 608.220768 79.177725 
L 545.264587 106.038635 
L 542.843331 44.356071 
L 608.220768 20.98699 
" style="fill: none; opacity: 0"/>
   </g>
  </g>
  <g id="pane3d_11">
   <g id="patch_16">
    <path d="M 671.176949 106.038635 
L 608.220768 79.177725 
L 608.220768 20.98699 
L 673.598205 44.356071 
" style="fill: none; opacity: 0"/>
   </g>
  </g>
  <g id="pane3d_12">
   <g id="patch_17">
    <path d="M 671.176949 106.038635 
L 608.220768 79.177725 
L 545.264587 106.038635 
L 608.220768 137.247814 
" style="fill: none; opacity: 0"/>
   </g>
  </g>
  <g id="grid3d_10">
   <g id="Line3DCollection_10">
    <path d="M 603.912385 135.112026 
L 666.891079 104.210023 
L 669.136392 42.761202 
" style="fill: none; stroke: #b0b0b0; stroke-width: 0.8"/>
    <path d="M 584.766355 125.620791 
L 647.805223 96.066845 
L 649.286772 35.66598 
" style="fill: none; stroke: #b0b0b0; stroke-width: 0.8"/>
    <path d="M 566.477196 116.554332 
L 629.512534 88.262079 
L 630.292268 28.876419 
" style="fill: none; stroke: #b0b0b0; stroke-width: 0.8"/>
    <path d="M 548.988644 107.884756 
L 611.964575 80.775059 
L 612.098787 22.373183 
" style="fill: none; stroke: #b0b0b0; stroke-width: 0.8"/>
   </g>
  </g>
  <g id="grid3d_11">
   <g id="Line3DCollection_11">
    <path d="M 604.342749 22.373183 
L 604.476961 80.775059 
L 667.452892 107.884756 
" style="fill: none; stroke: #b0b0b0; stroke-width: 0.8"/>
    <path d="M 586.149269 28.876419 
L 586.929002 88.262079 
L 649.96434 116.554332 
" style="fill: none; stroke: #b0b0b0; stroke-width: 0.8"/>
    <path d="M 567.154764 35.66598 
L 568.636313 96.066845 
L 631.675181 125.620791 
" style="fill: none; stroke: #b0b0b0; stroke-width: 0.8"/>
    <path d="M 547.305144 42.761202 
L 549.550458 104.210023 
L 612.529151 135.112026 
" style="fill: none; stroke: #b0b0b0; stroke-width: 0.8"/>
   </g>
  </g>
  <g id="grid3d_12">
   <g id="Line3DCollection_12">
    <path d="M 671.223616 104.849791 
L 608.220768 78.053235 
L 545.217921 104.849791 
" style="fill: none; stroke: #b0b0b0; stroke-width: 0.8"/>
    <path d="M 672.086959 82.855743 
L 608.220768 57.270672 
L 544.354578 82.855743 
" style="fill: none; stroke: #b0b0b0; stroke-width: 0.8"/>
    <path d="M 672.974292 60.25054 
L 608.220768 35.951916 
L 543.467245 60.25054 
" style="fill: none; stroke: #b0b0b0; stroke-width: 0.8"/>
   </g>
  </g>
  <g id="axis3d_10">
   <g id="line2d_77">
    <path d="M 545.264587 106.038635 
L 608.220768 137.247814 
" style="fill: none; stroke: #000000; stroke-width: 0.8; stroke-linecap: square"/>
   </g>
   <g id="xtick_34">
    <g id="line2d_78">
     <path d="M 604.456435 134.845074 
L 602.822179 135.646961 
" style="fill: none; stroke: #000000; stroke-width: 0.8; stroke-linecap: square"/>
    </g>
    <g id="text_37">
     <!-- $\mathdefault{0}$ -->
     <g transform="translate(590.72165 157.101629) scale(0.1 -0.1)">
      <use xlink:href="#TeXGyreTermesX-Regular-30" transform="scale(0.996264)"/>
     </g>
    </g>
   </g>
   <g id="xtick_35">
    <g id="line2d_79">
     <path d="M 585.310004 125.365917 
L 583.677001 126.131503 
" style="fill: none; stroke: #000000; stroke-width: 0.8; stroke-linecap: square"/>
    </g>
    <g id="text_38">
     <!-- $\mathdefault{1}$ -->
     <g transform="translate(571.702072 147.201951) scale(0.1 -0.1)">
      <use xlink:href="#TeXGyreTermesX-Regular-31" transform="scale(0.996264)"/>
     </g>
    </g>
   </g>
   <g id="xtick_36">
    <g id="line2d_80">
     <path d="M 567.019935 116.310733 
L 565.389712 117.042429 
" style="fill: none; stroke: #000000; stroke-width: 0.8; stroke-linecap: square"/>
    </g>
    <g id="text_39">
     <!-- $\mathdefault{2}$ -->
     <g transform="translate(553.538921 137.748043) scale(0.1 -0.1)">
      <use xlink:href="#TeXGyreTermesX-Regular-32" transform="scale(0.996264)"/>
     </g>
    </g>
   </g>
   <g id="xtick_37">
    <g id="line2d_81">
     <path d="M 549.530031 107.651702 
L 547.903912 108.351709 
" style="fill: none; stroke: #000000; stroke-width: 0.8; stroke-linecap: square"/>
    </g>
    <g id="text_40">
     <!-- $\mathdefault{3}$ -->
     <g transform="translate(536.175625 128.710459) scale(0.1 -0.1)">
      <use xlink:href="#TeXGyreTermesX-Regular-33" transform="scale(0.996264)"/>
     </g>
    </g>
   </g>
  </g>
  <g id="axis3d_11">
   <g id="line2d_82">
    <path d="M 671.176949 106.038635 
L 608.220768 137.247814 
" style="fill: none; stroke: #000000; stroke-width: 0.8; stroke-linecap: square"/>
   </g>
   <g id="xtick_38">
    <g id="line2d_83">
     <path d="M 666.911505 107.651702 
L 668.537624 108.351709 
" style="fill: none; stroke: #000000; stroke-width: 0.8; stroke-linecap: square"/>
    </g>
    <g id="text_41">
     <!-- $\mathdefault{0}$ -->
     <g transform="translate(675.284591 128.710459) scale(0.1 -0.1)">
      <use xlink:href="#TeXGyreTermesX-Regular-30" transform="scale(0.996264)"/>
     </g>
    </g>
   </g>
   <g id="xtick_39">
    <g id="line2d_84">
     <path d="M 649.421601 116.310733 
L 651.051825 117.042429 
" style="fill: none; stroke: #000000; stroke-width: 0.8; stroke-linecap: square"/>
    </g>
    <g id="text_42">
     <!-- $\mathdefault{1}$ -->
     <g transform="translate(657.921295 137.748043) scale(0.1 -0.1)">
      <use xlink:href="#TeXGyreTermesX-Regular-31" transform="scale(0.996264)"/>
     </g>
    </g>
   </g>
   <g id="xtick_40">
    <g id="line2d_85">
     <path d="M 631.131532 125.365917 
L 632.764536 126.131503 
" style="fill: none; stroke: #000000; stroke-width: 0.8; stroke-linecap: square"/>
    </g>
    <g id="text_43">
     <!-- $\mathdefault{2}$ -->
     <g transform="translate(639.758144 147.201951) scale(0.1 -0.1)">
      <use xlink:href="#TeXGyreTermesX-Regular-32" transform="scale(0.996264)"/>
     </g>
    </g>
   </g>
   <g id="xtick_41">
    <g id="line2d_86">
     <path d="M 611.985101 134.845074 
L 613.619357 135.646961 
" style="fill: none; stroke: #000000; stroke-width: 0.8; stroke-linecap: square"/>
    </g>
    <g id="text_44">
     <!-- $\mathdefault{3}$ -->
     <g transform="translate(620.738566 157.101629) scale(0.1 -0.1)">
      <use xlink:href="#TeXGyreTermesX-Regular-33" transform="scale(0.996264)"/>
     </g>
    </g>
   </g>
  </g>
  <g id="axis3d_12">
   <g id="line2d_87">
    <path d="M 671.176949 106.038635 
L 673.598205 44.356071 
" style="fill: none; stroke: #000000; stroke-width: 0.8; stroke-linecap: square"/>
   </g>
   <g id="xtick_42">
    <g id="line2d_88">
     <path d="M 670.682148 104.619493 
L 672.3085 105.311217 
" style="fill: none; stroke: #000000; stroke-width: 0.8; stroke-linecap: square"/>
    </g>
    <g id="text_45">
     <!-- $\mathdefault{0}$ -->
     <g transform="translate(688.469331 111.689134) scale(0.1 -0.1)">
      <use xlink:href="#TeXGyreTermesX-Regular-30" transform="scale(0.996264)"/>
     </g>
    </g>
   </g>
   <g id="xtick_43">
    <g id="line2d_89">
     <path d="M 671.537552 82.635648 
L 673.187778 83.296736 
" style="fill: none; stroke: #000000; stroke-width: 0.8; stroke-linecap: square"/>
    </g>
    <g id="text_46">
     <!-- $\mathdefault{20}$ -->
     <g transform="translate(687.112467 89.695085) scale(0.1 -0.1)">
      <use xlink:href="#TeXGyreTermesX-Regular-32" transform="scale(0.996264)"/>
      <use xlink:href="#TeXGyreTermesX-Regular-30" transform="translate(49.8132 0) scale(0.996264)"/>
     </g>
    </g>
   </g>
   <g id="xtick_44">
    <g id="line2d_90">
     <path d="M 672.41671 60.041308 
L 674.091519 60.669777 
" style="fill: none; stroke: #000000; stroke-width: 0.8; stroke-linecap: square"/>
    </g>
    <g id="text_47">
     <!-- $\mathdefault{40}$ -->
     <g transform="translate(688.277767 67.089883) scale(0.1 -0.1)">
      <use xlink:href="#TeXGyreTermesX-Regular-34" transform="scale(0.996264)"/>
      <use xlink:href="#TeXGyreTermesX-Regular-30" transform="translate(49.8132 0) scale(0.996264)"/>
     </g>
    </g>
   </g>
  </g>
  <g id="axes_4">
   <g id="line2d_91">
    <path d="M 599.435052 117.942051 
L 597.112907 113.801887 
L 594.677939 109.609124 
L 591.854363 104.901604 
L 588.736842 99.857151 
L 585.201305 94.291344 
L 581.348024 88.37773 
L 577.167965 82.111734 
L 572.652983 75.491497 
L 567.794207 68.51514 
L 562.582746 61.181938 
L 557.012022 53.495127 
L 551.207949 45.636183 
" clip-path="url(#pc225d9efcb)" style="fill: none; stroke: #000000; stroke-width: 1.5; stroke-linecap: square"/>
   </g>
   <g id="line2d_92">
    <path d="M 599.435052 117.942039 
L 597.117539 114.467442 
L 594.688231 110.825232 
L 591.871708 106.60248 
L 588.762051 101.940239 
L 585.234943 96.652121 
L 581.389608 90.886894 
L 577.215996 84.629488 
L 572.704651 77.865725 
L 567.845061 70.579846 
L 562.626304 62.755476 
L 557.03935 54.379077 
L 551.207949 45.636183 
" clip-path="url(#pc225d9efcb)" style="fill: none; stroke: #696969; stroke-width: 0.7; stroke-linecap: square"/>
   </g>
   <g id="line2d_93">
    <path d="M 663.205071 104.849791 
L 599.435052 117.942039 
" clip-path="url(#pc225d9efcb)" style="fill: none; stroke: #696969; stroke-width: 1.5; stroke-linecap: square"/>
   </g>
   <g id="line2d_94">
    <path d="M 663.205071 104.849791 
L 551.207949 45.636183 
" clip-path="url(#pc225d9efcb)" style="fill: none; stroke: #696969; stroke-width: 1.5; stroke-linecap: square"/>
   </g>
   <g id="line2d_95">
    <path d="M 663.205071 104.849791 
L 599.435052 117.942051 
" clip-path="url(#pc225d9efcb)" style="fill: none; stroke: #000000; stroke-width: 1.5; stroke-linecap: square"/>
   </g>
   <g id="line2d_96">
    <path d="M 663.205071 104.849791 
L 551.207949 45.636183 
" clip-path="url(#pc225d9efcb)" style="fill: none; stroke: #000000; stroke-width: 1.5; stroke-linecap: square"/>
   </g>
   <g id="line2d_97">
    <path d="M 599.435052 117.942051 
L 599.435052 117.942039 
" clip-path="url(#pc225d9efcb)" style="fill: none; stroke: #000000; stroke-width: 1.5; stroke-linecap: square"/>
   </g>
   <g id="line2d_98">
    <path d="M 551.207949 45.636183 
L 551.207949 45.636183 
" clip-path="url(#pc225d9efcb)" style="fill: none; stroke: #000000; stroke-width: 1.5; stroke-linecap: square"/>
   </g>
   <g id="line2d_99">
    <path d="M 663.205071 104.849791 
L 597.112907 113.801887 
" clip-path="url(#pc225d9efcb)" style="fill: none; stroke: #008080; stroke-opacity: 0.8; stroke-width: 0.7; stroke-linecap: square"/>
   </g>
   <g id="line2d_100">
    <path d="M 663.205071 104.849791 
L 594.677939 109.609124 
" clip-path="url(#pc225d9efcb)" style="fill: none; stroke: #008080; stroke-opacity: 0.8; stroke-width: 0.7; stroke-linecap: square"/>
   </g>
   <g id="line2d_101">
    <path d="M 663.205071 104.849791 
L 591.854363 104.901604 
" clip-path="url(#pc225d9efcb)" style="fill: none; stroke: #008080; stroke-opacity: 0.8; stroke-width: 0.7; stroke-linecap: square"/>
   </g>
   <g id="line2d_102">
    <path d="M 663.205071 104.849791 
L 588.736842 99.857151 
" clip-path="url(#pc225d9efcb)" style="fill: none; stroke: #008080; stroke-opacity: 0.8; stroke-width: 0.7; stroke-linecap: square"/>
   </g>
   <g id="line2d_103">
    <path d="M 663.205071 104.849791 
L 585.201305 94.291344 
" clip-path="url(#pc225d9efcb)" style="fill: none; stroke: #008080; stroke-opacity: 0.8; stroke-width: 0.7; stroke-linecap: square"/>
   </g>
   <g id="line2d_104">
    <path d="M 663.205071 104.849791 
L 581.348024 88.37773 
" clip-path="url(#pc225d9efcb)" style="fill: none; stroke: #008080; stroke-opacity: 0.8; stroke-width: 0.7; stroke-linecap: square"/>
   </g>
   <g id="line2d_105">
    <path d="M 663.205071 104.849791 
L 577.167965 82.111734 
" clip-path="url(#pc225d9efcb)" style="fill: none; stroke: #008080; stroke-opacity: 0.8; stroke-width: 0.7; stroke-linecap: square"/>
   </g>
   <g id="line2d_106">
    <path d="M 663.205071 104.849791 
L 572.652983 75.491497 
" clip-path="url(#pc225d9efcb)" style="fill: none; stroke: #008080; stroke-opacity: 0.8; stroke-width: 0.7; stroke-linecap: square"/>
   </g>
   <g id="line2d_107">
    <path d="M 663.205071 104.849791 
L 567.794207 68.51514 
" clip-path="url(#pc225d9efcb)" style="fill: none; stroke: #008080; stroke-opacity: 0.8; stroke-width: 0.7; stroke-linecap: square"/>
   </g>
   <g id="line2d_108">
    <path d="M 663.205071 104.849791 
L 562.582746 61.181938 
" clip-path="url(#pc225d9efcb)" style="fill: none; stroke: #008080; stroke-opacity: 0.8; stroke-width: 0.7; stroke-linecap: square"/>
   </g>
   <g id="line2d_109">
    <path d="M 663.205071 104.849791 
L 557.012022 53.495127 
" clip-path="url(#pc225d9efcb)" style="fill: none; stroke: #008080; stroke-opacity: 0.8; stroke-width: 0.7; stroke-linecap: square"/>
   </g>
   <g id="line2d_110">
    <path d="M 663.205071 104.849791 
L 597.117539 114.467442 
" clip-path="url(#pc225d9efcb)" style="fill: none; stroke-dasharray: 2.59,1.12; stroke-dashoffset: 0; stroke: #696969; stroke-opacity: 0.8; stroke-width: 0.7"/>
   </g>
   <g id="line2d_111">
    <path d="M 663.205071 104.849791 
L 594.688231 110.825232 
" clip-path="url(#pc225d9efcb)" style="fill: none; stroke-dasharray: 2.59,1.12; stroke-dashoffset: 0; stroke: #696969; stroke-opacity: 0.8; stroke-width: 0.7"/>
   </g>
   <g id="line2d_112">
    <path d="M 663.205071 104.849791 
L 591.871708 106.60248 
" clip-path="url(#pc225d9efcb)" style="fill: none; stroke-dasharray: 2.59,1.12; stroke-dashoffset: 0; stroke: #696969; stroke-opacity: 0.8; stroke-width: 0.7"/>
   </g>
   <g id="line2d_113">
    <path d="M 663.205071 104.849791 
L 588.762051 101.940239 
" clip-path="url(#pc225d9efcb)" style="fill: none; stroke-dasharray: 2.59,1.12; stroke-dashoffset: 0; stroke: #696969; stroke-opacity: 0.8; stroke-width: 0.7"/>
   </g>
   <g id="line2d_114">
    <path d="M 663.205071 104.849791 
L 585.234943 96.652121 
" clip-path="url(#pc225d9efcb)" style="fill: none; stroke-dasharray: 2.59,1.12; stroke-dashoffset: 0; stroke: #696969; stroke-opacity: 0.8; stroke-width: 0.7"/>
   </g>
   <g id="line2d_115">
    <path d="M 663.205071 104.849791 
L 581.389608 90.886894 
" clip-path="url(#pc225d9efcb)" style="fill: none; stroke-dasharray: 2.59,1.12; stroke-dashoffset: 0; stroke: #696969; stroke-opacity: 0.8; stroke-width: 0.7"/>
   </g>
   <g id="line2d_116">
    <path d="M 663.205071 104.849791 
L 577.215996 84.629488 
" clip-path="url(#pc225d9efcb)" style="fill: none; stroke-dasharray: 2.59,1.12; stroke-dashoffset: 0; stroke: #696969; stroke-opacity: 0.8; stroke-width: 0.7"/>
   </g>
   <g id="line2d_117">
    <path d="M 663.205071 104.849791 
L 572.704651 77.865725 
" clip-path="url(#pc225d9efcb)" style="fill: none; stroke-dasharray: 2.59,1.12; stroke-dashoffset: 0; stroke: #696969; stroke-opacity: 0.8; stroke-width: 0.7"/>
   </g>
   <g id="line2d_118">
    <path d="M 663.205071 104.849791 
L 567.845061 70.579846 
" clip-path="url(#pc225d9efcb)" style="fill: none; stroke-dasharray: 2.59,1.12; stroke-dashoffset: 0; stroke: #696969; stroke-opacity: 0.8; stroke-width: 0.7"/>
   </g>
   <g id="line2d_119">
    <path d="M 663.205071 104.849791 
L 562.626304 62.755476 
" clip-path="url(#pc225d9efcb)" style="fill: none; stroke-dasharray: 2.59,1.12; stroke-dashoffset: 0; stroke: #696969; stroke-opacity: 0.8; stroke-width: 0.7"/>
   </g>
   <g id="line2d_120">
    <path d="M 663.205071 104.849791 
L 557.03935 54.379077 
" clip-path="url(#pc225d9efcb)" style="fill: none; stroke-dasharray: 2.59,1.12; stroke-dashoffset: 0; stroke: #696969; stroke-opacity: 0.8; stroke-width: 0.7"/>
   </g>
   <g id="Poly3DCollection_4">
    <path d="M 663.205071 104.849791 
L 551.207949 45.636183 
L 551.207949 45.636183 
z
" clip-path="url(#pc225d9efcb)" style="fill: #2e5475; fill-opacity: 0.22"/>
    <path d="M 663.205071 104.849791 
L 557.03935 54.379077 
L 551.207949 45.636183 
z
" clip-path="url(#pc225d9efcb)" style="fill: #1d3549; fill-opacity: 0.22"/>
    <path d="M 663.205071 104.849791 
L 557.012022 53.495127 
L 551.207949 45.636183 
z
" clip-path="url(#pc225d9efcb)" style="fill: #1a3143; fill-opacity: 0.22"/>
    <path d="M 663.205071 104.849791 
L 562.626304 62.755476 
L 557.03935 54.379077 
z
" clip-path="url(#pc225d9efcb)" style="fill: #1d3549; fill-opacity: 0.22"/>
    <path d="M 663.205071 104.849791 
L 562.582746 61.181938 
L 557.012022 53.495127 
z
" clip-path="url(#pc225d9efcb)" style="fill: #1b3144; fill-opacity: 0.22"/>
    <path d="M 663.205071 104.849791 
L 567.845061 70.579846 
L 562.626304 62.755476 
z
" clip-path="url(#pc225d9efcb)" style="fill: #1d3549; fill-opacity: 0.22"/>
    <path d="M 663.205071 104.849791 
L 567.794207 68.51514 
L 562.582746 61.181938 
z
" clip-path="url(#pc225d9efcb)" style="fill: #1b3245; fill-opacity: 0.22"/>
    <path d="M 663.205071 104.849791 
L 572.704651 77.865725 
L 567.845061 70.579846 
z
" clip-path="url(#pc225d9efcb)" style="fill: #1d3549; fill-opacity: 0.22"/>
    <path d="M 663.205071 104.849791 
L 572.652983 75.491497 
L 567.794207 68.51514 
z
" clip-path="url(#pc225d9efcb)" style="fill: #1b3346; fill-opacity: 0.22"/>
    <path d="M 663.205071 104.849791 
L 577.215996 84.629488 
L 572.704651 77.865725 
z
" clip-path="url(#pc225d9efcb)" style="fill: #1d3549; fill-opacity: 0.22"/>
    <path d="M 663.205071 104.849791 
L 577.167965 82.111734 
L 572.652983 75.491497 
z
" clip-path="url(#pc225d9efcb)" style="fill: #1c3347; fill-opacity: 0.22"/>
    <path d="M 663.205071 104.849791 
L 581.389608 90.886894 
L 577.215996 84.629488 
z
" clip-path="url(#pc225d9efcb)" style="fill: #1d3549; fill-opacity: 0.22"/>
    <path d="M 663.205071 104.849791 
L 581.348024 88.37773 
L 577.167965 82.111734 
z
" clip-path="url(#pc225d9efcb)" style="fill: #1c3448; fill-opacity: 0.22"/>
    <path d="M 663.205071 104.849791 
L 585.234943 96.652121 
L 581.389608 90.886894 
z
" clip-path="url(#pc225d9efcb)" style="fill: #1d3549; fill-opacity: 0.22"/>
    <path d="M 551.207949 45.636183 
L 557.03935 54.379077 
L 551.207949 45.636183 
z
" clip-path="url(#pc225d9efcb)" style="fill: #1d364b; fill-opacity: 0.22"/>
    <path d="M 663.205071 104.849791 
L 585.201305 94.291344 
L 581.348024 88.37773 
z
" clip-path="url(#pc225d9efcb)" style="fill: #1c3448; fill-opacity: 0.22"/>
    <path d="M 663.205071 104.849791 
L 588.762051 101.940239 
L 585.234943 96.652121 
z
" clip-path="url(#pc225d9efcb)" style="fill: #1d3549; fill-opacity: 0.22"/>
    <path d="M 557.012022 53.495127 
L 557.03935 54.379077 
L 551.207949 45.636183 
z
" clip-path="url(#pc225d9efcb)" style="fill: #3e739f; fill-opacity: 0.22"/>
    <path d="M 663.205071 104.849791 
L 588.736842 99.857151 
L 585.201305 94.291344 
z
" clip-path="url(#pc225d9efcb)" style="fill: #1c3549; fill-opacity: 0.22"/>
    <path d="M 663.205071 104.849791 
L 591.871708 106.60248 
L 588.762051 101.940239 
z
" clip-path="url(#pc225d9efcb)" style="fill: #1d3549; fill-opacity: 0.22"/>
    <path d="M 663.205071 104.849791 
L 591.854363 104.901604 
L 588.736842 99.857151 
z
" clip-path="url(#pc225d9efcb)" style="fill: #1d354a; fill-opacity: 0.22"/>
    <path d="M 663.205071 104.849791 
L 594.688231 110.825232 
L 591.871708 106.60248 
z
" clip-path="url(#pc225d9efcb)" style="fill: #1d3549; fill-opacity: 0.22"/>
    <path d="M 557.012022 53.495127 
L 562.626304 62.755476 
L 557.03935 54.379077 
z
" clip-path="url(#pc225d9efcb)" style="fill: #3e739f; fill-opacity: 0.22"/>
    <path d="M 663.205071 104.849791 
L 594.677939 109.609124 
L 591.854363 104.901604 
z
" clip-path="url(#pc225d9efcb)" style="fill: #1d364a; fill-opacity: 0.22"/>
    <path d="M 663.205071 104.849791 
L 597.117539 114.467442 
L 594.688231 110.825232 
z
" clip-path="url(#pc225d9efcb)" style="fill: #1d3549; fill-opacity: 0.22"/>
    <path d="M 663.205071 104.849791 
L 597.112907 113.801887 
L 594.677939 109.609124 
z
" clip-path="url(#pc225d9efcb)" style="fill: #1d364b; fill-opacity: 0.22"/>
    <path d="M 562.582746 61.181938 
L 562.626304 62.755476 
L 557.012022 53.495127 
z
" clip-path="url(#pc225d9efcb)" style="fill: #3e739f; fill-opacity: 0.22"/>
    <path d="M 663.205071 104.849791 
L 599.435052 117.942039 
L 597.117539 114.467442 
z
" clip-path="url(#pc225d9efcb)" style="fill: #1d3549; fill-opacity: 0.22"/>
    <path d="M 663.205071 104.849791 
L 599.435052 117.942051 
L 597.112907 113.801887 
z
" clip-path="url(#pc225d9efcb)" style="fill: #1d364b; fill-opacity: 0.22"/>
    <path d="M 663.205071 104.849791 
L 599.435052 117.942039 
L 599.435052 117.942051 
z
" clip-path="url(#pc225d9efcb)" style="fill: #3b6e98; fill-opacity: 0.22"/>
    <path d="M 562.582746 61.181938 
L 567.845061 70.579846 
L 562.626304 62.755476 
z
" clip-path="url(#pc225d9efcb)" style="fill: #3e739f; fill-opacity: 0.22"/>
    <path d="M 567.794207 68.51514 
L 567.845061 70.579846 
L 562.582746 61.181938 
z
" clip-path="url(#pc225d9efcb)" style="fill: #3e739f; fill-opacity: 0.22"/>
    <path d="M 567.794207 68.51514 
L 572.704651 77.865725 
L 567.845061 70.579846 
z
" clip-path="url(#pc225d9efcb)" style="fill: #3e739f; fill-opacity: 0.22"/>
    <path d="M 572.652983 75.491497 
L 572.704651 77.865725 
L 567.794207 68.51514 
z
" clip-path="url(#pc225d9efcb)" style="fill: #3e739f; fill-opacity: 0.22"/>
    <path d="M 572.652983 75.491497 
L 577.215996 84.629488 
L 572.704651 77.865725 
z
" clip-path="url(#pc225d9efcb)" style="fill: #3e739f; fill-opacity: 0.22"/>
    <path d="M 577.167965 82.111734 
L 577.215996 84.629488 
L 572.652983 75.491497 
z
" clip-path="url(#pc225d9efcb)" style="fill: #3e739f; fill-opacity: 0.22"/>
    <path d="M 577.167965 82.111734 
L 581.389608 90.886894 
L 577.215996 84.629488 
z
" clip-path="url(#pc225d9efcb)" style="fill: #3e739f; fill-opacity: 0.22"/>
    <path d="M 581.348024 88.37773 
L 581.389608 90.886894 
L 577.167965 82.111734 
z
" clip-path="url(#pc225d9efcb)" style="fill: #3e739f; fill-opacity: 0.22"/>
    <path d="M 581.348024 88.37773 
L 585.234943 96.652121 
L 581.389608 90.886894 
z
" clip-path="url(#pc225d9efcb)" style="fill: #3e739f; fill-opacity: 0.22"/>
    <path d="M 585.201305 94.291344 
L 585.234943 96.652121 
L 581.348024 88.37773 
z
" clip-path="url(#pc225d9efcb)" style="fill: #3e739f; fill-opacity: 0.22"/>
    <path d="M 585.201305 94.291344 
L 588.762051 101.940239 
L 585.234943 96.652121 
z
" clip-path="url(#pc225d9efcb)" style="fill: #3e739f; fill-opacity: 0.22"/>
    <path d="M 588.736842 99.857151 
L 588.762051 101.940239 
L 585.201305 94.291344 
z
" clip-path="url(#pc225d9efcb)" style="fill: #3e739f; fill-opacity: 0.22"/>
    <path d="M 588.736842 99.857151 
L 591.871708 106.60248 
L 588.762051 101.940239 
z
" clip-path="url(#pc225d9efcb)" style="fill: #3e739f; fill-opacity: 0.22"/>
    <path d="M 591.854363 104.901604 
L 591.871708 106.60248 
L 588.736842 99.857151 
z
" clip-path="url(#pc225d9efcb)" style="fill: #3e739f; fill-opacity: 0.22"/>
    <path d="M 591.854363 104.901604 
L 594.688231 110.825232 
L 591.871708 106.60248 
z
" clip-path="url(#pc225d9efcb)" style="fill: #3e739f; fill-opacity: 0.22"/>
    <path d="M 594.677939 109.609124 
L 594.688231 110.825232 
L 591.854363 104.901604 
z
" clip-path="url(#pc225d9efcb)" style="fill: #3e739f; fill-opacity: 0.22"/>
    <path d="M 594.677939 109.609124 
L 597.117539 114.467442 
L 594.688231 110.825232 
z
" clip-path="url(#pc225d9efcb)" style="fill: #3e739f; fill-opacity: 0.22"/>
    <path d="M 597.112907 113.801887 
L 597.117539 114.467442 
L 594.677939 109.609124 
z
" clip-path="url(#pc225d9efcb)" style="fill: #3e739f; fill-opacity: 0.22"/>
    <path d="M 597.112907 113.801887 
L 599.435052 117.942039 
L 597.117539 114.467442 
z
" clip-path="url(#pc225d9efcb)" style="fill: #3e739f; fill-opacity: 0.22"/>
    <path d="M 599.435052 117.942051 
L 599.435052 117.942039 
L 597.112907 113.801887 
z
" clip-path="url(#pc225d9efcb)" style="fill: #1d364b; fill-opacity: 0.22"/>
   </g>
   <g id="text_48">
    <!-- (d) BRB-PWL -->
    <g transform="translate(571.281169 18.962021) scale(0.12 -0.12)">
     <defs>
      <path id="TeXGyreTermesX-Regular-64" d="M 3142 269 
L 3142 365 
C 3027 365 3014 365 2995 365 
C 2765 365 2714 435 2714 731 
L 2714 4364 
L 2682 4377 
C 2374 4268 2150 4204 1741 4096 
L 1741 3994 
C 1792 4000 1830 4000 1882 4000 
C 2118 4000 2176 3936 2176 3672 
L 2176 2669 
C 1933 2874 1760 2944 1504 2944 
C 768 2944 173 2221 173 1312 
C 173 493 653 -64 1357 -64 
C 1715 -64 1958 64 2176 365 
L 2176 -45 
L 2202 -64 
L 3142 269 
z
M 2176 653 
C 2176 608 2131 531 2067 461 
C 1952 333 1792 269 1606 269 
C 1075 269 723 781 723 1568 
C 723 2291 1037 2765 1523 2765 
C 1862 2765 2176 2464 2176 2125 
L 2176 653 
z
" transform="scale(0.015625)"/>
     </defs>
     <use xlink:href="#TeXGyreTermesX-Regular-28" transform="scale(0.996264)"/>
     <use xlink:href="#TeXGyreTermesX-Regular-64" transform="translate(33.17561 0) scale(0.996264)"/>
     <use xlink:href="#TeXGyreTermesX-Regular-29" transform="translate(82.98881 0) scale(0.996264)"/>
     <use xlink:href="#TeXGyreTermesX-Regular-42" transform="translate(141.07102 0) scale(0.996264)"/>
     <use xlink:href="#TeXGyreTermesX-Regular-52" transform="translate(207.521812 0) scale(0.996264)"/>
     <use xlink:href="#TeXGyreTermesX-Regular-42" transform="translate(273.972603 0) scale(0.996264)"/>
     <use xlink:href="#TeXGyreTermesX-Regular-2d" transform="translate(340.423394 0) scale(0.996264)"/>
     <use xlink:href="#TeXGyreTermesX-Regular-50" transform="translate(373.599004 0) scale(0.996264)"/>
     <use xlink:href="#TeXGyreTermesX-Regular-57" transform="translate(428.991258 0) scale(0.996264)"/>
     <use xlink:href="#TeXGyreTermesX-Regular-4c" transform="translate(523.038605 0) scale(0.996264)"/>
    </g>
   </g>
  </g>
 </g>
 <defs>
  <clipPath id="p5859b85b1b">
   <rect x="7.2" y="7.2" width="140.968421" height="140.968421"/>
  </clipPath>
  <clipPath id="p5c88f37282">
   <rect x="183.410526" y="7.2" width="140.968421" height="140.968421"/>
  </clipPath>
  <clipPath id="p18e004b1e6">
   <rect x="359.621053" y="7.2" width="140.968421" height="140.968421"/>
  </clipPath>
  <clipPath id="pc225d9efcb">
   <rect x="535.831579" y="7.2" width="140.968421" height="140.968421"/>
  </clipPath>
 </defs>
</svg>
